<?xml version="1.0"?>
<svg xmlns="http://www.w3.org/2000/svg" version="1.2" baseProfile="tiny" width="800" height="326" viewBox="0 0 800 326" stroke-linecap="round" stroke-linejoin="round">
<g id="recintos_municipales_inspire_peninbal_etrs89">
<path d="M 221.9766 39.4006 222.7249 38.7582 222.5004 38.3299 222.5752 36.5456 222.9494 34.2616 223.4732 31.6207 223.8473 31.9062 223.8473 33.0482 223.7725 34.333 225.7929 34.0475 227.4392 33.0482 229.1604 32.049 229.6093 31.6207 230.2828 30.8356 231.4801 29.194 232.8271 27.6951 233.7999 25.9107 234.3985 25.0542 235.2965 24.0549 235.8203 23.1984 236.1945 22.2705 236.868 20.4147 237.0176 19.0586 236.868 17.7738 236.419 16.9173 236.0448 16.4176 235.5958 15.918 234.5482 15.2042 234.0992 14.7046 234.0244 14.4191 233.9495 14.1336 234.0244 13.7767 234.174 13.4912 234.3985 13.2771 234.623 13.0629 234.9224 12.9202 235.2217 12.9202 236.7931 13.2057 237.3918 13.2771 238.3646 13.3484 239.936 13.2057 240.2354 13.1343 240.5347 12.9915 240.9837 12.3491 240.9837 11.564 241.0585 10.9216 241.0585 10.6361 240.9837 10.2792 240.7592 10.0651 240.2354 9.8509 240.0109 9.6368 240.0109 9.4227 240.1605 9.2085 240.385 8.9944 241.1333 8.4234 241.283 8.1379 241.5075 7.4955 241.732 7.2813 242.0313 7.0672 242.3306 6.9244 242.63 6.9244 242.9293 6.9958 243.079 7.1386 243.1538 7.4241 243.1538 7.781 242.9293 8.4947 242.9293 8.7089 243.2286 8.4947 243.5279 8.4234 243.8273 8.352 244.1266 8.4234 244.1266 8.6375 243.9021 8.8516 243.4531 8.9944 243.079 9.1371 242.8545 9.6368 242.8545 10.0651 242.8545 10.9216 242.9293 11.6354 243.0041 11.9209 243.1538 12.2778 243.3783 12.4919 243.9769 12.7774 244.2763 12.8488 244.8749 12.7774 246.3715 12.3491 246.5212 11.9209 246.6709 11.6354 246.9702 11.7067 247.2695 11.9209 247.2695 11.6354 247.2695 11.3499 246.9702 11.2785 247.045 10.993 247.1198 10.5647 247.3443 10.6361 247.6437 10.7788 247.943 10.8502 248.2423 10.8502 248.392 10.8502 248.5416 10.993 248.6165 11.2071 248.392 11.4212 248.392 11.564 248.6913 11.6354 248.9158 11.7067 249.0655 11.6354 249.2151 11.3499 249.4396 11.2071 249.4396 10.8502 249.5144 10.7075 249.6641 10.7075 249.8138 10.7788 250.0383 10.7788 250.1879 10.9216 250.1879 11.1357 250.2628 11.3499 250.3376 11.564 249.9634 11.7781 249.8886 11.9209 249.5893 12.3491 249.4396 12.5633 249.6641 12.8488 250.5621 13.4198 251.8342 13.5626 253.1063 13.6339 254.154 13.7767 256.0248 13.8481 257.3717 13.7767 258.6438 13.7767 259.6167 13.6339 260.5146 13.4198 262.0113 12.7774 265.229 11.9209 266.0521 11.564 267.9229 10.4933 268.5964 10.1364 268.7461 10.0651 270.3175 8.9944 271.2903 8.1379 271.8141 7.781 272.1135 7.6382 272.4128 7.5668 272.7121 7.6382 272.9366 7.781 273.2359 8.2092 273.7598 8.7803 274.6577 9.1371 275.855 9.6368 276.5285 9.8509 277.1272 10.0651 277.4265 10.2078 278.3245 10.4933 279.1476 10.7075 279.8959 10.6361 280.8687 11.1357 283.413 11.6354 284.311 11.4212 284.9844 11.1357 285.5083 10.8502 285.9572 10.6361 286.0321 10.0651 286.1069 9.7795 286.8552 8.7089 286.93 7.9951 287.1545 7.9951 287.379 8.7803 287.6035 9.3513 287.6784 9.8509 287.9029 10.0651 287.9777 10.2078 289.6988 10.8502 290.9709 10.7788 293.5152 10.1364 293.6649 10.0651 294.7125 9.5654 295.5356 9.2085 297.2568 8.1379 298.0799 7.5668 301.148 5.4969 303.0936 3.9979 303.6174 3.2127 303.9916 2.4276 304.665 1.7138 305.114 1.2855 305.4134 1.1428 305.7127 1 306.012 1.0714 305.7875 1.4997 305.0392 2.8559 304.9644 3.2127 304.9644 3.4269 305.114 3.5696 305.3385 3.4983 305.563 3.4269 306.2365 2.7131 306.461 2.6417 306.6107 2.7845 306.8351 3.2127 307.2093 3.7838 307.4338 3.9979 308.0324 4.2834 308.3318 4.3548 309.3046 4.3548 310.5767 4.5689 311.9237 4.4976 312.5223 4.5689 314.3931 4.9972 315.8149 5.7824 316.7877 5.7824 317.087 5.8538 317.3863 5.9251 317.6108 6.1393 317.7605 6.4248 318.0598 7.4241 318.434 7.9237 319.4816 8.6375 320.5293 9.494 320.7538 9.6368 321.0531 9.6368 321.2776 9.5654 321.6517 9.5654 321.8014 9.6368 321.9511 9.8509 321.9511 10.0651 322.0259 10.4933 322.1007 10.7788 322.6245 10.7075 323.0735 10.2078 323.8967 10.2078 324.3456 10.1364 324.645 10.4933 324.5701 10.9216 323.8218 11.3499 323.4477 11.7067 323.5973 11.8495 323.8218 11.7067 324.196 11.6354 324.7946 11.7067 325.1688 11.4212 325.5429 11.3499 325.6926 11.7781 325.4681 12.0636 325.1688 12.135 324.9443 12.5633 324.645 13.3484 324.3456 13.7767 324.3456 14.205 324.0463 14.6332 323.8967 14.9901 324.3456 15.7753 325.2436 16.9173 326.3661 18.2734 327.2641 19.2727 328.0872 19.9151 328.9852 20.4861 329.7335 20.7716 330.407 20.9144 331.305 21.1285 332.0533 21.2713 332.7267 21.414 332.7267 21.2713 333.0261 21.1285 333.3254 21.3426 333.3254 21.5568 333.9989 21.6281 334.5975 21.6995 335.0465 21.5568 335.4207 21.7709 335.7948 22.6988 336.5431 23.6981 337.4411 24.7687 338.4887 25.9821 339.0126 26.339 340.0602 26.8386 340.6589 27.0527 341.3323 27.0527 341.8562 27.3382 342.2303 27.3382 342.5296 27.3382 342.7541 27.1955 342.829 26.6958 342.9786 26.339 343.5024 25.5538 344.1011 24.7687 344.4752 24.1977 344.6997 23.9836 344.9242 23.8408 345.2984 23.8408 345.448 23.9122 345.6725 24.1263 345.7474 24.4118 345.7474 24.7687 345.6725 25.0542 344.6997 27.1955 343.9514 28.623 343.7269 29.3367 343.8018 30.1219 343.8766 30.6215 343.9514 30.907 344.1759 31.1211 344.6997 31.5494 346.0467 32.4772 346.6453 32.7627 349.1896 33.762 350.9107 34.7612 352.3325 35.6177 355.1013 37.6876 356.0741 38.6868 357.7204 39.9715 359.0673 40.8994 359.8905 41.4704 362.2102 43.6116 363.1082 44.4681 363.7817 45.1818 365.5028 47.2516 368.0471 49.5356 369.3192 50.5348 371.3396 51.7481 372.0131 51.8909 372.9859 51.8195 373.2853 51.8195 373.5846 51.6054 373.5846 50.963 373.9587 50.8916 374.2581 51.4626 374.3329 52.1763 374.7071 52.3191 374.5574 52.8901 374.6322 53.5324 375.0812 54.1034 375.6799 54.5316 376.2785 55.0312 377.1017 55.4595 377.5506 55.6736 380.0949 56.53 381.5167 57.1724 383.5371 58.243 384.9589 59.1708 385.7821 59.6704 387.8025 60.8123 388.4012 61.0264 390.6461 61.7401 392.891 61.8829 394.238 61.7401 394.9115 61.7401 395.585 61.8829 396.1088 62.097 396.4081 62.2397 396.9319 62.7393 397.6054 63.453 397.9796 64.3095 399.2517 66.5934 400 67.5925 400.5238 68.0921 401.5715 68.8772 402.6939 69.4482 404.7892 70.5187 405.9865 70.9469 406.5103 71.0183 406.66 71.0897 407.7076 71.0183 409.2791 70.8042 409.9526 70.7328 410.4015 70.8042 410.5512 70.6615 410.5512 70.376 410.7009 70.376 410.8505 70.376 411.075 70.6615 411.2247 71.0183 411.4492 71.161 411.6737 71.3752 411.8982 71.8034 412.1227 72.6598 412.422 72.8739 413.4696 72.6598 413.8438 72.7312 414.2179 73.1594 414.4424 73.3735 414.5173 73.659 414.4424 73.8731 413.7689 74.5868 413.6193 74.8723 413.6193 75.1577 413.6941 75.3005 413.9186 75.3718 414.5173 75.4432 414.8166 75.586 415.0411 75.8001 415.1907 76.0855 415.2656 76.371 415.2656 76.7279 415.1159 77.0133 414.9662 77.2988 414.7417 77.4415 414.4424 77.4415 413.8438 77.3702 413.8438 77.4415 413.9186 77.5843 414.4424 77.8698 414.5921 78.0839 414.6669 78.2266 414.5921 78.4407 414.2928 78.5835 413.9934 78.7262 413.8438 78.9403 413.9934 79.654 414.2179 80.8672 414.1431 81.01 414.2928 81.3668 415.939 84.1502 416.0887 84.4357 416.2384 85.3634 416.6125 87.0049 417.735 89.36 418.184 90.5733 418.633 91.2156 419.3065 91.8579 420.0548 92.5002 420.8031 93.1425 421.0276 93.428 421.3269 93.9989 421.6262 96.8536 421.9255 97.7813 423.2725 100.065 424.4698 101.9206 425.0685 102.0633 425.4426 102.6342 424.9936 103.2051 424.9188 103.9188 424.9188 104.8465 424.6943 106.0598 424.6943 107.7725 424.6195 108.7716 424.6943 109.4139 424.844 109.6994 424.9188 109.8421 425.1433 110.2703 425.8916 111.7689 426.1161 111.983 426.5651 112.4112 426.8644 112.5539 427.1637 112.6253 427.8372 112.6967 428.361 112.9821 428.5855 113.1962 428.7352 114.0526 429.0345 114.9803 429.1842 115.6226 429.259 115.9081 429.4835 116.1222 430.3066 116.5503 430.8305 116.9785 430.9801 117.1926 431.5039 118.049 431.9529 119.2622 432.3271 119.8331 433.674 121.974 434.572 123.6867 435.3952 124.7571 436.2931 125.6848 436.817 125.9703 438.0143 126.5412 438.6129 126.7553 438.9122 126.8266 439.885 126.7553 440.1844 126.8266 441.4565 127.1834 441.7558 127.3262 442.8035 127.9684 443.3273 128.2539 444.3001 128.6107 444.8987 128.7534 445.198 128.6821 446.0212 128.3252 446.2457 128.1112 446.3205 127.9684 445.7219 127.4689 445.4974 127.1834 445.4974 126.9694 445.5722 126.7553 445.7967 126.4698 446.0212 126.3271 446.3205 126.3271 446.545 126.3985 447.2185 127.1121 447.9668 127.7543 448.6403 128.3966 449.6879 130.1093 450.7356 131.3225 451.2594 132.1074 452.6812 133.8201 453.7288 135.4614 456.0486 138.8868 457.3207 140.3853 458.518 141.4557 459.1167 142.2407 459.1915 142.5262 459.2663 142.883 459.1915 143.097 458.4432 143.5966 458.2935 143.882 457.5452 145.666 457.4704 145.9514 457.5452 147.2359 457.62 147.8782 457.6949 148.235 457.9942 148.8058 458.4432 149.3054 458.6677 149.5194 460.6133 150.6612 461.8854 151.1607 463.0827 151.3748 463.9059 151.018 464.4297 150.0903 464.9535 149.7335 465.2528 150.4471 464.5045 152.017 465.4025 152.5879 467.1236 153.5155 468.1712 154.0151 468.8447 154.0151 469.2937 154.0151 469.5182 154.3719 469.593 154.8 469.9672 155.585 470.491 156.0131 471.7631 157.4403 472.8856 158.582 474.4571 160.2946 476.1782 161.4363 476.702 161.7931 477.6 162.364 478.0489 162.6494 479.6204 163.5057 480.8177 164.0766 481.8653 164.4334 484.0354 165.1469 486.2804 165.5751 486.6545 165.6464 487.1784 165.6464 488.1512 165.6464 489.4233 165.5037 491.6682 165.0042 492.1172 164.7902 493.09 164.2906 493.2397 164.0766 493.0152 160.6514 493.09 159.367 493.1649 157.7257 493.2397 156.1558 493.3145 155.799 493.4642 155.5136 493.988 155.0854 494.5866 154.3719 495.5595 153.5869 496.2329 152.8733 496.3078 152.7306 496.3826 152.5879 496.6071 151.9456 496.7568 151.6602 496.9812 151.4461 497.7296 150.8039 499.1514 149.5194 500.7228 148.3777 501.6956 147.5214 504.3147 145.666 505.6617 144.881 506.2603 144.5242 506.5596 144.4529 507.5324 144.3102 508.5053 144.2388 538.5874 120.6181 538.3629 119.1194 539.7099 118.049 541.0568 118.9053 549.9617 130.1807 550.5604 131.1797 559.9891 131.2511 564.928 131.3225 566.4994 131.3938 576.3023 136.96 592.0917 145.8801 595.5339 147.8782 595.9829 148.0209 596.6564 148.235 609.6022 150.0903 613.6431 150.6612 613.7179 150.4471 614.9901 150.5898 615.5139 150.7325 615.888 150.9466 616.1874 151.4461 616.2622 151.8743 616.1874 152.2311 615.9629 152.7306 615.6635 152.9447 615.1397 153.1588 614.6159 153.2301 613.3438 153.0874 612.82 153.016 612.371 155.0854 612.1465 155.1568 611.922 155.9417 609.677 155.7277 610.0512 152.5879 594.9353 150.3044 566.6491 134.391 550.2611 134.391 550.4107 135.5328 545.1725 141.3844 540.8323 146.3796 552.5808 156.7267 553.4788 155.799 559.0911 160.6514 559.9143 159.7237 561.1116 160.7941 562.3837 161.8645 561.5606 162.8635 567.1729 167.7158 566.2749 168.7862 578.3976 179.2755 577.7241 180.0604 577.4996 179.8464 577.8738 179.4182 573.5336 175.7077 569.792 180.1318 570.8396 181.0594 581.4657 184.4131 594.8605 168.1439 595.0101 168.0726 595.085 168.0726 595.1598 168.0012 595.2346 168.0012 595.3843 168.0012 595.4591 168.0012 595.5339 168.0726 596.9557 169.2143 597.4047 169.0716 597.9285 169.5711 597.8537 169.9279 598.9762 170.9982 592.0917 179.4182 591.1937 178.776 588.7991 181.5589 589.1733 181.9157 588.7991 182.2725 588.425 181.987 586.4794 184.4845 586.7787 184.7699 586.4045 185.198 586.1052 184.9126 582.8126 188.8371 579.5201 192.9043 581.0167 194.3314 582.5133 193.4751 589.5474 189.5506 590.0713 189.5506 590.5951 189.6933 591.4182 189.9788 594.4115 191.5486 594.5611 191.9767 594.4115 192.2621 593.8877 192.3334 593.3638 192.2621 593.4387 191.834 590.8944 191.2631 590.7447 192.1907 589.6223 192.1194 589.6223 192.4048 590.6699 192.5475 590.5951 192.7616 588.5746 193.4038 588.0508 196.472 603.0919 199.5401 604.5137 198.6126 605.0375 197.899 605.1123 197.685 605.4865 192.8329 596.5816 188.7657 596.2823 189.2652 594.1122 188.1949 593.6632 187.9095 593.5883 187.5527 593.5883 187.2673 593.6632 186.9819 593.8877 186.7678 593.9625 186.6251 594.187 186.4824 594.4863 186.411 594.7856 186.411 595.1598 186.4824 595.6088 186.7678 596.0578 187.0532 600.5476 188.9085 606.3845 191.6199 611.1737 193.5465 611.7723 193.6892 614.6907 193.4751 622.2487 192.4762 623.1467 192.2621 624.0446 191.9053 626.0651 190.7637 627.4869 190.0501 629.5821 188.9085 630.6298 188.1949 625.6161 179.0615 626.2896 178.7047 631.4529 187.9808 633.623 186.9819 634.8952 186.1256 636.1673 185.4834 637.5143 184.5558 638.936 183.7709 638.7864 183.1287 635.7183 176.9208 637.3646 176.0645 635.6435 173.2816 636.3918 172.8535 638.1129 175.7791 642.6028 173.4957 649.6369 169.9279 651.0587 172.354 652.1063 172.6394 653.5281 172.7108 654.8003 172.9248 657.3445 173.2103 659.365 173.4243 660.1133 167.9299 660.4126 167.4304 660.6371 167.1449 660.8616 166.7882 661.3106 166.36 661.7596 166.0746 662.3582 165.7178 662.9569 165.5751 663.5555 165.4324 663.9297 165.4324 664.1542 165.4324 664.3787 165.6464 664.5283 165.8605 664.4535 166.1459 664.1542 166.2173 663.6303 166.2173 663.1065 166.2173 662.5827 166.4314 661.9841 166.6454 661.4602 167.0736 661.1609 167.5017 660.8616 168.0012 660.7119 168.358 660.1133 173.5671 664.678 174.2093 667.5216 171.2836 667.7461 166.7882 667.2222 164.7188 667.6712 164.7188 668.1202 166.6454 668.644 166.5741 667.1474 160.7228 635.3441 156.0845 634.97 156.0131 634.6707 155.799 634.4462 155.585 634.2965 155.2282 634.2217 154.8714 634.2217 154.5146 634.3713 154.2291 634.5958 153.9437 634.8952 153.7296 635.1945 153.5869 635.5686 153.5869 636.9156 153.7296 637.0653 153.801 637.0653 154.0864 642.9021 154.8714 656.1472 156.7981 657.2697 157.0121 668.9434 158.6534 671.338 159.0102 671.8618 158.4393 672.0863 157.6544 672.6101 157.0121 673.1339 156.2272 674.0319 155.2282 674.406 154.8 675.0795 154.0151 676.202 152.9447 677.6986 151.3748 680.3925 148.0922 681.515 146.451 682.0388 145.5946 682.1137 144.9524 682.1885 144.3815 682.1137 143.7393 682.0388 143.3825 681.964 142.3834 682.0388 141.7412 682.2633 140.8135 682.413 140.1713 682.3381 139.4576 682.2633 138.744 681.964 137.8877 681.6647 137.3168 681.2157 136.4605 681.066 135.1046 681.1408 133.8201 681.2905 133.1779 681.2905 132.8211 680.9912 131.5365 680.9164 131.2511 679.7939 129.6098 679.7191 129.3243 679.6442 128.6107 679.7939 128.0398 680.0932 127.3975 680.4674 126.898 680.7667 126.3271 681.2905 125.1139 682.6375 123.6867 682.862 123.4726 683.7599 122.973 684.2089 122.4735 684.2838 122.1881 684.2838 121.9026 684.3586 121.6171 684.5083 121.3317 685.1069 120.6181 685.6307 120.1185 686.1545 119.6903 687.0525 119.3335 687.9505 119.0481 688.2498 118.9053 688.4743 118.6912 688.5491 118.4772 688.4743 118.3344 688.3246 118.049 688.2498 117.6922 688.3246 117.4781 688.5491 117.1926 688.8485 116.9785 688.9981 116.8358 689.2226 116.6217 689.4471 116.3362 689.5968 116.1222 689.5219 115.4799 689.5968 115.1231 689.8961 114.6949 690.4199 114.2667 690.7941 113.7671 691.0186 113.553 692.2159 112.9821 692.5152 112.8394 693.5628 111.6262 694.0118 111.198 695.2091 110.7698 695.5084 110.5557 696.0323 110.1989 696.3316 110.1276 696.6309 110.0562 696.9302 109.9135 697.1547 109.6994 697.4541 109.5566 697.6785 109.4853 697.8282 109.4139 698.0527 109.3425 698.352 109.1998 698.5765 108.9857 699.1752 108.2007 699.4745 108.1293 700.0731 108.058 700.4473 107.9152 702.3181 106.5593 703.0664 105.9884 703.3657 105.8457 704.4882 105.2034 705.1617 105.0606 706.359 104.7752 708.0053 104.5611 708.3794 104.4897 708.6787 104.5611 709.876 104.9179 711.223 104.8465 711.8216 104.7038 714.4407 103.7047 715.4135 103.2765 716.6857 103.0624 717.6585 102.7056 719.6041 101.5637 720.2776 101.2783 721.1755 100.9928 722.0735 100.7787 723.3456 100.2791 724.6178 99.9937 726.2641 99.2086 728.4342 98.1382 729.856 97.4245 731.8764 96.354 732.6995 95.0694 733.373 93.7134 734.271 92.3575 739.8085 82.7228 739.6589 81.9378 739.584 80.9386 739.6589 80.2249 739.584 79.8681 739.5092 78.8689 739.6589 78.2266 739.7337 77.9411 740.1078 77.3702 740.5568 77.0133 741.5296 76.0855 742.0535 75.6573 742.5773 75.3718 742.7269 75.0864 743.1011 75.4432 743.5501 75.586 743.5501 76.0142 743.1759 76.8706 743.2508 77.1561 743.4752 77.3702 743.6997 77.5129 743.9242 77.5129 744.0739 77.3702 744.1487 76.7992 744.2236 76.1569 744.5229 75.8001 744.5977 76.4424 744.897 76.4424 745.1215 76.2996 745.1964 76.942 745.1964 77.3702 745.0467 77.8698 745.4209 77.727 746.1692 76.7992 746.3937 77.0133 746.6182 77.2988 746.693 77.5843 746.6182 77.8698 746.693 78.1552 747.2168 79.083 747.2168 79.654 747.0671 80.0822 747.591 80.8672 748.2644 82.0091 749.1624 84.0075 750.0604 86.2199 750.8087 87.6472 751.8563 89.7882 752.3053 90.9301 752.455 91.4297 752.6047 91.5011 752.9788 91.3583 753.2033 91.4297 753.2781 91.6438 753.6523 91.7865 753.9516 91.7865 754.1013 92.0006 754.1761 92.2861 754.1013 92.857 754.0264 93.428 753.9516 93.7134 754.1013 94.0703 754.3258 94.4271 754.2509 94.6412 754.3258 94.9267 754.6251 95.7117 754.8496 96.354 754.9992 96.7822 755.3734 96.8536 755.5979 96.4967 755.8224 96.354 756.0469 96.4254 756.2714 96.6395 756.421 96.7108 756.5707 96.6395 756.5707 97.0677 756.3462 97.3531 756.1965 97.9954 756.3462 99.1373 756.9449 100.2791 757.1694 100.4932 757.3938 100.4932 757.9925 100.4932 758.666 100.636 759.6388 100.636 759.9381 100.8501 760.1626 100.7073 760.3123 100.7787 760.3123 100.9214 760.4619 100.7787 760.4619 100.636 760.6116 100.5646 760.7613 100.636 760.8361 101.0642 761.8089 100.8501 762.4075 100.8501 762.9314 100.8501 763.0062 101.1355 763.1559 101.421 763.6048 101.3496 764.1287 101.2069 764.3532 101.2783 764.2035 101.6351 763.8293 101.9919 763.3055 102.2774 763.53 102.4201 763.6797 102.4915 764.0538 102.4201 765.0266 102.206 765.9994 102.0633 766.2988 102.1347 766.7477 101.9206 767.1967 102.4201 767.7206 102.206 767.945 101.9919 768.0199 102.206 767.5709 102.7769 767.8702 102.9197 768.0947 103.1338 768.394 103.0624 768.6185 102.9197 768.7682 103.2765 769.2172 103.4906 769.0675 103.8474 768.6934 104.1329 768.0199 104.2043 767.7954 103.9188 767.0471 104.4184 766.9722 104.7752 767.1219 104.9179 767.1219 105.3461 766.9722 105.7029 766.2988 105.917 765.7749 106.3452 764.6525 106.9161 764.5776 107.0589 765.0266 107.1302 765.6253 106.9875 766.2988 106.9875 766.5233 107.1302 766.6729 107.4157 766.2988 107.8439 765.9994 108.1293 765.9246 108.6289 765.8498 108.7716 765.4756 109.0571 764.8021 109.1998 764.5776 109.4139 764.5028 109.6994 764.5028 109.9135 764.6525 109.9848 764.8021 109.9848 765.1015 109.9135 765.9994 109.4853 766.2988 109.4139 766.5233 109.4853 766.5981 109.6994 766.6729 109.9848 766.5981 110.1989 766.3736 110.413 765.9246 110.8412 765.9246 110.9839 766.2988 111.2694 766.3736 111.4121 766.3736 111.6262 766.0743 112.1258 765.9246 112.4826 765.9994 112.6253 766.2239 112.768 766.4484 112.8394 767.1219 112.768 767.2716 112.768 767.4212 112.6253 767.7954 112.4826 767.8702 112.8394 768.0199 112.9821 768.3192 112.768 768.6185 112.6253 768.7682 112.6967 768.843 112.3399 768.9927 112.1971 769.1423 112.1971 769.2172 112.4826 769.0675 112.768 768.9179 112.9821 769.1423 113.1249 768.9927 113.339 768.6934 113.4817 768.5437 113.6244 768.7682 113.6958 768.6934 114.0526 768.3192 114.0526 768.1695 113.8385 767.945 113.9812 767.8702 114.2667 768.1695 114.6235 768.2444 114.909 768.2444 116.1935 768.2444 116.479 768.1695 116.5503 768.1695 116.8358 767.8702 117.4781 767.7954 117.7635 767.8702 117.8349 768.0947 117.9063 769.0675 117.8349 769.0675 117.9776 768.9179 118.4772 768.9927 118.4772 770.9383 118.3344 771.1628 118.4772 771.3125 118.6199 771.3125 118.9053 771.2376 119.5476 771.3125 119.619 771.5369 119.6903 771.9859 119.4049 772.1356 119.4049 772.5098 119.8331 772.7342 120.0472 773.0336 120.1185 773.3329 120.1185 773.9315 119.9758 774.156 120.0472 774.3057 120.1899 774.3057 120.404 774.3057 120.6894 774.605 121.189 774.9044 121.3317 775.1288 121.4744 776.1017 121.8312 776.401 121.9026 776.7003 121.974 778.3466 121.8312 779.0201 121.6885 779.6187 121.4744 779.918 121.4744 780.0677 121.5458 780.1425 122.4021 780.4419 122.8303 780.5167 123.1158 780.5915 124.1149 780.7412 124.3289 780.8908 124.4003 781.1153 124.4003 781.5643 124.1149 782.163 124.0435 782.4623 123.9721 783.2854 123.1158 783.8841 122.759 784.4827 122.5449 785.1562 122.5449 785.4556 122.5449 786.9522 122.9017 787.5508 123.1158 787.8502 123.0444 788.8978 122.3308 790.0951 121.2603 790.9182 120.7608 791.442 120.3326 792.1155 119.619 792.9387 119.1194 793.9115 118.9053 794.2108 118.9053 794.585 118.9053 794.8843 119.0481 795.1088 119.1908 795.5578 119.6903 795.8571 119.7617 796.8299 119.8331 797.0544 119.9758 797.1292 120.1185 797.1292 120.404 796.8299 121.3317 796.6802 121.974 796.5306 122.5449 796.0816 123.4012 796.0816 123.5439 796.2312 123.6867 796.3809 123.6867 797.2041 123.1871 797.5034 123.1158 797.5782 124.0435 797.5782 124.4717 797.8775 124.8998 797.9524 125.2567 797.9524 125.5421 797.8775 125.8276 797.1292 126.3985 796.7551 126.898 796.4557 127.1121 796.2312 127.1834 795.9319 127.3975 795.9319 127.5403 796.2312 128.3966 796.3061 128.6821 796.4557 128.9675 796.6054 128.9675 796.8299 129.1102 796.8299 129.3243 796.8299 129.6098 796.6802 129.8952 796.1564 130.252 795.9319 130.5375 795.7823 130.8229 795.5578 131.037 795.0339 131.3938 794.8843 131.6793 794.8095 131.8933 794.8843 132.0361 795.1836 132.2502 796.3061 132.8211 796.6054 133.0351 797.5034 133.9628 797.5782 134.2483 797.5782 134.5337 797.4285 134.8192 795.7074 137.5309 795.6326 137.8163 795.7074 137.9591 795.9319 138.0304 796.2312 138.0304 796.8299 137.9591 797.1292 137.9591 799 138.4586 799 138.53 799 138.8868 798.7755 139.4576 798.4014 140.0285 797.8027 140.8135 796.9796 141.4557 796.6802 141.5985 795.7823 141.9553 795.5578 142.1694 795.4081 142.3834 795.4081 142.5975 795.4829 142.8116 795.7074 143.097 795.7823 143.3825 795.7823 143.7393 795.6326 143.9534 795.0339 144.667 794.2856 145.3806 794.2108 145.5946 794.2108 146.2369 794.2108 146.5937 794.0611 146.8791 793.687 147.45 793.0135 148.0922 791.891 148.9486 791.5917 149.0913 791.2924 149.234 790.6189 149.234 790.3196 149.3054 790.0951 149.5194 789.7958 149.6622 788.8978 149.9476 788.5985 150.0903 788.5236 150.233 788.823 150.5898 788.823 150.8753 788.6733 151.0893 788.4488 151.2321 787.925 151.5175 787.7005 151.7316 787.6257 151.8743 787.7753 152.0884 789.5713 153.2301 789.7209 153.4442 789.7209 153.5869 789.5713 153.8723 788.823 154.5859 788.5985 154.8 787.4012 155.1568 787.1018 155.2282 787.027 155.3709 787.1018 155.4422 787.4012 155.5136 788.0746 155.6563 789.4216 155.5136 789.7958 155.5136 790.0951 155.585 790.2447 155.799 790.3944 156.0845 790.4692 157.0121 790.3196 157.6544 790.1699 158.0111 789.3468 159.0102 788.8978 159.7951 788.5236 160.5087 788.1495 161.0795 787.4012 161.7931 786.3535 163.1489 785.8297 163.5771 785.5304 163.7198 785.2311 163.8625 785.1562 163.8625 784.3331 164.0766 784.0338 164.2193 783.1358 165.0756 782.5371 165.5037 782.2378 165.6464 781.9385 165.6464 781.6392 165.5751 781.0405 165.361 780.4419 165.0756 779.918 164.6474 779.6935 164.362 779.6187 164.0766 779.5439 163.7911 779.1697 162.4353 778.8704 161.7218 778.6459 161.5077 778.1221 161.2936 777.8976 161.0795 777.6731 160.7941 777.1493 159.9378 776.4758 159.1529 776.2513 158.9388 776.0268 158.7247 775.7275 158.582 775.3533 158.582 774.6799 158.582 774.0812 158.7961 773.1832 159.367 772.9587 159.5097 772.7342 159.7237 772.5846 159.9378 772.4349 160.2946 772.1356 162.2926 771.9859 162.8635 771.4621 164.0766 771.1628 164.6474 770.9383 164.8615 770.639 165.0042 770.3396 165.0042 770.0403 164.8615 769.8907 164.6474 769.4417 164.1479 769.2172 163.9339 769.0675 163.9339 768.6185 164.2906 768.4689 164.2906 768.1695 164.1479 767.6457 163.7198 767.4212 163.5771 767.1967 163.5771 767.1219 163.7198 767.0471 163.9339 767.1219 164.2906 767.4212 164.8615 767.8702 165.7178 767.8702 166.0032 767.7954 166.36 767.7206 166.6454 767.4961 166.9309 766.9722 167.0736 766.7477 167.2877 766.3736 168.1439 766.2239 168.358 765.7001 168.5721 765.6253 168.7148 765.7001 169.2143 765.7001 169.5711 765.5505 169.7852 765.4008 169.9279 764.0538 170.2847 763.7545 170.2847 763.4552 170.2133 762.4824 169.9992 762.183 169.9279 761.8837 170.0706 761.8089 170.2133 761.8837 170.356 762.5572 171.1409 762.632 171.2836 762.7069 171.4977 762.7069 171.6404 762.4824 171.8545 762.2579 171.9972 760.7613 172.5681 760.0878 173.2816 760.0878 173.4957 760.0878 173.7811 760.2374 173.8525 760.9857 174.7801 761.0606 175.0655 761.0606 175.4223 760.9857 176.0645 760.8361 176.3499 760.6864 176.4213 760.5368 176.3499 760.0878 175.351 759.7884 175.1369 759.6388 175.1369 759.564 175.2796 759.7136 176.1359 759.6388 176.4213 759.564 176.7781 759.115 177.4203 759.115 177.4916 759.0401 177.563 758.8156 177.7057 758.5911 177.7057 757.9925 177.4916 757.9177 177.4916 757.8428 177.4916 757.768 177.563 757.1694 178.6333 756.4959 179.4182 756.2714 179.561 755.5979 179.775 753.8768 180.6313 753.7271 180.774 753.7271 180.9881 754.2509 181.6303 754.3258 181.987 754.3258 182.2725 754.1761 182.4865 754.0264 182.5579 753.802 182.5579 753.4278 182.2011 753.2781 182.2011 753.2033 182.2725 753.4278 182.8433 753.353 183.0574 753.2033 183.1287 752.904 183.1287 751.7067 182.7719 751.6318 182.9147 751.7067 183.0574 751.9312 183.2714 752.6795 183.985 753.2033 184.7699 753.2781 185.1267 753.2033 185.2694 753.0536 185.4121 752.5298 185.4121 752.3053 185.5548 752.0808 186.0543 751.7067 186.5538 751.4074 186.6965 751.108 186.6965 750.5094 186.6965 750.2101 186.7678 749.9856 186.9819 749.6862 187.0532 749.3869 187.0532 749.1624 187.1246 749.2372 187.5527 749.1624 187.8381 749.0128 188.0522 748.7883 188.1949 748.4141 188.2663 748.1148 188.3376 747.8155 188.2663 747.2168 187.9808 746.9175 187.9095 746.6182 187.9095 746.3188 187.9808 746.0195 188.1236 745.795 188.3376 745.5705 188.5517 745.4957 188.8371 745.5705 189.4793 745.4957 189.7647 745.346 189.9074 745.1964 189.9074 744.9719 189.8361 744.6725 189.9074 744.2236 190.5496 743.9991 190.7637 743.7746 190.835 743.4752 190.7637 743.1759 190.6923 742.6521 190.3355 742.3528 190.1928 742.0535 190.1928 741.829 190.3355 741.0806 190.9064 740.7813 191.0491 740.4072 191.0491 739.8085 190.7637 739.3595 190.4069 739.0602 190.1215 738.4616 189.8361 738.1622 189.6933 737.8629 189.622 736.5908 189.7647 736.2166 189.7647 735.618 189.5506 734.72 189.1939 734.4207 189.1225 733.9717 189.1939 733.7472 189.1939 733.0737 189.4793 732.3254 189.9074 731.3526 190.4782 730.5294 190.9064 729.407 191.5486 728.8832 191.9767 728.4342 192.4048 728.2097 192.6902 728.2097 193.261 728.2097 193.5465 727.9852 193.7605 727.6859 194.0459 727.611 194.1173 727.0124 194.6168 726.5634 195.0449 726.4137 195.3303 726.4137 195.473 726.5634 195.7584 726.6382 196.0438 726.5634 196.4006 726.3389 196.6147 726.1144 196.9001 725.8899 196.9714 725.6654 197.1855 725.6654 197.9704 725.5158 198.2558 725.3661 198.4698 725.1416 198.4698 724.6178 198.3985 724.3933 198.4698 724.1688 198.6839 724.0191 199.4688 723.9443 199.6828 723.7198 199.6828 723.4953 199.6828 723.196 199.6828 722.8967 200.0396 722.6722 200.2537 722.3728 200.325 722.1483 200.2537 721.849 200.111 721.5497 200.0396 721.1007 200.2537 720.8014 200.3964 720.5021 200.325 719.9782 200.0396 719.6789 199.8969 719.4544 199.8969 718.1075 200.7531 717.8081 200.8245 717.5088 200.9672 717.2095 200.9672 716.536 201.0386 716.1619 200.8958 715.9374 200.7531 715.4135 199.9683 715.189 199.8256 714.9646 199.8256 714.7401 199.9683 714.2911 200.3964 712.9441 201.8948 712.6448 202.0375 712.4203 202.2515 711.1482 202.6083 710.4747 202.751 710.1754 202.6797 709.5767 202.3943 708.9781 202.1088 707.8556 201.324 706.9576 200.7531 705.461 200.111 704.9372 199.8256 703.2909 198.5412 701.8691 197.685 701.0459 197.0428 698.801 195.1162 698.2024 194.7595 697.903 194.6881 697.2296 194.7595 696.5561 194.9735 695.6581 195.473 694.7601 195.8298 694.1615 196.1152 693.4132 196.9714 693.2635 197.4709 692.9642 197.899 692.6649 198.2558 692.2907 198.3271 691.5424 198.5412 690.8689 198.5412 689.7464 199.0407 689.1478 199.6115 688.624 199.8969 688.6988 200.1823 689.1478 200.8958 689.4471 201.6094 689.3723 202.1088 689.073 202.3229 688.8485 202.751 688.4743 203.1791 688.0253 203.1791 687.726 202.8224 687.5015 202.0375 687.3518 201.7521 687.0525 201.6807 686.6035 201.9661 686.0797 202.2515 685.7056 202.751 685.3314 203.3932 685.2566 203.6072 684.8076 204.8202 685.1069 205.1056 685.4811 205.6765 685.3314 206.1046 685.4811 206.6754 685.8552 206.8181 686.1545 206.8894 686.1545 207.2462 685.93 207.3889 685.7056 207.603 685.2566 207.5316 684.9572 207.6743 684.5083 207.817 684.8076 207.9597 684.8076 208.3165 684.6579 208.3165 684.4334 208.2451 684.1341 208.1024 683.6103 208.1024 683.7599 208.3165 683.6851 208.8159 683.5354 209.3154 683.1613 209.4581 682.6375 209.4581 682.1137 209.3154 681.8892 209.3868 681.964 209.7435 681.964 209.9576 681.6647 209.9576 681.066 210.243 680.4674 210.8138 680.5422 211.3133 680.3925 211.5987 679.7939 211.7414 679.4197 212.2408 679.0456 212.6689 679.0456 212.883 678.8211 212.9543 678.5966 213.1684 678.8959 213.3111 679.1952 213.097 679.5694 213.3111 679.5694 213.5965 679.2701 213.8105 679.0456 213.7392 679.1204 213.5251 678.8959 213.5251 678.5966 213.4538 678.3721 213.8105 678.2973 214.31 677.9979 214.7381 677.8483 215.0949 677.9979 215.3089 678.0728 215.523 678.2224 215.737 678.1476 216.0224 678.1476 216.2365 678.2973 216.5219 678.3721 216.8073 678.8211 216.8786 679.2701 216.95 679.3449 217.4494 679.0456 217.6635 678.7462 217.6635 678.7462 217.8775 678.9707 218.0202 678.6714 218.1629 678.3721 218.2343 678.1476 218.1629 677.8483 218.377 678.0728 218.4483 678.1476 218.6624 677.9231 218.8764 677.6238 218.7337 677.4741 218.7337 677.1748 219.0905 677.3993 219.2332 677.4741 219.4472 677.2496 219.6613 676.9503 219.804 676.5761 219.8754 676.7258 220.0181 676.9503 220.0894 677.0251 220.2321 676.8006 220.3748 676.5761 220.3035 676.2768 220.0181 676.202 220.0894 676.202 220.3748 676.1272 220.6602 675.9027 220.6602 675.753 220.3748 675.6782 220.0894 675.6033 219.804 675.304 219.7327 675.0047 219.804 675.0795 220.0181 675.2292 220.2321 675.0795 220.4462 674.855 220.5175 674.6305 220.4462 674.6305 220.1608 674.2564 220.0894 673.8822 220.3748 673.3584 220.3748 673.0591 220.5175 672.7598 220.5889 672.6849 220.3035 672.3856 220.3748 672.1611 220.5889 672.5353 220.8029 672.6849 221.0883 672.6101 221.4451 672.3108 221.7305 672.0114 221.8018 671.7121 221.8018 671.4128 221.7305 671.1135 221.5164 671.0386 221.231 671.1135 220.8743 671.2631 220.5889 671.1135 220.3748 670.7393 220.3035 670.5148 220.4462 670.2903 220.6602 669.991 220.6602 669.542 220.4462 668.644 220.0894 668.3447 220.0181 667.9706 220.0181 667.7461 220.1608 667.5216 220.3748 666.7733 221.017 666.4739 221.7305 666.1746 221.9445 665.2766 222.444 664.678 222.658 664.0045 222.7294 662.3582 222.7294 661.9841 222.8007 662.0589 223.0148 661.9092 223.3002 661.6099 223.0148 661.3106 223.0861 661.0861 223.4429 660.8616 223.3002 660.6371 223.4429 660.6371 223.7283 660.4126 223.871 660.4874 223.5142 660.4126 223.3002 660.1133 223.2288 660.1881 223.5856 659.9636 223.7283 659.814 223.5142 659.6643 223.4429 659.4398 223.871 659.4398 224.1564 659.2901 224.2277 658.9908 224.2277 659.0656 223.9423 658.6167 224.085 658.0928 224.5844 657.6438 225.0125 657.2697 225.2266 656.8207 225.0125 656.2969 225.2979 655.9976 225.512 655.6982 225.6547 655.0996 225.7974 655.0996 226.2255 655.3989 226.2968 655.4737 226.5822 655.3989 226.7249 655.0248 226.939 654.7254 227.153 654.8003 226.8676 654.5009 226.7963 654.4261 226.5109 654.3513 226.3682 654.2016 226.5109 654.2016 226.8676 653.9771 227.153 653.6778 227.153 653.5281 226.8676 653.603 226.4395 653.0043 226.8676 652.8547 227.2244 652.705 227.6525 652.3308 227.7952 651.9567 227.8665 651.6574 227.7238 651.5077 227.4384 651.2084 227.2244 650.909 227.5098 650.5349 227.5811 650.0859 227.4384 649.7117 227.5098 649.8614 227.7952 650.4601 228.1519 649.8614 228.7227 649.3376 228.5087 648.7389 228.8654 647.9906 228.8654 647.2423 228.7227 647.0926 229.1508 647.7661 229.7929 647.4668 230.1497 646.4192 230.0783 646.494 229.5076 646.5688 229.2222 646.1947 229.2935 645.8953 229.8643 645.5212 229.8643 645.3715 229.5076 644.9225 229.1508 644.3987 229.4362 644.4736 229.9356 644.4736 230.1497 644.7729 230.6491 644.3987 230.7205 643.6504 230.5064 643.5008 230.1497 642.9769 230.1497 642.0041 230.3637 641.4055 230.4351 640.9565 230.8632 641.1062 231.1486 641.1062 231.2199 641.2558 231.5053 641.0313 231.8621 640.732 231.8621 640.5075 231.9334 639.9089 231.7907 639.5347 231.8621 639.3102 232.0048 638.8612 232.2902 638.4871 232.5756 638.2626 232.6469 637.9632 232.5042 637.6639 232.7182 637.2898 232.4329 637.5143 232.2188 637.5891 231.8621 637.4394 231.7194 636.9904 231.7907 636.6163 231.5053 636.3918 231.2913 636.1673 231.1486 635.868 231.0059 635.1945 231.0772 634.8952 231.1486 634.5958 231.3626 634.521 231.7194 634.521 231.9334 634.072 231.9334 633.6979 231.648 633.0992 231.8621 632.1264 231.648 631.4529 231.5053 630.4801 231.5767 630.3305 232.0048 630.106 232.7896 629.4325 232.6469 628.9087 232.4329 628.3848 232.2902 628.0855 231.8621 628.5345 231.5053 628.31 231.1486 628.3848 230.7918 628.1604 230.1497 627.7114 229.7216 627.1127 230.1497 625.7658 229.9356 625.6909 229.4362 625.1671 229.0081 624.1195 228.8654 622.9222 228.9368 621.2011 228.5087 619.6296 228.5087 618.9561 228.2946 618.4323 227.9379 618.0581 227.153 617.4595 226.4395 616.4119 225.726 615.8132 225.2979 614.9152 224.8698 614.6159 224.7271 614.3166 224.5844 614.0921 224.3704 613.9424 224.085 613.4186 223.7996 613.1193 223.4429 612.371 222.9434 611.7723 222.3726 611.0988 221.8018 610.2009 221.017 609.3029 220.3035 608.1804 219.4472 607.5069 219.3045 606.609 219.1618 606.0851 219.0905 605.262 219.0191 604.7382 218.9478 604.2144 219.1618 603.7654 219.1618 603.2416 218.8051 602.7177 220.0894 601.5953 222.2299 600.3231 224.0137 598.8265 226.1541 597.2551 227.5811 596.8809 227.2957 599.051 224.9412 601.4456 221.1597 602.5681 218.6624 601.1463 217.3781 599.5748 216.5219 597.7789 215.4516 595.085 214.3814 592.6155 214.2387 586.8535 214.7381 584.3093 215.5943 582.1392 216.8073 581.6153 217.164 581.765 217.8062 581.2412 219.0191 580.7922 218.591 581.0167 218.2343 580.418 217.5208 579.8942 216.2365 579.6697 216.0224 579.5201 215.737 579.4452 215.4516 579.4452 215.0949 579.5949 214.5241 579.5949 213.8819 579.4452 213.2397 579.2207 212.5976 579.0711 212.3122 578.8466 212.0981 578.3228 211.0278 574.2071 211.456 574.7309 211.8841 575.0302 212.3835 574.7309 212.9543 574.5064 213.6678 574.7309 220.8029 573.8329 220.8029 573.6084 214.9522 573.3839 214.7381 573.0846 214.5954 571.139 214.5954 569.4927 214.7381 567.8464 215.0949 567.2477 215.3089 566.6491 215.6657 566.1253 216.0224 564.7783 217.0213 562.8327 218.7337 561.7102 219.9467 560.5878 220.8743 561.5606 222.0159 563.7307 224.5131 563.0572 225.0839 560.1388 221.7305 559.6898 221.8018 558.9415 222.3726 558.4177 222.8721 556.6965 224.4417 555.0503 226.1541 554.0026 227.4384 552.8802 229.0081 551.8325 230.2924 551.0842 231.5053 550.5604 232.6469 549.8869 234.1452 549.8869 234.502 549.8869 234.7874 550.1114 234.93 554.302 238.0694 553.7781 238.7828 549.8121 235.7862 549.7372 235.7862 549.4379 235.7862 548.9889 236.0003 548.1658 236.5711 547.642 236.9991 547.193 237.4986 545.397 239.7817 543.6759 242.2075 542.4038 244.1339 541.5058 245.9889 541.3562 246.631 541.3562 248.3434 541.431 248.9855 541.5058 249.3422 541.6555 249.6276 541.88 249.8416 542.1793 250.0557 542.4038 250.2697 545.1725 251.5539 547.1182 252.4814 547.5671 252.6955 547.4175 252.9095 547.193 253.4803 545.0977 252.5528 542.1045 251.1259 541.88 250.9832 540.4582 252.8382 539.5602 253.7657 539.0364 254.1937 537.7643 255.1926 535.8935 256.7622 535.4445 257.2616 535.0703 257.761 534.2472 259.1879 533.9479 259.7587 533.7234 260.6862 533.3492 261.3283 532.8254 262.1131 532.3764 262.6125 532.0771 262.8265 531.7778 262.8979 529.7573 262.8265 529.0838 262.8979 528.111 263.1119 527.2131 263.54 525.5668 264.7528 525.1178 265.5376 525.1178 265.8943 525.1178 266.1797 525.0429 266.4651 524.9681 267.1785 525.3423 267.6066 525.1926 267.892 525.0429 268.106 524.9681 268.6054 525.1926 269.0335 525.2674 269.3902 525.3423 269.8896 525.1178 270.175 524.7436 270.603 524.3695 270.8884 523.6212 270.7457 523.4715 271.0311 523.4715 271.3878 523.7708 271.7445 523.3967 272.7433 522.798 273.5994 521.7504 273.9562 520.9272 274.6696 520.4782 274.8836 520.1789 275.7397 519.3558 275.5971 518.9068 275.8824 518.9068 275.4544 519.2809 274.955 519.6551 274.5269 519.8796 274.0275 519.6551 273.3141 519.2061 273.3141 518.6823 273.7421 518.4578 274.0989 518.2333 274.3129 517.7095 274.3129 516.6619 274.3129 516.138 273.8848 515.4646 272.6006 513.9679 271.6018 512.9203 270.4603 512.621 270.389 511.9475 270.3177 510.9747 270.389 510.3012 270.5317 509.4032 270.8171 508.8046 270.8171 508.5053 270.8171 507.9066 270.6744 506.7093 270.1036 505.8113 269.8182 505.512 269.7469 504.165 269.7469 502.2943 269.2475 500.3486 268.9621 499.75 268.7481 499.5255 268.5341 499.0017 267.6779 498.5527 267.2499 498.3282 267.0358 497.7296 266.8218 496.4574 266.7505 495.8588 266.5364 494.3622 265.2522 493.7635 264.9669 493.1649 264.8242 492.192 264.7528 488.8995 264.9669 487.6273 265.2522 487.0287 265.4663 485.1579 266.1797 482.8381 267.4639 482.3143 267.8206 482.015 267.9633 481.8653 267.892 481.0422 265.9657 480.8177 265.7516 480.5932 265.6803 479.1714 266.1797 478.2734 266.6078 478.0489 266.8218 477.4503 267.5352 476.9265 267.892 475.7292 268.4627 473.7836 269.6042 472.0625 270.603 471.1645 270.9597 469.7427 271.6732 467.7971 272.9574 466.7494 273.8135 466.2256 274.2415 462.4092 278.1654 461.6609 278.8075 460.8378 279.3782 460.3888 279.8063 458.8173 281.6612 456.1234 284.5862 454.552 286.5838 452.5315 289.5801 452.2322 290.2222 452.0825 290.8642 452.0077 291.5776 452.0825 291.863 452.1574 292.1484 452.4567 292.7191 452.5315 293.0758 452.4567 293.3612 452.307 293.6465 452.0825 293.8605 451.7832 294.0032 451.5587 294.0032 451.2594 293.8605 450.9601 293.8605 450.7356 294.0032 450.5859 294.2172 450.2866 294.788 450.1369 295.0733 450.0621 295.5727 449.7628 295.9294 449.3138 296.2148 449.1641 296.7142 448.9396 297.1422 449.0144 297.5702 448.9396 298.0696 448.9396 298.4977 448.6403 298.8544 448.4158 299.0684 448.1913 299.4964 448.0416 299.8531 447.5178 300.0671 447.1437 300.1385 446.7695 301.3513 446.545 301.9933 446.545 302.778 446.3205 303.4914 446.2457 303.7768 446.4702 303.9908 446.4702 304.3475 446.1709 304.4902 446.0212 304.5615 445.7967 304.3475 445.4225 304.5615 445.198 305.1322 445.4225 305.3463 445.5722 305.4176 445.4225 305.6316 445.198 305.7743 445.0484 306.345 445.198 306.559 445.4225 306.6304 445.5722 306.6304 445.4225 306.773 445.198 306.9157 444.9736 306.773 444.7491 306.7017 444.3749 307.1297 444.0756 307.7004 443.7014 308.0571 443.7014 308.3425 443.8511 308.6278 444.0756 308.8419 444.5994 309.1986 444.7491 309.4126 444.8239 309.6979 444.8239 309.9119 444.6742 310.126 444.4497 310.1973 444.1504 310.1973 443.7763 310.126 442.2048 309.4839 441.6062 310.1973 441.1572 310.9107 440.7082 311.9094 440.334 312.9795 439.8102 312.8368 438.9871 312.6228 438.3136 314.7629 436.8918 320.7553 436.817 322.9667 438.9871 323.8941 438.7626 324.4648 436.9666 323.8941 436.4428 325.3208 434.3475 324.6075 432.7012 323.9654 431.8033 323.6087 429.4835 322.8954 428.81 322.5387 426.9392 321.6113 426.3406 321.1833 425.4426 320.6126 421.6262 319.0432 417.6602 317.6878 415.6397 317.0457 415.1907 316.8317 414.7417 316.6177 414.4424 316.5464 413.9186 316.3324 413.32 316.1183 412.2723 315.833 411.524 315.5476 410.9254 315.191 410.2519 314.6916 409.9526 313.9782 409.8777 313.3362 409.6532 310.1973 409.2042 305.917 409.0546 304.7042 408.3811 301.922 407.9321 301.0659 407.1838 299.4251 406.66 298.569 406.5103 298.2123 404.6395 295.2874 404.0409 294.574 403.7416 294.2886 403.3674 293.9319 402.9932 293.6465 402.6939 293.3612 402.3198 293.0758 401.7211 292.7904 401.1225 292.5051 400.5986 292.3624 400 292.2197 399.3265 292.1484 398.7279 292.4337 398.2041 292.7904 397.9796 293.0758 397.6802 293.5038 397.6802 293.6465 397.6054 293.9319 397.3809 294.8593 397.3061 295.5727 397.0816 296.1434 397.0068 296.7855 396.7074 297.7843 395.8843 299.0684 395.585 300.1385 394.1632 304.6329 393.789 305.7743 393.6393 306.4877 393.4149 307.8431 393.34 309.0559 392.9659 309.6979 392.442 310.4826 391.9931 311.2674 391.0203 311.9094 390.3468 312.1948 389.5985 312.2661 389.0746 312.3374 388.4012 312.1948 387.4284 311.9094 387.0542 311.8381 386.68 311.7667 385.0338 311.0533 382.714 309.9119 382.265 309.7693 381.9657 309.5552 381.4419 309.1272 380.5439 308.7705 379.4962 308.3425 378.3738 308.1285 377.4758 308.0571 376.5778 308.1285 375.7547 308.3425 374.8567 308.8419 373.5846 309.4126 372.6866 309.8406 371.9383 310.2686 370.6662 310.6967 370.1423 310.8393 369.1695 311.1247 368.1967 311.1247 367.0743 310.768 365.9518 310.0546 364.979 309.4126 364.6797 309.0559 364.081 307.8431 364.0062 307.4151 363.9314 306.7017 363.8565 305.9883 363.7069 305.6316 363.5572 304.8469 363.4824 304.5615 363.4075 304.2048 363.4075 303.8481 363.2579 303.2774 363.1082 302.9921 363.0334 302.6354 362.7341 302.2073 362.5096 301.7793 361.9109 300.9232 361.1626 300.5665 360.9381 300.4952 360.564 300.3525 360.2646 300.3525 359.8156 300.3525 359.2918 300.4238 358.3938 300.7092 357.7952 300.7805 356.8972 301.1372 356.0741 301.4226 355.3258 301.6366 353.7543 301.6366 353.0808 301.4939 352.6318 301.3513 352.3325 301.2799 352.1829 301.1372 351.5094 300.7092 351.1352 300.1385 350.7611 299.4964 350.6114 298.8544 350.5366 297.8556 350.7611 296.9282 350.7611 296.1434 350.7611 295.6441 350.3869 294.788 349.7134 294.1459 349.0399 293.5752 348.3665 293.2898 347.3937 293.1471 346.346 292.9331 345.6725 292.7191 345.2984 292.4337 344.9242 292.1484 344.6997 291.7203 344.5501 291.2923 344.4752 290.7216 344.1759 289.7228 344.1011 288.8667 344.1011 285.1569 344.1011 284.5862 343.9514 283.8014 343.7269 283.0167 343.2779 281.9465 342.7541 281.0904 342.1555 280.377 341.5568 279.8063 340.5092 279.0215 339.6112 278.5221 338.1146 277.7373 336.6928 276.9526 335.0465 276.0965 334.373 275.7397 333.4751 275.3117 332.5771 274.6696 331.5294 273.9562 331.0805 273.4568 330.6315 272.9574 329.958 272.1726 329.06 271.3878 328.4614 271.0311 327.7879 270.603 326.8899 270.603 325.5429 270.6744 324.7198 270.6744 324.1212 270.603 323.298 270.6744 322.9239 270.603 322.2504 270.5317 321.7266 270.4603 320.9782 270.175 319.7809 269.5329 318.6585 269.1762 318.1347 268.8194 317.1619 268.4627 316.8625 268.2487 313.6448 266.7505 313.2706 266.6791 312.672 266.5364 311.0257 266.8218 310.0529 266.8218 309.2297 266.4651 308.7808 266.3937 307.9576 266.1084 306.9848 265.2522 306.461 264.8955 306.1617 264.8242 305.4134 264.7528 304.7399 264.8955 303.6922 265.3949 302.0459 266.3224 301.4473 266.6078 300.4745 266.8931 299.5017 266.8931 298.9779 266.7505 298.3044 266.4651 297.7057 265.8943 296.6581 264.8955 294.488 262.9692 293.8893 262.2558 293.5152 261.6137 293.141 260.6862 292.9914 260.0441 292.692 258.1891 292.3927 257.1189 291.7941 256.6195 291.0458 256.3341 289.7736 256.2628 288.8008 256.4055 287.0049 257.1189 286.4062 257.2616 285.7327 257.333 285.3586 257.333 285.0593 257.2616 284.7599 257.1189 284.4606 256.9762 284.2361 256.7622 283.3381 255.1926 282.8143 254.6932 281.5422 254.1937 281.0184 253.837 280.4197 253.5516 280.1204 253.3376 279.3721 252.6955 278.7734 251.9107 277.651 249.8416 276.753 247.7012 275.7054 246.3457 275.3312 245.7749 274.8822 244.8474 273.9094 243.0637 273.2359 242.2789 272.2631 241.066 271.7393 239.9244 271.1407 237.998 270.2427 235.5722 269.7937 234.0739 269.5692 232.7182 268.8209 229.5076 268.8209 228.4373 268.8209 228.2233 268.8957 227.7238 268.8957 227.153 269.0454 226.7963 269.0454 226.2255 269.0454 225.3693 269.1202 224.7271 269.0454 224.299 269.0454 223.5856 268.8957 222.9434 268.7461 222.3726 268.4467 221.8018 267.9229 221.3024 267.3243 220.9456 267.1746 220.8743 266.4263 220.5175 265.3787 219.6613 264.6303 218.9478 264.2562 218.5197 264.1065 217.6635 263.9569 213.8819 263.882 212.8116 263.5079 211.8841 263.1337 211.2419 262.6847 210.6711 261.8616 209.9576 261.1133 209.3154 260.365 208.1738 260.2153 207.7457 260.1405 207.5316 259.5418 206.0332 259.3922 205.7478 258.7935 204.4635 258.569 203.8213 258.4942 203.4645 258.2697 202.1802 257.9704 201.1813 257.9704 200.8958 257.3717 199.6828 257.0724 197.9704 257.2221 196.9001 257.5214 195.9725 257.8207 195.3303 258.12 194.7595 258.4194 194.1173 258.6438 193.4751 258.7935 192.5475 259.018 191.7626 259.467 190.9777 260.1405 189.9074 261.0384 188.3376 261.3378 187.4814 261.2629 186.2683 261.1133 184.6272 261.2629 183.9136 261.3378 183.6996 261.4874 183.2714 261.7868 182.7006 262.0113 181.4162 262.0861 179.8464 262.1609 179.561 262.4602 178.9901 262.7596 178.3479 262.9092 177.7057 262.9092 176.7781 262.7596 176.2072 262.6099 175.8505 262.0861 174.566 261.6371 173.7811 261.2629 172.7821 261.1133 172.2826 260.814 170.7841 260.9636 169.357 261.0384 169.1429 261.2629 167.8585 261.4126 166.8595 261.2629 166.0746 261.0384 165.7892 260.9636 165.7178 260.6643 165.5751 260.2901 165.5037 259.7663 165.2183 259.5418 165.0042 259.2425 164.5047 259.0928 164.0052 259.018 163.6484 259.018 163.363 258.7187 162.6494 257.7459 161.7931 257.4465 161.5791 257.2221 161.4363 255.5758 159.7237 254.7526 159.2242 254.4533 159.0815 254.154 158.9388 253.1812 158.582 252.2832 158.2252 251.5349 158.0111 250.5621 158.0825 249.9634 158.2252 249.6641 158.1539 249.3648 158.0111 249.0655 157.8684 248.7661 157.6544 248.5416 157.4403 248.2423 157.2262 248.0178 157.0121 247.7933 156.7981 247.5688 156.5126 247.2695 156.0845 246.6709 154.9427 246.2219 153.8723 245.9974 153.2301 245.6232 152.4452 245.5484 152.0884 245.6232 151.7316 245.9974 151.3034 246.2967 151.0893 246.8953 150.4471 247.3443 149.7335 248.0178 148.7345 248.392 147.8068 248.6165 147.0218 248.7661 146.2369 248.841 145.1665 248.841 143.7393 248.6913 142.883 248.3171 142.098 247.7185 140.8849 247.2695 140.0285 247.1198 139.3149 247.045 138.3159 247.1947 137.6736 247.4192 136.8887 247.7185 136.3178 248.1675 135.8896 249.8886 135.0333 250.4872 134.6765 250.8614 134.2483 251.6845 133.1065 252.2084 132.2502 252.358 131.6793 252.2832 131.037 251.9839 130.0379 251.0111 127.8257 250.0383 126.4698 249.5893 125.3994 249.4396 124.8998 249.2151 124.2576 248.841 123.3299 248.6165 122.759 248.1675 121.4744 248.0178 121.1176 247.7933 120.5467 247.6437 120.1185 247.3443 119.5476 246.8205 118.6199 246.596 118.1917 246.4464 117.6922 246.4464 115.1944 246.596 114.124 246.147 111.6262 246.147 111.0553 246.147 110.9126 246.2967 109.6994 246.7457 108.4148 246.9702 107.7725 247.2695 107.1302 248.0926 106.3452 249.0655 106.0598 249.5144 105.9884 249.8886 105.9884 250.4124 106.0598 250.9362 106.0598 251.6845 105.7743 252.0587 105.0606 252.2832 104.4184 252.2832 104.0615 252.358 103.7761 252.2084 103.1338 251.8342 101.8492 251.6845 101.2069 251.5349 100.636 251.4601 99.9223 251.4601 99.28 251.6097 98.6377 251.6097 97.9954 251.6097 97.8527 251.6097 96.7108 251.6097 96.2113 251.6097 95.9258 251.3104 93.9275 251.0111 92.5002 250.9362 91.7152 250.4872 90.2878 250.1131 89.36 249.8886 88.7177 249.2899 87.0763 249.2151 86.7908 248.7661 85.863 248.5416 84.9352 248.0178 84.0075 247.2695 83.5079 246.6709 83.2224 246.0722 83.0083 245.0246 82.7228 244.1266 81.8664 243.9021 81.2241 243.4531 80.439 243.1538 80.0822 242.9293 79.5826 242.5551 78.5121 242.4055 77.2274 242.4055 76.5138 242.4055 76.2996 242.4055 75.9428 242.5551 74.6582 242.5551 73.5876 242.63 72.8025 242.7048 72.7312 242.7796 72.4457 242.8545 71.161 242.8545 70.376 242.8545 69.4482 242.9293 68.7345 242.9293 68.5917 242.8545 68.2349 242.8545 68.0921 242.5551 66.8075 242.1062 65.951 241.283 65.5942 240.9837 65.4514 240.6844 65.3087 240.385 65.1659 240.0857 65.0232 239.7864 64.8805 239.5619 64.8091 239.4871 64.7377 239.1877 64.595 238.8884 64.4522 238.5891 64.3809 238.2149 64.3095 237.9156 64.2381 237.6163 64.1668 237.1673 64.024 235.8952 63.9526 235.072 63.453 234.6979 63.0962 234.2489 62.8107 233.6502 61.8115 233.7999 61.0978 234.2489 60.741 234.3985 60.5268 234.623 60.2414 234.9972 59.3849 234.9972 58.4571 234.9972 57.3151 234.5482 55.4595 234.3985 54.3889 234.3237 52.4618 234.174 51.8909 234.0244 51.2485 233.7999 50.6062 233.5754 49.9638 233.4257 49.8211 233.2012 49.4642 232.7523 48.9646 232.6026 48.6791 232.3781 48.465 232.1536 48.1795 232.0039 47.894 231.8543 47.6085 231.6298 47.323 231.4801 47.0375 231.106 46.5379 230.3577 45.7528 229.0107 44.9677 227.3644 45.0391 226.0174 44.5395 225.2691 43.7543 224.7453 43.0406 223.997 42.2555 223.3983 41.4704 222.65 40.3998 221.9766 39.4006 Z M 22.3269 42.541 20.6806 42.4696 20.6058 42.4696 20.3813 42.3983 18.8847 42.2555 14.6941 41.2563 11.4015 41.8986 7.9593 42.0414 6.3878 41.399 4.5919 38.1158 2.7211 37.9017 1.7483 37.6162 1.2245 36.8311 1 35.6891 2.1225 35.0467 1.8231 33.4051 2.0476 32.1917 3.1701 31.5494 4.1429 31.3352 5.1157 30.6215 6.3878 30.7642 7.5103 29.4795 8.6328 29.1226 9.4559 28.2661 9.1566 27.5523 9.1566 26.91 10.1294 26.1962 9.7553 24.4832 9.9049 23.1984 10.1294 22.556 11.5512 22.2705 12.4492 21.414 13.1975 21.1999 13.871 21.2713 14.0206 19.9151 15.5173 19.701 16.4901 19.2727 16.7146 18.3448 16.939 17.8452 16.5649 17.7024 16.4901 17.2028 17.0139 17.2742 17.837 17.1314 17.4629 15.8466 17.3132 14.6332 17.837 13.9908 18.5853 13.3484 18.8098 12.5633 19.0343 12.4919 20.082 12.706 21.1296 12.9202 21.8779 12.9915 21.8779 12.4205 22.5514 11.7781 22.8507 11.1357 23.2249 11.2071 24.1977 10.6361 25.3201 10.7788 25.6195 11.3499 27.2658 12.3491 28.0889 12.8488 28.6875 12.4919 29.7352 12.9915 30.4835 12.706 31.2318 12.6347 30.8577 13.2771 30.259 13.3484 29.4359 13.5626 28.7624 14.205 28.7624 15.5611 28.4631 17.9166 29.1365 18.1307 29.4359 19.2727 28.6875 19.9865 28.4631 20.9858 25.7691 24.4118 24.2725 25.5538 24.1228 26.7672 24.7963 26.91 25.9188 28.2661 26.8168 28.1233 27.4902 28.4089 27.9392 29.4081 29.81 29.6222 31.2318 31.0497 32.4291 32.1204 32.8033 33.5479 32.2794 34.1902 32.1298 35.0467 32.7284 36.9025 32.4291 38.4727 32.2046 39.6147 31.7556 40.7567 31.3066 41.7559 30.7828 42.2555 29.361 42.8979 27.0413 42.6837 24.5718 41.97 22.3269 42.541 Z"/>
</g>
</svg>