<?xml version="1.0"?>
<svg xmlns="http://www.w3.org/2000/svg" version="1.2" baseProfile="tiny" width="800" height="80" viewBox="0 0 800 80" stroke-linecap="round" stroke-linejoin="round">
<g id="recintos_municipales_inspire_peninbal_etrs89">
<path d="M 2.3119 78.2801 2.2833 78.2962 2.2377 78.307 2.2092 78.3286 2.2035 78.334 2.2263 78.3663 2.2092 78.3879 2.1921 78.3825 2.1807 78.3502 2.1465 78.3448 2.1236 78.3124 2.0951 78.2909 2.0609 78.2855 2.0324 78.3016 1.9525 78.2639 1.8898 78.2154 1.8442 78.1723 1.8156 78.1615 1.7814 78.1669 1.7814 78.1561 1.7871 78.1453 1.7757 78.1345 1.7187 78.1507 1.6673 78.1345 1.6331 78.1076 1.5818 78.0321 1.559 78.0213 1.5304 78.0213 1.519 78.0429 1.4734 78.0213 1.4278 78.016 1.405 77.9944 1.3479 77.9728 1.3479 77.9513 1.3308 77.9405 1.308 77.9459 1.2681 77.9243 1.2281 77.9082 1.2053 77.9082 1.1597 77.9297 1.1369 77.9189 1.0114 77.8327 1 77.8111 1.0057 77.7626 1.0171 77.7518 1.0399 77.7788 1.057 77.7842 1.0741 77.7734 1.0741 77.7303 1.0513 77.6872 1.0684 77.6764 1.1483 77.6602 1.1597 77.6494 1.1825 77.6063 1.1825 77.5847 1.154 77.547 1.1141 77.5201 1.0513 77.4715 1.0228 77.423 1.0228 77.4069 1.0399 77.3799 1.0627 77.3691 1.0684 77.3422 1.1255 77.326 1.211 77.3368 1.2453 77.326 1.4221 77.3583 1.462 77.3853 1.5019 77.3745 1.559 77.4015 1.6046 77.4284 1.6331 77.4338 1.6388 77.45 1.6844 77.4769 1.7016 77.4985 1.6445 77.5201 1.6445 77.5308 1.6902 77.5524 1.7187 77.574 1.7529 77.6279 1.8327 77.6656 1.8385 77.671 1.8385 77.7087 1.8898 77.7572 1.9354 77.768 1.9525 77.7518 1.9696 77.7518 2.0096 77.768 2.0837 77.7788 2.1008 77.7734 2.1579 77.7734 2.2206 77.7842 2.2377 77.8165 2.2948 77.8758 2.3005 77.9028 2.3119 77.9189 2.3062 77.9405 2.3119 77.9621 2.3005 77.989 2.2776 78.016 2.2833 78.0375 2.2719 78.0753 2.2948 78.0753 2.3176 78.0914 2.3518 78.1022 2.3632 78.1238 2.3518 78.1345 2.329 78.1345 2.3176 78.1238 2.3005 78.1238 2.2948 78.1022 2.2833 78.1022 2.2776 78.1238 2.2719 78.1238 2.232 78.0914 2.2206 78.0968 2.2206 78.1076 2.232 78.1292 2.2605 78.1615 2.3062 78.1831 2.3233 78.1777 2.329 78.1723 2.329 78.1615 2.3575 78.1561 2.386 78.1884 2.4088 78.1992 2.4659 78.1938 2.5229 78.1777 2.5514 78.1507 2.5514 78.1292 2.5286 78.1238 2.4773 78.0914 2.4659 78.0699 2.4773 78.0429 2.5343 78.016 2.5514 78.016 2.5856 78.0429 2.6256 78.0483 2.6598 78.0591 2.7054 78.0591 2.7282 78.0537 2.8423 77.9998 2.8765 77.989 2.8936 77.9998 2.9564 77.9998 3.0134 78.0052 3.0362 77.9998 3.0591 78.0321 3.0705 78.0806 3.0419 78.1292 3.0419 78.1453 3.0191 78.1561 3.002 78.1831 2.9678 78.1884 2.9279 78.2154 2.8651 78.2154 2.8366 78.2316 2.7568 78.2154 2.7396 78.2208 2.7625 78.3232 2.7796 78.3825 2.8138 78.4256 2.8708 78.4903 3.0648 78.6304 3.1161 78.652 3.2587 78.679 3.3157 78.679 3.2815 78.7113 3.1161 78.7652 2.4602 78.7706 2.4659 78.7329 2.4659 78.652 2.4545 78.6035 2.4316 78.5496 2.4088 78.5119 2.3746 78.4741 2.3461 78.4094 2.3062 78.3825 2.2719 78.3771 2.2662 78.3663 2.2662 78.3502 2.3119 78.2801 Z M 790.4615 76.4258 790.4558 76.4258 790.4501 76.4204 790.4387 76.415 790.4102 76.3773 790.4045 76.3611 790.393 76.3503 790.3759 76.345 790.3645 76.3396 790.3588 76.345 790.3531 76.345 790.3474 76.3503 790.336 76.3503 790.3303 76.3503 790.3189 76.3342 790.3189 76.3288 790.3132 76.3126 790.3018 76.291 790.2961 76.2857 790.2847 76.2857 790.2847 76.2749 790.2904 76.2587 790.3132 76.2318 790.3132 76.2156 790.3075 76.2048 790.3075 76.1886 790.3018 76.1778 790.3018 76.1671 790.2961 76.1671 790.2847 76.1617 790.2733 76.1617 790.2676 76.1617 790.2562 76.1509 790.2505 76.1401 790.2447 76.1186 790.2447 76.1024 790.2447 76.0862 790.2447 76.07 790.2505 76.0593 790.2562 76.0485 790.2676 76.0323 790.279 76.0215 790.2904 76.0161 790.3075 76 790.3132 75.9892 790.3132 75.973 790.3132 75.9568 790.3018 75.9353 790.2904 75.9245 790.2676 75.9137 790.2562 75.9083 790.2333 75.9029 790.2162 75.9083 790.2048 75.9083 790.1934 75.9083 790.1877 75.8975 790.1877 75.8868 790.1934 75.876 790.2048 75.8652 790.2219 75.8706 790.239 75.8544 790.2447 75.849 790.239 75.8329 790.2447 75.8221 790.2505 75.8059 790.2447 75.7843 790.2447 75.7628 790.2333 75.7466 790.2219 75.7304 790.1991 75.725 790.1877 75.725 790.1421 75.7304 790.1364 75.7197 790.1364 75.7035 790.1364 75.6873 790.1421 75.6765 790.1421 75.6604 790.1421 75.6496 790.1307 75.6388 790.1193 75.6334 790.1022 75.6226 790.0793 75.6118 790.0451 75.6065 790.0394 75.6388 790.0451 75.6604 790.0394 75.6711 790.0223 75.6819 789.9881 75.6819 789.9539 75.6658 789.9539 75.655 789.9596 75.6442 789.971 75.6065 789.8968 75.5795 789.8284 75.5525 789.6687 75.4986 789.5033 75.4501 789.4063 75.434 789.3093 75.4178 789.1896 75.4124 789.0698 75.4124 789.0241 75.4178 788.9728 75.4286 788.9272 75.4447 788.8816 75.4609 788.8074 75.5202 788.796 75.5202 788.7675 75.531 788.7447 75.531 788.7333 75.5364 788.7047 75.5472 788.6705 75.5525 788.642 75.5579 788.5907 75.5472 788.5793 75.531 788.5735 75.5202 788.5735 75.4771 788.5678 75.4447 788.5564 75.4124 788.5393 75.3908 788.5279 75.3693 788.5165 75.3261 788.4994 75.2884 788.4709 75.2615 788.4424 75.2507 788.4081 75.2399 788.3853 75.2237 788.3568 75.2129 788.3055 75.2022 788.2598 75.2022 788.2541 75.186 788.2313 75.159 788.2142 75.1267 788.1971 75.1051 788.1743 75.0782 788.1629 75.062 788.1629 75.0512 788.1629 75.0404 788.1686 75.0351 788.18 75.0243 788.1857 75.0243 788.2028 75.0189 788.2199 75.0081 788.2256 75.0027 788.2598 74.9811 788.277 74.965 788.2941 74.9488 788.3112 74.938 788.3511 74.9057 788.3625 74.8895 788.3796 74.8626 788.3739 74.8356 788.3625 74.7979 788.3454 74.7817 788.3454 74.7709 788.3454 74.7547 788.3454 74.7332 788.3283 74.7062 788.2998 74.717 788.2827 74.7386 788.2655 74.744 788.2256 74.7493 788.1914 74.7655 788.1401 74.7547 788.1058 74.7278 788.083 74.7116 788.0602 74.6901 788.0089 74.6739 787.969 74.6685 787.9518 74.6577 787.9461 74.6469 787.9518 74.62 787.929 74.5607 787.9233 74.5499 787.9062 74.5229 787.8948 74.4906 787.8663 74.4529 787.8606 74.4259 787.8606 74.3882 787.8663 74.3612 787.8435 74.3504 787.8321 74.3504 787.8149 74.3397 787.8207 74.3181 787.8321 74.2965 787.8378 74.2804 787.8549 74.2534 787.8606 74.248 787.8663 74.248 787.8777 74.2426 787.9062 74.248 787.9347 74.248 787.9632 74.2588 787.9804 74.2696 787.9975 74.275 788.0146 74.2911 788.0317 74.2965 788.0545 74.2911 788.083 74.3019 788.123 74.3397 788.1458 74.3558 788.1743 74.3774 788.2142 74.3882 788.2541 74.3774 788.277 74.3558 788.2941 74.3289 788.3055 74.2804 788.3112 74.2642 788.3055 74.2372 788.277 74.2049 788.2484 74.1672 788.237 74.1348 788.237 74.1294 788.2541 74.124 788.2827 74.1186 788.3112 74.1132 788.3511 74.0809 788.3682 74.0593 788.3739 74.0486 788.3853 74 788.4081 73.9515 788.4138 73.93 788.4253 73.9138 788.4595 73.8761 788.4766 73.8491 788.4937 73.8168 788.5165 73.7898 788.5279 73.779 788.5564 73.7521 788.585 73.7305 788.6078 73.7089 788.6363 73.6928 788.6648 73.682 788.6876 73.6604 788.7104 73.6443 788.7275 73.6335 788.7675 73.6227 788.8017 73.6119 788.8473 73.6065 788.8873 73.6011 788.9272 73.6065 788.9557 73.6011 788.9728 73.5903 788.9785 73.5688 788.9842 73.5149 788.9785 73.4879 788.9728 73.4556 788.9728 73.4232 788.9785 73.3747 788.9785 73.3208 788.9842 73.2992 788.9899 73.2831 789.0127 73.2615 789.0527 73.2399 789.0755 73.2184 789.0869 73.1806 789.0755 73.1591 789.0527 73.1375 789.0298 73.1321 789.0184 73.1213 789.0127 73.1052 789.0127 73.089 789.0298 73.0405 789.0527 73.0027 789.0755 72.9704 789.161 72.9327 789.1896 72.9219 789.2181 72.9165 789.2466 72.9219 789.2751 72.9273 789.315 72.9273 789.3607 72.9273 789.3949 72.9003 789.412 72.868 789.4063 72.8356 789.3721 72.8087 789.3664 72.7709 789.3721 72.7548 789.3892 72.7494 789.4291 72.7332 789.4405 72.7224 789.4405 72.6739 789.4462 72.6254 789.4462 72.5715 789.4462 72.5176 789.4405 72.4798 789.4348 72.4421 789.4291 72.4097 789.4177 72.3828 789.412 72.3666 789.4063 72.3558 789.4006 72.3504 789.3892 72.3397 789.3664 72.3397 789.355 72.3451 789.3207 72.3451 789.3036 72.3397 789.2922 72.3343 789.2808 72.3181 789.2637 72.3127 789.258 72.3073 789.2694 72.2696 789.2808 72.2588 789.2922 72.248 789.3036 72.2318 789.3264 72.2265 789.3436 72.2157 789.3664 72.2049 789.3835 72.2049 789.4063 72.2103 789.4348 72.2157 789.4633 72.2211 789.4861 72.2318 789.5204 72.248 789.5261 72.2534 789.5375 72.2804 789.5489 72.2965 789.5546 72.3073 789.5774 72.3235 789.5888 72.3397 789.6173 72.3504 789.6573 72.3451 789.6687 72.3397 789.6915 72.3181 789.7143 72.2965 789.7314 72.2804 789.7656 72.2588 789.7884 72.248 789.8455 72.2157 789.8626 72.2049 789.8626 72.1995 789.8455 72.1779 789.8398 72.1671 789.8398 72.151 789.8512 72.1402 789.874 72.1402 789.9025 72.1348 789.931 72.1132 789.9424 72.0917 789.931 72.0755 789.9025 72.0324 789.8911 72.0162 789.8854 71.9946 789.8797 71.9839 789.8854 71.9731 789.8968 71.9785 789.9196 71.9839 789.9424 72 789.9539 72.0108 789.9767 72.0378 789.9881 72.0485 789.9938 72.0593 790.0337 72.1132 790.0394 72.1294 790.0394 72.1402 790.0223 72.1564 789.9995 72.1671 789.9938 72.1779 789.9995 72.1995 790.0109 72.2318 790.0223 72.275 790.0337 72.2965 790.0394 72.3181 790.0565 72.3558 790.0679 72.3774 790.1136 72.4205 790.1307 72.4205 790.1364 72.4259 790.1934 72.4637 790.1991 72.4744 790.1991 72.4906 790.1934 72.5122 790.1877 72.5553 790.1934 72.5769 790.1934 72.5876 790.182 72.6092 790.1763 72.6254 790.1649 72.6416 790.1592 72.6631 790.1592 72.6901 790.1763 72.7062 790.1877 72.744 790.1934 72.7602 790.182 72.8033 790.1763 72.8087 790.1706 72.8195 790.1592 72.8195 790.125 72.8356 790.1136 72.8464 790.1079 72.8518 790.0622 72.8841 790.0337 72.9165 790.0223 72.9327 789.9995 72.9758 789.9881 73.0027 789.9767 73.0297 789.9653 73.062 789.9596 73.089 789.9539 73.1213 789.9596 73.1321 789.971 73.1321 789.9995 73.1321 790.0052 73.1375 790.0052 73.1591 789.9995 73.1753 789.9881 73.1968 789.9653 73.2076 789.9596 73.2184 789.9596 73.2399 789.9653 73.2561 789.971 73.2669 790.0166 73.2831 790.0451 73.2885 790.0565 73.2938 790.0736 73.3046 790.0736 73.31 790.0736 73.3154 790.0451 73.3208 790.028 73.3208 789.971 73.3262 789.9539 73.3262 789.931 73.3262 789.9082 73.3262 789.9025 73.337 789.9025 73.3747 789.9025 73.3963 789.8911 73.4178 789.8683 73.4394 789.8626 73.4556 789.8626 73.4987 789.8512 73.558 789.8455 73.585 789.8455 73.6119 789.8455 73.6496 789.8455 73.682 789.8512 73.7089 789.8512 73.7628 789.8626 73.806 789.8797 73.8383 789.9025 73.8814 789.9196 73.903 789.9367 73.93 789.9482 73.9461 789.9767 73.9785 790.0052 74 790.0451 74.0108 790.0565 74.0216 790.0736 74.054 790.0793 74.0701 790.085 74.1025 790.0964 74.124 790.0964 74.1294 790.125 74.1456 790.1592 74.1672 790.1649 74.1779 790.1592 74.1941 790.1592 74.2049 790.1877 74.275 790.1991 74.2965 790.2048 74.3073 790.1934 74.3181 790.1478 74.3235 790.1193 74.3235 790.1022 74.3504 790.1022 74.3828 790.1136 74.4151 790.1364 74.4529 790.1649 74.469 790.1763 74.4744 790.1991 74.4906 790.2162 74.5122 790.2162 74.5337 790.2105 74.5445 790.1535 74.6038 790.1307 74.62 790.1136 74.6415 790.0907 74.6685 790.0907 74.6901 790.1079 74.7224 790.1193 74.7386 790.1478 74.7601 790.182 74.7763 790.2105 74.7979 790.239 74.814 790.2733 74.8302 790.3246 74.8626 790.3417 74.8679 790.3816 74.8518 790.393 74.8356 790.4045 74.8194 790.4102 74.814 790.4387 74.8086 790.4729 74.7871 790.4786 74.7655 790.4957 74.717 790.4957 74.6847 790.4786 74.6523 790.4729 74.6308 790.4786 74.6092 790.4957 74.5984 790.5185 74.593 790.5413 74.593 790.547 74.593 790.5642 74.6146 790.5756 74.6469 790.5642 74.6577 790.5585 74.6739 790.5585 74.6954 790.5699 74.7116 790.5984 74.7332 790.6041 74.744 790.6098 74.7871 790.6098 74.7979 790.6041 74.8086 790.6041 74.8248 790.6269 74.841 790.644 74.8464 790.6554 74.8518 790.6668 74.8679 790.7182 74.9003 790.7467 74.9003 790.7638 74.9057 790.7695 74.9165 790.8322 74.9973 790.8322 75.0135 790.8265 75.0297 790.8208 75.0404 790.798 75.0782 790.7866 75.0836 790.7809 75.089 790.7581 75.0944 790.7353 75.1159 790.7353 75.1483 790.7296 75.1536 790.7182 75.1806 790.7182 75.2076 790.7239 75.2237 790.7353 75.2291 790.7638 75.2453 790.798 75.2722 790.8265 75.2884 790.8379 75.2938 790.8322 75.31 790.8208 75.3208 790.8094 75.3208 790.7866 75.3154 790.741 75.3261 790.7353 75.3423 790.7239 75.3585 790.7239 75.4016 790.7296 75.4124 790.7467 75.4393 790.7752 75.4501 790.8094 75.4609 790.8379 75.4771 790.8722 75.5094 790.895 75.5418 790.9064 75.5633 790.9121 75.5957 790.9235 75.6118 790.9349 75.628 790.9406 75.6442 790.9292 75.6496 790.8836 75.6604 790.8493 75.6658 790.8379 75.6765 790.8436 75.7035 790.8436 75.725 790.8379 75.7412 790.8037 75.752 790.7695 75.7574 790.7467 75.752 790.7182 75.752 790.6953 75.7628 790.6668 75.8005 790.6497 75.8275 790.6326 75.8598 790.6155 75.8922 790.6098 75.9083 790.6098 75.9407 790.6212 75.9514 790.6269 75.9676 790.6269 76 790.6269 76.0323 790.6212 76.07 790.6098 76.1132 790.6041 76.1401 790.5984 76.1509 790.5756 76.1725 790.5699 76.1778 790.547 76.1994 790.5299 76.2264 790.5299 76.2425 790.5413 76.2641 790.5527 76.2857 790.5527 76.2964 790.5585 76.3288 790.5642 76.3881 790.5585 76.3935 790.5527 76.4096 790.547 76.415 790.5413 76.415 790.5299 76.4096 790.5071 76.4042 790.4843 76.4096 790.4672 76.4204 790.4615 76.4258 Z M 798.1958 74.7817 798.1615 74.7763 798.1387 74.7655 798.1159 74.7386 798.1159 74.7278 798.0931 74.7062 798.0703 74.6685 798.0475 74.6361 798.0418 74.6038 798.0361 74.5661 798.0304 74.5607 798.0304 74.5391 798.0304 74.5176 798.0247 74.4798 798.0133 74.4583 797.9847 74.4421 797.9733 74.4151 797.9505 74.399 797.922 74.399 797.9163 74.399 797.9049 74.3828 797.8707 74.372 797.8593 74.3666 797.8478 74.3343 797.8364 74.3181 797.8079 74.2911 797.7737 74.275 797.7452 74.2642 797.711 74.2588 797.6539 74.2588 797.5969 74.2534 797.557 74.2426 797.517 74.2426 797.4714 74.2372 797.4429 74.2318 797.3687 74.2103 797.3345 74.2049 797.3003 74.1941 797.2718 74.1833 797.2204 74.1725 797.1862 74.1725 797.1406 74.1456 797.1235 74.1294 797.1178 74.1079 797.0949 74.054 797.0892 74.0108 797.0607 73.9839 797.0322 73.9515 797.0037 73.9354 796.9752 73.9138 796.9467 73.8976 796.9238 73.8761 796.901 73.8491 796.8725 73.8329 796.8725 73.8275 796.8668 73.8006 796.8611 73.7736 796.8497 73.7467 796.8326 73.7197 796.8155 73.6928 796.8155 73.6604 796.7869 73.6335 796.7812 73.6281 796.7755 73.6173 796.7812 73.5742 796.7869 73.5634 796.7698 73.5257 796.7641 73.4825 796.7185 73.4232 796.7185 73.4124 796.7242 73.3693 796.7128 73.337 796.7185 73.3262 796.7185 73.3208 796.7299 73.2831 796.7356 73.2507 796.7413 73.1968 796.7527 73.1645 796.7527 73.1321 796.7356 73.089 796.7413 73.0728 796.7527 73.0567 796.747 73.0135 796.7299 73.0027 796.69 72.9704 796.6672 72.9434 796.6386 72.9165 796.6101 72.9003 796.5759 72.8572 796.5417 72.8195 796.3934 72.7925 796.382 72.744 796.382 72.7278 796.439 72.6955 796.4961 72.6685 796.5132 72.6577 796.5474 72.62 796.5816 72.5984 796.6044 72.5607 796.5873 72.5337 796.5645 72.5122 796.5474 72.5014 796.5246 72.4852 796.5189 72.4744 796.5075 72.4475 796.4732 72.4151 796.4675 72.4044 796.4447 72.372 796.4219 72.3397 796.4048 72.3235 796.3934 72.3073 796.3934 72.2911 796.3934 72.2642 796.4048 72.2318 796.4048 72.1941 796.4105 72.1779 796.4162 72.1348 796.4162 72.124 796.4162 72.1186 796.4447 72.0917 796.4675 72.0701 796.4904 72.0432 796.5075 72.0108 796.5246 71.9731 796.536 71.9299 796.5474 71.8868 796.5474 71.8329 796.5474 71.779 796.5588 71.7467 796.5588 71.7035 796.5531 71.6604 796.5645 71.6334 796.5816 71.6065 796.5873 71.5957 796.6158 71.5741 796.6444 71.5472 796.6786 71.5094 796.7014 71.4609 796.7128 71.4232 796.7185 71.3962 796.7242 71.3908 796.7413 71.3639 796.747 71.3315 796.747 71.2884 796.747 71.2399 796.7527 71.2291 796.7584 71.2237 796.7812 71.2237 796.7926 71.2291 796.8326 71.2507 796.8611 71.2615 796.8896 71.2722 796.9067 71.2776 796.9124 71.283 796.9409 71.2938 796.9809 71.2992 797.0208 71.2938 797.0607 71.283 797.0721 71.2884 797.1064 71.31 797.1577 71.3154 797.2033 71.2992 797.2147 71.2884 797.2204 71.283 797.2318 71.283 797.2432 71.3154 797.2432 71.3261 797.2318 71.3423 797.2318 71.3585 797.2432 71.3854 797.2661 71.407 797.3117 71.4016 797.363 71.4016 797.3801 71.4016 797.3915 71.4016 797.3972 71.4124 797.3972 71.4555 797.3915 71.4933 797.3972 71.5094 797.3858 71.5202 797.3516 71.5364 797.3288 71.5526 797.3003 71.5634 797.2718 71.5741 797.2375 71.5634 797.2033 71.5687 797.1748 71.5741 797.1463 71.5849 797.1178 71.6119 797.1178 71.628 797.1121 71.6712 797.1235 71.7143 797.1463 71.7467 797.1577 71.7574 797.1634 71.7682 797.1691 71.779 797.1691 71.7844 797.1691 71.8167 797.1691 71.8437 797.1577 71.8706 797.1406 71.8976 797.1292 71.9246 797.0949 71.9677 797.0778 71.9785 797.055 71.9946 797.0379 72 797.0151 72.0054 796.998 72.0324 797.0094 72.0539 797.0322 72.0701 797.0436 72.0863 797.0664 72.1348 797.0835 72.1779 797.0892 72.2211 797.0835 72.248 797.0778 72.2804 797.0835 72.3289 797.0892 72.3451 797.0835 72.3558 797.0607 72.3666 797.0379 72.372 796.998 72.3774 796.9524 72.3882 796.9467 72.4205 796.9467 72.4367 796.9524 72.4744 796.9581 72.496 796.9695 72.5337 797.0094 72.5607 797.0379 72.5823 797.0664 72.6038 797.0778 72.6362 797.0835 72.6577 797.0664 72.6955 797.0322 72.7386 797.0151 72.7655 796.9866 72.7871 796.9638 72.8087 796.9524 72.8248 796.9352 72.8302 796.9295 72.8572 796.9352 72.8895 796.9352 72.9434 796.9409 72.9704 796.9638 72.9974 796.9695 73.0081 797.0037 73.0351 797.0379 73.0674 797.0664 73.0944 797.1007 73.1267 797.1292 73.1375 797.1577 73.1483 797.2033 73.1537 797.2432 73.1537 797.2775 73.1429 797.306 73.1375 797.3516 73.1106 797.3915 73.0836 797.4201 73.0728 797.4543 73.0459 797.4657 73.0405 797.4942 73.0351 797.5113 73.0135 797.5227 72.9974 797.5227 72.9704 797.517 72.9542 797.5113 72.9327 797.517 72.9273 797.5227 72.9219 797.5341 72.9219 797.5398 72.9219 797.557 72.9327 797.5684 72.9434 797.6083 72.965 797.6197 72.965 797.6311 72.9758 797.6425 73.0027 797.6482 73.0189 797.6368 73.0513 797.6368 73.0674 797.6311 73.0998 797.6254 73.1321 797.6254 73.1591 797.6254 73.1968 797.6197 73.2076 797.5969 73.2238 797.5855 73.2453 797.5855 73.2615 797.5855 73.2669 797.5741 73.2885 797.5627 73.3154 797.5512 73.3478 797.5398 73.3747 797.5113 73.3963 797.5056 73.3963 797.4828 73.4178 797.4828 73.4448 797.4885 73.461 797.4942 73.5149 797.5056 73.5526 797.5056 73.5634 797.4999 73.5742 797.4714 73.6065 797.4429 73.6281 797.4258 73.6389 797.3972 73.6604 797.3744 73.6766 797.3573 73.6766 797.3516 73.6766 797.3117 73.6874 797.2946 73.7089 797.2889 73.7251 797.2718 73.7359 797.2604 73.7575 797.2547 73.7736 797.2318 73.8006 797.2204 73.8275 797.2261 73.8437 797.2318 73.8599 797.2432 73.8653 797.2718 73.8599 797.3003 73.8383 797.306 73.8221 797.3231 73.806 797.3573 73.7844 797.3858 73.7682 797.403 73.7575 797.4429 73.7305 797.4885 73.7089 797.517 73.6982 797.5455 73.682 797.5741 73.655 797.5969 73.6443 797.6254 73.6443 797.671 73.6281 797.6881 73.6119 797.7052 73.6119 797.7167 73.6119 797.7566 73.6173 797.7851 73.6227 797.8193 73.6335 797.8364 73.6389 797.8478 73.6443 797.8764 73.6496 797.922 73.6389 797.9448 73.6389 797.9733 73.6389 797.9904 73.6389 798.0247 73.6496 798.0418 73.655 798.0646 73.6712 798.0988 73.6766 798.133 73.682 798.1615 73.6766 798.1844 73.6766 798.1958 73.6766 798.2471 73.7036 798.2528 73.7089 798.2642 73.7305 798.2642 73.7359 798.2585 73.7575 798.2414 73.7736 798.2243 73.8006 798.2129 73.8437 798.1958 73.8922 798.2015 73.9084 798.2072 73.9515 798.2243 73.9677 798.2414 73.9623 798.2642 73.9407 798.2927 73.903 798.3041 73.8922 798.3327 73.8599 798.3441 73.8491 798.3555 73.8383 798.3669 73.8329 798.384 73.8275 798.3954 73.806 798.4068 73.7844 798.4125 73.779 798.4182 73.7736 798.4467 73.7521 798.4753 73.7359 798.4981 73.7036 798.5038 73.6928 798.5038 73.6874 798.5152 73.682 798.5266 73.6928 798.5437 73.7197 798.5608 73.7251 798.5779 73.7143 798.5893 73.7036 798.6121 73.682 798.6178 73.6766 798.635 73.6712 798.6521 73.6658 798.6692 73.6658 798.6806 73.6658 798.7034 73.6712 798.7205 73.6928 798.7433 73.7143 798.7604 73.7359 798.7719 73.7467 798.7776 73.7575 798.789 73.806 798.8004 73.8545 798.8232 73.8868 798.846 73.9354 798.8517 73.9569 798.846 73.9731 798.846 74 798.8574 74.027 798.8745 74.0432 798.8802 74.0432 798.8916 74.0647 798.8859 74.0755 798.8802 74.0809 798.8574 74.0971 798.8289 74.1079 798.8289 74.124 798.8403 74.1456 798.8802 74.1725 798.8859 74.1725 798.9373 74.1887 798.9658 74.1833 798.9772 74.1833 798.9886 74.1941 798.9943 74.1995 798.9943 74.2211 798.9943 74.2426 799 74.2696 799 74.2804 798.9943 74.3343 798.9601 74.3828 798.9544 74.3936 798.9544 74.399 798.943 74.4097 798.903 74.4421 798.8802 74.4798 798.8574 74.5014 798.8289 74.5229 798.8004 74.5337 798.7661 74.5445 798.7205 74.5553 798.6806 74.5876 798.6692 74.6361 798.6635 74.6415 798.6521 74.6577 798.6407 74.6631 798.6064 74.6685 798.595 74.6793 798.5836 74.6954 798.5722 74.7116 798.5551 74.717 798.5266 74.7386 798.4981 74.7547 798.4753 74.7709 798.4638 74.7709 798.4467 74.7493 798.4353 74.7386 798.4125 74.7386 798.3669 74.7547 798.3327 74.7547 798.2984 74.7601 798.2642 74.7709 798.2357 74.7817 798.1958 74.7817 Z M 794.4256 73.8006 794.4142 73.7952 794.38 73.7736 794.3457 73.7575 794.3172 73.7521 794.2659 73.7467 794.226 73.7628 794.2146 73.7682 794.186 73.7952 794.1746 73.7952 794.1632 73.7898 794.1575 73.779 794.1461 73.7682 794.1119 73.7467 794.0891 73.7413 794.0663 73.7359 794.0434 73.7359 794.0263 73.7413 794.0149 73.7682 793.9978 73.779 793.9921 73.779 793.9807 73.7736 793.975 73.7628 793.9636 73.7413 793.9294 73.7305 793.9123 73.7251 793.8894 73.7143 793.8894 73.7089 793.8951 73.7036 793.8951 73.6874 793.8552 73.6604 793.8381 73.6604 793.8324 73.6496 793.821 73.6173 793.8153 73.5634 793.7982 73.5095 793.7754 73.4717 793.7411 73.4556 793.7297 73.4502 793.724 73.4017 793.7069 73.3963 793.6784 73.3963 793.6556 73.4178 793.6499 73.4178 793.6271 73.3801 793.57 73.3478 793.5472 73.3262 793.5016 73.2938 793.4845 73.2885 793.4788 73.2777 793.4788 73.2669 793.4959 73.2346 793.5073 73.2076 793.5016 73.1699 793.4959 73.1267 793.4959 73.0513 793.4902 73.0081 793.4845 72.992 793.4845 72.9812 793.4902 72.9758 793.5016 72.9704 793.5187 72.9542 793.5301 72.9327 793.5358 72.9003 793.5301 72.868 793.5244 72.8356 793.5187 72.8033 793.513 72.7602 793.5073 72.717 793.5073 72.6955 793.5073 72.6685 793.5073 72.6362 793.4959 72.5984 793.5016 72.5769 793.5187 72.5553 793.5529 72.5337 793.5586 72.5176 793.5415 72.4798 793.5187 72.4529 793.4959 72.4421 793.4731 72.4475 793.4217 72.469 793.4103 72.469 793.4046 72.469 793.3989 72.4637 793.3818 72.4529 793.3647 72.4205 793.3419 72.3936 793.359 72.3451 793.3419 72.3235 793.3134 72.3235 793.2963 72.3181 793.2791 72.3019 793.2734 72.2804 793.2677 72.2372 793.2677 72.2049 793.2677 72.1725 793.2677 72.1402 793.2791 72.0917 793.2791 72.0539 793.2848 72.0108 793.2848 71.9839 793.2848 71.9515 793.2791 71.9192 793.2791 71.8706 793.2677 71.8329 793.2677 71.8113 793.2791 71.8113 793.3077 71.8113 793.3362 71.7898 793.3305 71.7413 793.3248 71.7143 793.3305 71.6927 793.3419 71.6873 793.3647 71.6873 793.3875 71.6927 793.416 71.7035 793.4274 71.7089 793.4788 71.7089 793.4902 71.7089 793.5187 71.7035 793.5244 71.7035 793.5529 71.7089 793.5643 71.6981 793.5814 71.682 793.5814 71.6766 793.5871 71.6712 793.6043 71.6712 793.6157 71.682 793.6385 71.6927 793.6499 71.6981 793.6784 71.6981 793.6898 71.6927 793.7183 71.6766 793.7354 71.6712 793.7583 71.6658 793.7697 71.6658 793.7868 71.6766 793.8153 71.6927 793.8381 71.7035 793.8495 71.7089 793.8894 71.7197 793.9123 71.7305 793.9408 71.7413 793.975 71.752 793.9921 71.7413 794.0035 71.7197 794.0092 71.7089 794.0092 71.6927 794.0092 71.682 794.0149 71.6766 794.0263 71.6712 794.0491 71.6712 794.0606 71.6712 794.0891 71.6873 794.129 71.7035 794.1518 71.7089 794.1575 71.7143 794.186 71.7467 794.226 71.7736 794.2374 71.7898 794.2374 71.7952 794.2431 71.806 794.2374 71.8383 794.2374 71.8653 794.2317 71.9138 794.2203 71.9353 794.2203 71.9461 794.226 71.9569 794.2488 71.9731 794.2773 71.9839 794.3001 71.9731 794.3115 71.9623 794.3286 71.9569 794.3857 71.9299 794.3914 71.9299 794.4028 71.9299 794.4142 71.9299 794.4199 71.9407 794.4427 71.9569 794.4598 71.9731 794.4712 71.9785 794.4826 71.9946 794.4997 72 794.5169 72.0054 794.5568 72.0108 794.5853 72.0108 794.6309 72.0162 794.6652 72.0216 794.6937 72.0216 794.7336 72.0162 794.7564 72.027 794.7792 72.0324 794.8249 72.0539 794.8648 72.0701 794.9104 72.0701 794.9332 72.0593 794.9389 72.0593 794.9503 72.0593 795.0074 72.0701 795.0359 72.0755 795.0872 72.0863 795.1215 72.0701 795.1272 72.0539 795.15 72.0593 795.1557 72.0593 795.1671 72.0593 795.207 72.0647 795.2298 72.0593 795.2469 72.0647 795.264 72.0755 795.2926 72.0917 795.3097 72.1132 795.3268 72.1348 795.361 72.1564 795.3724 72.1671 795.3895 72.1779 795.3952 72.1779 795.4009 72.1833 795.4352 72.1995 795.458 72.2211 795.4922 72.2318 795.5207 72.2588 795.5264 72.2642 795.5321 72.3019 795.5435 72.3181 795.5606 72.3289 795.5778 72.3343 795.5835 72.3397 795.6006 72.372 795.6063 72.3828 795.6177 72.4044 795.6405 72.4151 795.6519 72.4313 795.6519 72.4421 795.6519 72.4583 795.6348 72.4744 795.6348 72.5122 795.6576 72.5283 795.6633 72.5391 795.6576 72.5499 795.6519 72.5553 795.6405 72.5823 795.6291 72.6092 795.6519 72.6092 795.6519 72.6254 795.6462 72.6362 795.6348 72.6631 795.6348 72.6739 795.5949 72.6685 795.5435 72.6793 795.5207 72.717 795.4979 72.7548 795.4466 72.7925 795.418 72.8141 795.3838 72.9003 795.3496 72.9812 795.3952 73.0135 795.3781 73.0459 795.3496 73.0836 795.3154 73.1213 795.264 73.1375 795.2184 73.1429 795.1899 73.1591 795.1614 73.1753 795.15 73.186 795.1614 73.2184 795.1614 73.2292 795.1557 73.2399 795.15 73.2453 795.1443 73.2507 795.1386 73.2507 795.1329 73.2399 795.1215 73.2292 795.11 73.2292 795.0929 73.2346 795.0701 73.2507 795.0644 73.2561 795.0359 73.2777 795.0302 73.2777 795.0188 73.2723 795.0017 73.2723 794.9846 73.2885 794.9675 73.3046 794.956 73.3208 794.9389 73.3424 794.9446 73.3478 794.9218 73.3747 794.956 73.4017 794.9732 73.4178 795.0131 73.4394 795.053 73.461 795.0587 73.4717 795.0587 73.4771 795.053 73.4879 795.0473 73.4879 795.0359 73.4933 795.0074 73.4717 794.996 73.4771 794.9789 73.4771 794.9503 73.4879 794.9332 73.4933 794.9275 73.4987 794.9218 73.4933 794.9047 73.4879 794.8819 73.5095 794.8705 73.5149 794.8363 73.5203 794.8134 73.5418 794.7906 73.5634 794.7621 73.5796 794.7336 73.6119 794.7222 73.6227 794.6937 73.6496 794.6537 73.6712 794.6309 73.6874 794.6309 73.6982 794.6195 73.7143 794.6081 73.7197 794.5682 73.7413 794.5397 73.7413 794.4997 73.7521 794.4769 73.7736 794.4427 73.7952 794.4256 73.8006 Z M 175.6545 56.6652 175.6431 56.6491 175.626 56.6059 175.6145 56.6005 175.5803 56.5843 175.5005 56.5682 175.4605 56.5628 175.3978 56.5682 175.375 56.5628 175.3636 56.5574 175.3351 56.5142 175.2837 56.4657 175.2609 56.4064 175.2495 56.401 175.2381 56.401 175.2096 56.3956 175.1982 56.3794 175.1982 56.3686 175.2039 56.3686 175.2438 56.3578 175.3237 56.401 175.3408 56.4064 175.3978 56.3578 175.4548 56.3363 175.5119 56.3147 175.5404 56.3201 175.5974 56.3363 175.6145 56.3363 175.6944 56.2985 175.8541 56.2392 175.8769 56.2392 175.8997 56.25 175.9568 56.2985 176.0195 56.3848 176.0366 56.401 176.1051 56.4441 176.1108 56.4657 176.1108 56.4765 176.1051 56.4873 176.0937 56.4927 176.0708 56.4819 176.0138 56.4495 175.9967 56.4495 175.9796 56.4603 175.9625 56.4765 175.9568 56.4873 175.9568 56.5088 175.9625 56.5304 175.9796 56.5466 176.0366 56.5951 176.048 56.6275 176.048 56.6437 176.0366 56.6544 176.0252 56.6598 176.0081 56.6544 175.9397 56.6329 175.9168 56.6275 175.7343 56.6383 175.6602 56.6652 175.6545 56.6652 Z M 169.9735 55.9803 169.945 55.9749 169.9336 55.9641 169.9108 55.9048 169.8937 55.8886 169.8538 55.8725 169.8081 55.8617 169.7568 55.8778 169.7397 55.8725 169.7112 55.8563 169.6998 55.8347 169.6941 55.797 169.7055 55.6837 169.6826 55.5974 169.6826 55.5651 169.6998 55.5327 169.7112 55.5165 169.734 55.5165 169.791 55.5219 169.8195 55.5219 169.8309 55.5165 169.8424 55.5003 169.8652 55.4356 169.8823 55.414 169.945 55.3709 169.9849 55.3601 170.0192 55.3763 170.0477 55.3601 170.0762 55.3331 170.0933 55.3224 170.1447 55.3116 170.2473 55.3008 170.2987 55.2954 170.3329 55.3008 170.4755 55.3655 170.4869 55.3871 170.5154 55.4842 170.5439 55.6082 170.5496 55.6298 170.5382 55.6459 170.5097 55.6675 170.4812 55.6783 170.4184 55.6729 170.3728 55.6783 170.2758 55.7214 170.2587 55.7214 170.2074 55.6945 170.1846 55.6945 170.1504 55.7161 170.1161 55.7484 170.099 55.7754 170.0933 55.797 170.099 55.8671 170.0933 55.894 170.0762 55.9264 170.0534 55.9534 170.0135 55.9749 169.9735 55.9803 Z M 170.3671 54.7561 170.35 54.7507 170.3443 54.7453 170.3443 54.7345 170.3386 54.6752 170.3386 54.6482 170.35 54.6051 170.3671 54.5673 170.3956 54.5296 170.4355 54.5026 170.4641 54.4972 170.5439 54.4918 170.5724 54.4864 170.5952 54.4702 170.601 54.4648 170.5952 54.4541 170.5553 54.3947 170.5496 54.3624 170.5439 54.33 170.5667 54.3084 170.5895 54.2923 170.6067 54.2869 170.6523 54.3084 170.6694 54.3084 170.7321 54.2653 170.755 54.2545 170.8633 54.2437 170.8861 54.2599 170.8918 54.2653 170.8804 54.2923 170.8804 54.2977 170.9033 54.3084 170.9318 54.303 170.9489 54.2977 170.966 54.2491 170.9774 54.2383 171.0116 54.2275 171.0458 54.2329 171.0744 54.2491 171.1029 54.2707 171.1884 54.3732 171.3424 54.5026 171.3767 54.5511 171.4052 54.5997 171.4109 54.6105 171.4166 54.6266 171.4052 54.659 171.3824 54.686 171.3653 54.6914 171.1998 54.6482 171.0002 54.6428 170.8462 54.5943 170.7892 54.5835 170.755 54.5835 170.7207 54.5835 170.6523 54.6051 170.6124 54.6212 170.4983 54.6914 170.407 54.7291 170.3671 54.7561 Z M 572.6696 1 572.6924 1.0702 572.7323 1.135 572.7494 1.1782 572.7722 1.2214 572.8008 1.2592 572.8407 1.297 572.8806 1.3294 573.0289 1.4158 573.0916 1.4482 573.1715 1.513 573.2514 1.5616 573.2913 1.5994 573.3426 1.6534 573.3825 1.6858 573.3996 1.7074 573.5308 1.8694 573.5651 1.9342 573.6962 2.2906 573.7476 2.404 573.8046 2.539 573.8388 2.6902 573.8388 2.7388 573.8217 2.8144 573.8274 2.863 573.8388 2.8792 573.8502 2.8846 573.8731 2.89 573.9244 2.8792 573.97 2.8846 574.0157 2.9062 574.0613 2.9332 574.0727 2.9548 574.0784 2.9764 574.0727 3.052 574.0727 3.1006 574.0727 3.1222 574.0841 3.1438 574.1183 3.1816 574.1411 3.1978 574.164 3.2086 574.1868 3.214 574.2609 3.214 574.3579 3.2464 574.4263 3.2518 574.5803 3.2518 574.6545 3.2464 574.7001 3.2302 574.7743 3.2248 574.8427 3.2086 574.9454 3.2032 575.0766 3.187 575.2077 3.1762 575.3846 3.1816 575.453 3.2086 575.5043 3.214 575.5557 3.2248 575.5956 3.241 575.664 3.2734 575.7496 3.3328 575.7781 3.3706 575.818 3.4354 575.8351 3.4516 575.8922 3.5002 575.9093 3.5164 575.915 3.5326 575.9093 3.5596 575.9093 3.6082 575.915 3.6298 575.9321 3.646 576.0006 3.673 576.0234 3.6892 576.0348 3.7108 576.0462 3.7486 576.0576 3.7648 576.0633 3.7918 576.0633 3.8134 576.0348 3.8836 576.0405 3.9754 576.0462 4.0024 576.0576 4.0132 576.0975 4.0294 576.1146 4.0455 576.1317 4.0617 576.1317 4.0833 576.1317 4.1049 576.126 4.1319 576.1203 4.1535 576.1089 4.1751 576.0861 4.1913 576.0405 4.2183 576.0291 4.2345 576.0177 4.2615 576.012 4.2885 576.0006 4.3317 575.9949 4.3479 575.9264 4.3587 575.9093 4.3695 575.8751 4.4073 575.8351 4.4721 575.8009 4.5099 575.761 4.5423 575.6583 4.5963 575.6355 4.6125 575.6241 4.6287 575.6184 4.7745 575.607 4.7961 575.5728 4.8231 575.5443 4.8663 575.4872 4.9149 575.4758 4.9797 575.4644 5.0013 575.4188 5.0661 575.4074 5.0877 575.4017 5.1147 575.4017 5.1633 575.3846 5.2119 575.3846 5.2335 575.396 5.2767 575.4017 5.3037 575.3903 5.3253 575.3788 5.3469 575.3731 5.3685 575.4017 5.4333 575.4074 5.4603 575.4017 5.4818 575.3903 5.5034 575.356 5.5412 575.2306 5.6654 575.2134 5.6816 575.1849 5.7518 575.1564 5.795 575.1222 5.8274 575.0651 5.8706 575.0195 5.93 575.0024 5.9732 574.9682 6.065 574.9511 6.1676 574.934 6.2162 574.8883 6.308 574.8826 6.3296 574.8826 6.3836 574.9054 6.5023 574.9168 6.5779 574.9225 6.6049 574.9454 6.6697 574.9967 6.7291 575.0024 6.7507 575.0024 6.7723 574.991 6.7939 574.9796 6.8479 574.9796 6.8965 574.991 6.9235 575.0423 7.0099 575.048 7.0369 575.048 7.0855 575.0823 7.1449 575.088 7.1719 575.088 7.1989 575.0766 7.2475 575.0766 7.2691 575.0766 7.2961 575.0994 7.3392 575.1735 7.431 575.1963 7.4472 575.2363 7.4688 575.3104 7.4742 575.3389 7.4796 575.3788 7.5066 575.4131 7.539 575.4416 7.5768 575.4701 7.62 575.55 7.809 575.5842 7.9062 575.607 7.9548 575.664 8.0357 575.7439 8.1329 575.7952 8.2247 575.8237 8.2679 575.8523 8.3057 575.8865 8.3435 575.972 8.3867 575.9892 8.4083 576.012 8.4515 576.0291 8.4677 576.069 8.5001 576.1432 8.5703 576.2116 8.6567 576.2857 8.7862 576.3371 8.8402 576.4283 8.9266 576.4968 9.0022 576.5995 9.148 576.7249 9.3045 576.8219 9.4341 576.9702 9.6231 577.1071 9.7797 577.1698 9.8606 577.358 10.0334 577.398 10.0604 577.4379 10.082 577.5406 10.109 577.6661 10.136 577.7117 10.1468 577.8315 10.1954 577.8714 10.2116 577.8999 10.2116 578.0197 10.2062 578.0425 10.1954 578.0596 10.1792 578.1109 10.1198 578.1281 10.1036 578.1794 10.0874 578.2307 10.0766 578.2764 10.0766 578.3049 10.082 578.3277 10.0928 578.3904 10.1306 578.4304 10.163 578.4589 10.2008 578.4874 10.2386 578.4874 10.3142 578.5045 10.3627 578.5102 10.3843 578.5045 10.4113 578.4874 10.4869 578.4817 10.6165 578.4874 10.6381 578.5102 10.6867 578.5444 10.7191 578.6813 10.8324 578.7327 10.8918 578.7954 10.9728 578.8239 11.016 578.8353 11.0376 578.8353 11.0592 578.8296 11.0862 578.8182 11.1348 578.8125 11.1618 578.8182 11.178 578.8752 11.2536 578.8924 11.3021 578.8924 11.3507 578.9038 11.3993 578.8981 11.5127 578.8752 11.5505 578.881 11.5613 578.9095 11.5829 578.9779 11.6153 578.995 11.6315 579.0007 11.6531 579.0064 11.707 578.9893 11.8528 578.995 11.8744 579.0007 11.8852 579.0178 11.8852 579.092 11.8906 579.1376 11.9068 579.2631 11.9824 579.303 12.0148 579.3373 12.0526 579.3487 12.0688 579.3601 12.0904 579.3601 12.1173 579.3601 12.1389 579.343 12.1875 579.3315 12.2037 579.3144 12.2199 579.303 12.2415 579.303 12.2523 579.3144 12.2793 579.3258 12.2955 579.343 12.3063 579.3829 12.3063 579.4285 12.3171 579.4513 12.3279 579.4627 12.3387 579.4456 12.4035 579.4456 12.4791 579.4456 12.5007 579.457 12.5492 579.457 12.5708 579.4513 12.587 579.4342 12.6032 579.4171 12.614 579.4 12.6302 579.4 12.6464 579.4057 12.6572 579.5084 12.7004 579.5654 12.7436 579.6167 12.7976 579.6567 12.7976 579.6966 12.8246 579.8449 12.9865 579.8848 13.0189 579.9818 13.1215 579.9989 13.1431 580.0046 13.1647 580.0046 13.1863 580.0559 13.2619 580.0616 13.2834 580.0673 13.305 580.0559 13.4076 580.0616 13.5264 580.0673 13.548 580.0901 13.5966 580.1415 13.6775 580.1472 13.6991 580.1529 13.7207 580.1529 13.7477 580.1358 13.7963 580.0901 13.8827 580.0787 13.9313 580.0616 13.9475 580.0559 13.9691 580.0616 14.0122 580.0616 14.0338 580.0502 14.0608 580.0388 14.0824 579.9476 14.158 579.8848 14.1958 579.8734 14.212 579.8677 14.2336 579.8734 14.2444 579.8848 14.2552 579.9076 14.2552 579.9304 14.2552 579.9761 14.239 579.9989 14.239 580.0046 14.2444 580.0103 14.2606 580.0103 14.2822 580.016 14.293 580.0274 14.293 580.0445 14.3092 580.0445 14.32 580.0388 14.3685 580.0502 14.3847 580.0844 14.3955 580.2042 14.4009 580.3696 14.3901 580.421 14.3793 580.4324 14.3631 580.4381 14.3469 580.4381 14.3253 580.4324 14.3038 580.4153 14.2822 580.4039 14.2714 580.3297 14.2498 580.2955 14.2174 580.2727 14.1904 580.2613 14.158 580.2556 14.1094 580.2556 14.0446 580.2556 14.0068 580.2784 13.9313 580.2898 13.9097 580.3069 13.8935 580.3297 13.8881 580.3525 13.8935 580.3981 13.9043 580.421 13.9043 580.4438 13.8935 580.4495 13.8827 580.4438 13.8665 580.4153 13.8341 580.4096 13.8125 580.4153 13.7963 580.4381 13.7585 580.4609 13.7423 580.4723 13.7423 580.4894 13.7315 580.4894 13.6937 580.4951 13.6721 580.5122 13.6505 580.5693 13.6236 580.5978 13.6182 580.6434 13.6128 580.6605 13.602 580.6776 13.5858 580.689 13.5858 580.7176 13.5858 580.7404 13.5966 580.7632 13.5966 580.786 13.6074 580.7974 13.6451 580.8145 13.6613 580.8202 13.6883 580.8202 13.7099 580.8088 13.7855 580.7689 13.8773 580.7575 13.9205 580.7518 13.996 580.7632 14.0176 580.7917 14.0608 580.843 14.1094 580.8773 14.1472 580.8944 14.1634 580.94 14.1742 580.9628 14.1688 580.9856 14.1634 581.0027 14.1688 581.0199 14.185 581.0427 14.1958 581.1111 14.2174 581.1282 14.2336 581.1453 14.2552 581.1624 14.2984 581.1739 14.3092 581.2081 14.3092 581.2366 14.3361 581.2594 14.3469 581.2993 14.3469 581.3336 14.3685 581.3792 14.3793 581.402 14.3901 581.4191 14.4063 581.4248 14.4279 581.4305 14.4495 581.4362 14.4981 581.4248 14.6223 581.4134 14.6439 581.402 14.6654 581.3507 14.7464 581.345 14.7734 581.3393 14.795 581.345 14.8166 581.3507 14.8436 581.3621 14.849 581.4305 14.8544 581.5503 14.8652 581.7214 14.8652 581.7328 14.8652 583.6493 14.9785 584.2824 15.0325 584.3965 15.0595 584.4421 15.0811 584.5048 15.1189 584.676 15.2593 584.7159 15.3186 584.7672 15.432 584.8071 15.5454 584.8414 15.6641 584.8642 15.7343 584.887 15.8531 584.9212 15.9772 584.9954 16.1985 585.1037 16.6088 585.1037 16.6304 585.1037 16.6574 585.1037 16.679 585.098 16.706 585.0638 16.7923 585.0467 16.8139 585.0353 16.8301 585.0467 17.0083 585.0182 17.0191 585.1209 17.3267 585.0011 17.3645 584.887 16.9705 584.9155 16.9651 584.8186 16.6466 584.733 16.679 584.6988 16.5656 584.6018 16.5926 584.3965 15.8747 582.8394 16.3605 582.5428 15.3402 582.4971 15.3348 582.4971 15.2539 581.5332 15.1729 581.6245 15.8801 580.3582 16.0474 580.3525 16.0042 580.6548 15.961 580.5807 15.54 580.3753 15.5724 580.3696 15.5238 580.575 15.4968 580.5521 15.378 580.5008 15.324 580.2955 15.2593 580.2042 15.2755 580.2042 15.3132 580.1643 15.324 579.9647 15.5346 580.073 15.6317 580.227 15.4644 580.2613 15.4914 580.0787 15.6965 579.9304 15.567 579.8449 15.6587 579.7707 15.6479 579.7365 15.961 579.7023 15.9664 579.6966 16.0204 580.1643 15.9934 580.17 16.0582 580.1301 16.0636 580.1073 16.0798 580.0046 16.0906 579.9076 16.1662 579.8278 16.1824 579.7707 16.1176 579.6909 16.1176 579.6738 16.5548 579.6795 16.6034 579.7023 16.6736 579.7536 16.7546 579.7936 16.7815 579.8506 16.7923 581.0541 16.8625 581.0655 16.8625 581.0712 16.8679 581.0769 16.8787 581.0826 16.8841 581.0826 16.8949 581.0826 16.9057 581.0826 16.9165 581.0769 16.9219 581.0712 16.9273 581.0598 16.9327 581.0541 16.9381 580.9913 16.9381 580.9343 17.3753 581.0027 17.3807 581.0142 17.3807 581.0313 17.3861 581.0541 17.4023 581.0655 17.4185 581.0712 17.4347 581.0769 17.4563 581.0769 17.4725 581.0712 17.4833 581.0655 17.4995 581.0541 17.5103 581.0427 17.5211 581.0313 17.5265 581.0256 17.5319 581.0256 17.5373 581.0199 17.5481 581.0199 17.5535 581.0084 17.5643 581.0027 17.5697 580.9913 17.5697 580.9571 17.5697 580.9514 17.6614 580.9514 17.6668 580.9514 17.6722 580.9514 17.683 580.9457 17.6884 580.94 17.6884 580.94 17.6938 580.9343 17.6938 580.9286 17.6992 580.9229 17.6992 580.786 17.6884 580.7803 17.6884 580.7746 17.6884 580.7689 17.683 580.7632 17.6776 580.7575 17.6722 580.7575 17.6668 580.7575 17.6614 580.7575 17.656 580.7917 16.9921 580.4894 16.9759 580.4609 17.656 580.4153 17.6506 580.4438 16.9759 580.2898 16.9651 580.2613 17.6452 580.2156 17.6398 580.2498 16.9651 580.1529 16.9597 580.1187 17.6344 580.0673 17.6344 580.1016 16.9597 580.0787 16.9543 580.0787 16.9381 579.9989 16.9327 579.9361 17.8342 579.9418 17.8342 580.5407 17.8989 580.5864 17.9205 580.5921 17.9151 580.6092 17.9205 580.6092 17.9151 580.6149 17.9151 580.6263 17.9151 580.632 17.9151 580.997 18.0555 581.3107 17.3537 581.305 17.3429 581.2936 17.3321 581.2822 17.3106 581.2708 17.289 581.2708 17.2782 581.2651 17.262 581.2594 17.2404 581.2594 17.2242 581.2594 17.2026 581.2651 17.181 581.2708 17.1648 581.2765 17.154 581.2822 17.1432 581.2993 17.1162 581.3165 17.1 581.3279 17.0892 581.3393 17.0838 581.3564 17.073 581.3621 17.0676 581.3849 17.0622 581.4077 17.0568 581.4248 17.0568 581.4362 17.0568 581.4533 17.0568 581.4705 17.0568 581.4762 17.0622 581.4933 17.0676 581.5047 17.073 581.5275 17.0838 581.5389 17.0946 581.5503 17.1054 581.5731 17.1216 581.5845 17.1486 581.5959 17.181 581.6016 17.208 581.6073 17.2296 581.6016 17.2512 581.6016 17.2728 581.5959 17.2782 581.5959 17.289 581.5902 17.3052 581.499 17.4833 581.4533 17.5481 581.0427 18.4657 581.037 18.4711 581.0313 18.4819 581.0199 18.4981 581.0084 18.5089 580.9913 18.5197 580.9799 18.5305 580.9685 18.5359 580.9514 18.5413 580.9343 18.5467 580.9172 18.5467 580.9058 18.5467 580.883 18.5467 580.8716 18.5413 580.8487 18.5359 580.8373 18.5305 580.8259 18.5197 580.8088 18.5089 580.7974 18.4981 580.786 18.4819 580.7746 18.4657 580.7689 18.4441 580.7632 18.4279 580.7632 18.4117 580.7632 18.3901 580.7689 18.3686 580.7746 18.3524 580.7803 18.3416 580.786 18.3254 580.7974 18.3092 580.8088 18.2984 580.8202 18.2876 580.8316 18.2822 580.5921 18.1742 580.5464 18.2822 580.5407 18.2876 580.535 18.293 580.5293 18.3038 580.5179 18.3038 580.5122 18.3092 580.5008 18.3092 580.4951 18.3092 580.4837 18.3092 580.478 18.3092 580.421 18.2822 580.421 18.2768 580.4324 18.239 580.4267 18.239 580.4096 18.266 580.4039 18.266 580.3696 18.2498 580.381 18.2228 580.267 18.1796 580.2613 18.185 579.3772 17.8665 579.343 17.9583 579.3373 17.9799 579.3144 18.0501 579.3087 18.0987 579.303 18.1958 579.3087 18.32 579.303 18.3955 579.2973 18.4171 579.2802 18.4657 579.2574 18.5089 579.2346 18.5791 579.2061 18.6492 579.1661 18.768 579.1034 18.9839 579.0806 19.1027 579.0749 19.1566 579.0806 19.4535 579.0806 19.6046 579.0692 19.7288 579.0806 19.8529 579.0863 19.9987 579.1091 20.1444 579.1319 20.2146 579.149 20.2632 579.1604 20.2848 579.2061 20.3333 579.2859 20.3225 580.3069 20.2038 580.3069 20.2524 579.3487 20.3657 579.3144 20.3927 579.2859 20.4305 579.2745 20.4521 579.2631 20.5492 579.2289 20.614 579.2289 20.6356 579.2346 20.7328 579.2403 20.8299 579.2574 20.981 579.2802 21.1808 579.2916 21.2023 579.303 21.2239 579.3144 21.2455 579.3258 21.3211 579.3487 21.3913 579.4 21.5046 579.457 21.6665 579.5084 21.7799 579.5711 21.9418 579.6224 22.0497 579.6909 22.2117 579.7878 22.3844 579.805 22.4276 579.8335 22.4761 579.8734 22.5355 579.9533 22.6219 580.0559 22.8162 580.0901 22.8593 580.1985 22.9619 580.2327 22.9997 580.3582 23.1994 580.4495 23.3127 580.5864 23.4584 580.6434 23.507 580.7004 23.5556 580.7746 23.6204 580.7974 23.6312 580.8316 23.6365 580.8659 23.6365 581.4819 22.9997 581.5218 23.0267 580.8659 23.6959 580.8659 23.7661 580.883 23.8362 580.8944 23.8632 580.9457 23.9496 580.9742 23.9928 581.0084 24.0305 581.191 24.1601 581.3107 24.2788 581.3564 24.3436 581.3906 24.376 581.459 24.4137 581.5047 24.4353 581.5788 24.4515 581.71 24.4677 581.9268 24.5217 582.0693 24.5649 582.2119 24.6242 582.3831 24.6728 582.4344 24.6782 582.4857 24.6836 582.5884 24.6836 582.788 24.6674 582.885 24.6728 582.9591 24.689 583.0504 24.7268 583.1245 24.7591 583.2158 24.7915 583.2386 24.7969 583.2671 24.7969 583.2842 24.7969 583.3014 24.8347 583.347 24.743 583.4782 24.4461 583.558 24.2734 583.5865 24.2086 583.6037 24.1817 583.6094 24.1547 583.6436 24.0953 583.7291 24.009 583.8945 23.6473 584.0086 23.3883 584.0428 23.3127 584.6874 21.8662 584.7387 21.8878 584.3451 22.7838 584.3223 22.8378 584.1911 23.1238 584.02 23.4962 583.7691 24.0521 583.5865 24.4515 583.2557 25.1747 583.2899 25.2611 583.2899 25.2827 583.2443 25.3366 583.2158 25.4068 583.1873 25.45 583.1645 25.5201 583.1531 25.5417 583.1417 25.5633 583.1017 25.5957 582.885 25.7198 582.7595 25.8062 582.6911 25.8385 582.6112 25.8925 582.5428 25.9249 582.5028 25.9573 582.4857 25.9735 582.4857 25.9951 582.48 26.0706 582.4629 26.1678 581.8697 26.4214 579.0178 28.1807 578.2992 28.4991 576.3884 28.8985 576.069 29.001 575.9663 29.1143 575.7439 29.1899 575.4587 29.1737 575.356 29.1305 575.1963 29.1251 573.6107 29.4058 573.1886 28.5315 572.0307 25.817 571.563 25.3798 568.6313 23.0213 568.1351 22.5733 567.5818 22.2171 566.5552 21.1861 566.0304 20.8083 565.9962 20.614 566.0076 20.4251 566.0247 20.0742 566.019 19.6316 566.0532 19.27 566.0989 19.1944 566.1445 19.1458 566.2414 18.8598 567.5191 18.3524 567.3651 17.4509 565.2946 17.2566 565.3403 14.7518 566.1331 11.5343 566.3954 10.6975 566.886 9.2452 568.0609 6.5455 568.1978 6.1514 569.2644 3.7918 569.5097 3.3004 569.6808 3.1222 571.6942 1.7722 572.6696 1 Z"/>
</g>
</svg>