<?xml version="1.0"?>
<svg xmlns="http://www.w3.org/2000/svg" version="1.2" baseProfile="tiny" width="800" height="635" viewBox="0 0 800 635" stroke-linecap="round" stroke-linejoin="round">
<g id="recintos_municipales_inspire_canarias_wgs84">
<path d="M 30.188 515.376 32.9045 514.0178 34.1583 510.4488 35.172 510.55 38.342 508.1368 40.8807 504.8593 42.8636 501.2117 42.6946 497.4469 41.0718 495.9402 41.7476 494.3983 43.3304 493.7948 43.6683 490.6796 47.6964 490.8393 51.7111 494.5501 54.3343 499.5961 55.677 500.9548 57.0641 500.9003 57.5087 502.7455 59.6161 507.335 61.0833 508.5222 61.5235 512.5038 57.9667 514.6132 58.1089 515.7691 55.5747 515.9169 51.5866 513.7142 48.9235 516.6135 46.8961 514.8584 42.6546 519.1235 40.6361 520.3454 40.5205 521.6761 37.1416 523.3804 31.8953 523.4738 30.9349 522.5088 31.4551 520.6022 29.7256 517.9328 30.188 515.376 Z"/>
<path d="M 96.4779 551.7779 99.0833 552.5944 101.0796 554.3829 103.516 554.8067 105.4455 557.287 108.2021 559.0714 110.1138 557.8352 116.1337 558.2356 117.7876 559.4796 121.3889 559.1103 124.2966 562.2629 127.9023 567.654 129.5029 568.684 133.2597 569.3175 135.8962 568.8356 137.6035 567.3742 139.3819 567.7823 140.3556 569.2747 142.0762 568.9366 143.8946 570.017 148.8741 570.9148 147.687 573.9771 146.5978 575.0224 146.9223 577.5676 147.8071 579.4327 149.3765 580.0777 150.279 581.6863 149.2342 582.5721 149.7989 585.0857 148.0027 588.6248 145.264 588.0654 143.4944 590.8584 141.7472 591.3673 141.4093 589.8212 137.4434 586.8767 134.389 585.785 130.77 585.5908 128.3202 584.9109 126.7463 583.7066 120.513 583.252 118.7613 582.0437 117.672 582.4283 113.1238 581.83 109.6292 580.4701 107.5485 578.9004 106.6993 577.4006 107.0817 575.8462 105.6678 572.8074 105.1877 569.4224 104.7031 562.3756 105.5967 560.6925 105.1432 559.4991 103.0714 558.2628 97.176 553.1309 96.4779 551.7779 Z"/>
<path d="M 587.3791 392.7722 587.2101 391.4762 588.2327 387.8143 589.6154 386.7055 590.4157 384.6909 592.1852 382.3404 592.1319 375.206 591.4739 370.0193 592.6921 368.3867 601.4462 365.7149 601.5841 366.4336 605.1631 366.8203 607.186 366.0664 610.2227 366.0938 614.5175 364.3555 615.4467 365.6524 617.9409 365.7344 622.3514 363.9805 625.1523 364.0859 626.744 365.3594 630.6921 367.3359 633.0351 369.2225 638.188 370.531 640.7756 372.3315 655.114 375.7254 656.5144 376.4049 656.1854 377.9006 656.9991 381.1729 656.3055 382.6215 655.8431 386.5455 653.4823 386.8773 653.5312 388.2672 652.1218 390.1333 651.2104 394.5873 650.2767 395.9691 650.0633 398.0925 647.4402 401.2031 647.7425 404.1457 646.9022 407.9075 645.5239 410.5609 643.6566 412.82 641.896 412.6913 641.4781 414.7123 642.1138 416.7059 640.7311 417.5212 639.9931 420.4236 639.0995 421.0516 639.1706 423.2127 640.4377 424.0201 641.1491 426.3876 640.0909 429.617 638.9927 431.0951 636.872 431.8087 635.5071 435.1195 634.3467 440.1027 632.8839 440.6369 632.9773 440.0248 613.5483 408.9143 587.5836 393.1001 587.3791 392.7722 Z"/>
<path d="M 744.3097 157.1722 746.795 157.3607 750.1651 156.3357 753.5885 155.8213 754.3577 157.3097 754.3532 160.7024 755.2424 163.0309 756.7852 164.9155 758.5591 165.21 767.131 165.5672 766.8954 167.2672 765.6416 168.1152 763.9788 167.703 763.6009 169.2263 760.2975 169.8976 757.2742 173.6072 755.3491 174.7416 751.3122 175.1302 747.2707 176.4059 744.652 176.6885 742.7847 157.0033 744.3097 157.1722 Z"/>
<path d="M 21.3316 522.5322 23.0211 520.4932 23.0166 518.3102 27.7738 516.7575 30.188 515.376 29.7256 517.9328 31.4551 520.6022 30.9349 522.5088 31.8953 523.4738 37.1416 523.3804 40.5205 521.6761 40.6361 520.3454 42.6546 519.1235 46.8961 514.8584 48.9235 516.6135 51.5866 513.7142 55.5747 515.9169 61.0077 518.7344 62.1415 520.4543 64.689 522.2209 67.4678 523.5205 71.0379 524.5399 72.7363 526.6253 73.8745 527.4617 72.6829 528.4032 71.3091 527.8275 65.6405 533.1104 62.0259 533.9156 59.3983 533.7172 58.2601 532.8342 55.1923 532.8303 52.3602 536.8562 48.3855 537.8092 48.0343 539.0616 44.7754 537.0663 42.4412 537.1635 38.1997 539.54 36.7236 541.8618 33.896 541.189 32.0509 539.2716 29.0187 538.9332 29.6767 532.9898 29.0676 528.4655 25.9154 525.5826 23.9636 524.8511 21.3316 522.5322 Z"/>
<path d="M 91.2628 484.2967 90.1246 483.4009 90.4403 482.2987 91.9608 481.4496 91.8585 479.3619 92.9434 479.8098 97.3938 479.1827 98.9188 477.7765 99.9592 478.1076 101.782 476.3157 104.3429 477.1688 105.8146 479.2411 108.5533 478.9568 111.2298 480.9511 112.4791 480.4019 114.5287 481.4029 116.5205 483.8995 115.7736 485.7884 112.7281 488.9 112.4302 491.8829 111.5277 492.8602 111.6344 495.251 110.0827 495.0057 109.9982 496.8668 106.5659 498.8641 104.583 502.7961 101.5997 503.3956 98.3942 502.1071 95.1575 502.656 94.4106 500.5849 96.3801 497.3613 96.7314 494.2854 95.3442 493.1523 96.5846 489.2816 97.7184 487.8719 97.6161 485.212 96.7669 481.0368 94.2683 480.4058 90.4492 482.7622 91.2628 484.2967 Z"/>
<path d="M 555.9414 382.6176 554.8477 382.0319 554.9766 380.185 556.835 376.8852 557.1062 373.1556 558.6712 371.5895 561.1343 367.0352 562.4681 366.3946 564.9757 363.2109 568.0923 361.5193 572.0848 357.2725 573.7298 356.2762 577.4645 348.973 579.0562 349.6608 580.7545 349.2661 582.3818 350.1805 585.4762 349.8015 587.2368 348.7776 590.0289 351.2395 592.4875 350.7979 593.399 352.1031 593.688 354.7446 592.7632 357.5499 597.7561 361.3748 601.4462 365.7149 592.6921 368.3867 591.4739 370.0193 592.1319 375.206 592.1852 382.3404 590.4157 384.6909 589.6154 386.7055 588.2327 387.8143 587.2101 391.4762 587.3791 392.7722 586.3832 393.6505 583.1376 392.0578 579.8475 391.8431 577.4423 393.7208 575.1214 391.7299 572.8229 388.9894 571.9915 389.372 566.5407 388.9387 564.9979 385.2922 562.5393 382.9144 556.8528 382.2389 555.9414 382.6176 Z"/>
<path d="M 86.0076 505.2914 85.9276 502.5548 87.0213 500.655 86.9057 497.9764 87.3859 494.9434 88.4974 492.0075 90.2802 490.1968 91.5518 484.9355 91.2628 484.2967 90.4492 482.7622 94.2683 480.4058 96.7669 481.0368 97.6161 485.212 97.7184 487.8719 96.5846 489.2816 95.3442 493.1523 96.7314 494.2854 96.3801 497.3613 94.4106 500.5849 95.1575 502.656 92.9122 505.1552 86.0076 505.2914 Z"/>
<path d="M 43.6683 490.6796 42.4457 488.9623 45.4867 485.1068 45.1577 481.8897 44.0907 481.2042 46.6471 477.6557 43.9351 475.6106 42.2945 473.5615 42.4412 472.3149 45.8246 473.3706 47.643 472.6928 48.4389 470.9552 51.351 470.8539 53.2228 474.3679 56.744 475.1665 60.6787 472.4357 62.0614 472.459 64.8313 477.052 65.2759 479.7085 64.6712 480.4992 66.5963 483.027 63.9865 483.7437 65.7561 489.5776 65.8316 491.805 68.028 492.5254 67.8457 494.0011 66.2362 496.018 66.6141 497.0187 66.2318 501.1728 66.8853 502.5704 66.1384 504.9021 66.6853 507.8799 65.9961 509.3979 67.6634 511.7138 68.7038 511.8422 68.7882 515.053 72.2828 519.9874 72.1539 521.6139 73.0697 524.3998 72.7363 526.6253 71.0379 524.5399 67.4678 523.5205 64.689 522.2209 62.1415 520.4543 61.0077 518.7344 55.5747 515.9169 58.1089 515.7691 57.9667 514.6132 61.5235 512.5038 61.0833 508.5222 59.6161 507.335 57.5087 502.7455 57.0641 500.9003 55.677 500.9548 54.3343 499.5961 51.7111 494.5501 47.6964 490.8393 43.6683 490.6796 Z"/>
<path d="M 762.5027 43.5041 762.5027 45.3079 760.8622 49.061 759.0749 48.6632 759.9552 46.9699 759.1016 44.1146 760.711 42.4604 762.5027 43.5041 Z M 762.2538 107.3302 764.1656 105.0024 765.1037 100.3227 764.8102 95.9335 765.3749 93.8882 766.4375 93.3297 767.9269 90.8751 769.0606 87.0907 769.1095 84.5099 771.3147 80.835 772.9998 80.2212 773.2354 76.0462 778.2549 73.2639 782.6298 68.8874 783.5057 72.7169 784.8973 73.4764 787.2359 72.8782 788.094 74.1533 790.2236 75.0466 790.6904 76.3334 792.8156 76.5027 794.0694 79.0329 797.5817 79.7097 797.3016 80.7209 799 83.7899 798.2353 84.2659 798.6532 88.8413 798.0308 91.4534 796.6525 93.0819 796.4035 96.5156 795.5855 100.2205 794.4695 100.2283 790.5437 102.5211 788.9298 104.1255 785.742 108.6592 784.1059 110.1258 784.3371 114.9183 785.8087 116.3807 787.556 119.4036 788.832 119.9775 789.5967 124.8631 788.3074 127.9836 784.7016 126.6671 778.2283 123.4993 774.3691 120.9838 772.8708 118.3108 770.6701 116.6009 765.944 114.3011 762.9785 113.3969 762.2538 107.3302 Z M 776.0008 63.9199 775.8852 66.0849 772.3418 70.0996 770.6123 73.2718 767.8913 72.8507 765.0059 75.633 762.8584 75.0427 760.6132 76.5184 759.8263 74.9089 757.5632 75.6684 756.4295 73.925 756.3361 72.2013 757.3054 70.4145 761.3157 68.9031 763.5742 66.6714 762.9473 63.2586 764.0989 62.8138 765.4682 60.7195 764.4101 57.6487 767.2867 52.979 767.1711 50.7149 769.5052 48.5727 772.7375 50.8842 773.9379 52.9003 777.9037 52.6837 781.1271 56.2234 781.5139 58.4321 779.6954 60.1329 777.6325 60.2982 776.0542 62.55 776.0008 63.9199 Z M 764.4234 3.1448 766.0329 3.1054 767.7313 1.6663 770.3944 1 771.377 2.238 774.2491 3.3104 775.863 6.4329 773.8445 9.6457 771.5281 10.576 770.0432 12.9607 767.0555 12.3813 764.5612 13.6269 762.5917 12.4996 761.7469 8.9834 761.9737 7.0084 763.392 5.5261 764.4234 3.1448 Z"/>
<path d="M 96.4779 551.7779 97.7851 550.7242 100.9284 551.183 102.769 552.6177 106.2636 552.9715 108.4866 552.2561 113.2038 553.6597 117.8766 553.5392 120.7531 552.6255 122.7894 552.5361 125.3281 553.7919 131.8504 554.309 132.8507 555.8875 134.229 555.7903 135.3983 557.5942 137.23 558.014 142.5741 556.3851 148.7763 558.0957 151.1638 560.0977 149.8522 561.4816 148.9097 567.7357 148.8741 570.9148 143.8946 570.017 142.0762 568.9366 140.3556 569.2747 139.3819 567.7823 137.6035 567.3742 135.8962 568.8356 133.2597 569.3175 129.5029 568.684 127.9023 567.654 124.2966 562.2629 121.3889 559.1103 117.7876 559.4796 116.1337 558.2356 110.1138 557.8352 108.2021 559.0714 105.4455 557.287 103.516 554.8067 101.0796 554.3829 99.0833 552.5944 96.4779 551.7779 Z"/>
<path d="M 12.6174 587.1408 15.036 584.8993 18.4817 583.7182 21.4605 579.4832 21.9051 577.7814 26.2666 571.42 28.0406 570.841 28.4452 567.3664 27.2492 566.6746 29.0587 562.8732 31.8953 560.1249 33.9671 557.2171 37.2349 553.5664 39.9114 554.6473 42.4679 554.8067 44.2907 553.9008 49.337 553.9397 51.2576 556.5134 50.7463 560.3776 49.4214 561.8703 49.4792 565.0771 50.4574 566.2548 50.6041 568.136 52.7515 567.5841 54.4854 565.217 57.5354 567.3276 57.4865 569.0804 55.3569 570.9886 55.0056 576.67 55.6192 578.4419 54.9478 580.3808 55.0723 583.7959 57.7221 586.1463 57.7532 590.0427 58.5357 592.0742 58.0067 593.4453 58.9848 595.8107 58.1534 599.2051 56.6373 600.0906 57.3576 603.6555 56.2727 605.4146 54.4588 612.0423 55.9215 614.5347 55.2235 615.7304 56.2461 616.9377 56.3394 620.5827 55.1346 621.7821 54.9478 623.618 53.3917 625.1666 51.8756 625.5508 49.6571 622.7757 48.7101 619.9306 45.1444 619.0533 42.1522 616.6349 37.315 613.5681 35.9589 611.953 35.003 609.6973 33.7537 610.1632 31.4373 608.6568 30.3925 606.5406 28.7653 606.1523 27.5871 603.7332 24.6839 602.5294 23.2789 602.7973 21.1315 600.9488 19.3131 598.0167 16.5966 596.4904 15.0983 593.5502 15.3473 592.3267 12.8219 589.3473 12.6174 587.1408 Z"/>
<path d="M 72.2828 519.9874 71.2869 518.4892 70.3399 514.0956 71.2824 512.4065 71.0913 509.3941 75.0882 504.4817 75.3817 503.1621 77.9337 500.6628 79.1163 498.7512 80.2411 498.6111 82.6553 495.9869 83.2822 494.0128 81.4505 489.8852 81.9262 487.72 81.3615 485.247 81.5705 482.5129 82.7798 480.5771 82.1974 479.2723 85.0161 480.4837 86.7901 480.5849 91.8585 479.3619 91.9608 481.4496 90.4403 482.2987 90.1246 483.4009 91.2628 484.2967 91.5518 484.9355 90.2802 490.1968 88.4974 492.0075 87.3859 494.9434 86.9057 497.9764 87.0213 500.655 85.9276 502.5548 86.0076 505.2914 83.9713 506.2101 81.8195 508.744 81.1926 512.9942 79.8277 513.5469 78.8273 516.7497 78.7295 519.3648 76.9333 520.9991 74.9949 524.4465 73.8745 527.4617 72.7363 526.6253 73.0697 524.3998 72.1539 521.6139 72.2828 519.9874 Z"/>
<path d="M 592.3897 317.8147 594.3326 315.4602 594.346 313.9113 596.0844 311.8578 595.9376 308.8888 594.2837 305.0276 594.755 302.3671 596.6401 299.867 596.3778 297.2727 598.0584 295.1675 599.5433 291.8489 600.6015 290.62 600.7482 288.3226 603.0779 284.4985 604.1405 280.2474 601.9887 276.5831 602.6511 275.1854 601.0461 273.8777 600.8282 270.3263 601.3395 266.242 602.909 266.3673 604.7007 267.6126 606.2346 265.7916 606.568 264.2487 608.6799 262.8936 610.8006 262.5685 614.4152 258.6714 616.6694 259.8269 618.7412 259.0945 620.5418 257.5825 622.338 256.9323 624.2542 255.3224 626.664 254.9228 628.1178 255.9726 628.8781 254.1472 631.3412 252.2708 632.4082 252.3883 634.938 254.7818 637.6056 253.9239 639.8864 251.7498 641.7226 251.7028 643.1409 250.1631 647.6669 252.6038 649.1385 255.2676 651.1615 254.3392 652.0373 255.3224 650.9658 257.1047 651.3215 259.071 653.7713 259.5018 655.7275 261.421 658.3506 261.2447 660.7693 266.4378 661.4317 270.663 662.9612 273.952 662.4321 277.1194 662.7077 279.0221 661.9919 281.1478 662.9167 284.7647 663.0278 292.2872 663.2946 295.8523 665.4154 305.2427 664.2194 307.8756 665.7532 311.9125 663.7748 315.734 663.4058 319.9383 664.3261 321.0802 663.7348 322.6288 660.0268 322.1752 656.679 321.0685 653.1444 320.6774 646.2975 319.4494 643.7322 319.3673 641.0246 321.1389 637.4189 320.302 637.0143 318.4991 633.3019 318.8589 629.4561 319.7936 628.5402 320.65 626.2683 320.5171 622.916 319.3125 618.7367 319.7193 617.5319 320.5718 613.3927 321.7763 610.2538 322.0813 606.5769 321.9053 603.5225 321.221 599.41 321.0215 592.3897 317.8147 Z M 665.8688 257.6961 664.744 255.8199 663.2279 255.4595 661.3561 252.1689 664.5573 250.3355 665.4198 248.9329 666.8381 248.8585 667.7273 247.2287 668.9588 247.4441 669.4434 250.6097 668.3942 256.807 665.8688 257.6961 Z"/>
<path d="M 555.9414 382.6176 556.8528 382.2389 562.5393 382.9144 564.9979 385.2922 566.5407 388.9387 571.9915 389.372 572.8229 388.9894 575.1214 391.7299 577.4423 393.7208 579.8475 391.8431 583.1376 392.0578 586.3832 393.6505 585.7919 397.2533 586.0497 400.1064 587.7926 401.41 587.8504 402.4832 585.454 405.0394 582.6752 407.1388 581.9816 409.363 578.5182 411.8641 576.1129 412.3635 573.6276 414.5718 571.7336 414.9542 569.5417 418.9139 568.2657 418.871 562.5393 424.9094 560.5697 425.6778 558.5734 424.8197 556.7417 426.0561 554.3275 426.6334 554.6743 429.4883 557.2618 430.1591 558.7335 431.1419 561.3922 436.3829 559.8139 439.8805 561.6678 444.8787 560.9832 448.165 562.1925 450.9989 560.8453 453.5403 561.7523 458.6732 564.8156 461.5063 565.029 463.6574 561.4767 464.6627 561.1076 465.5589 556.635 466.1434 554.6298 468.5786 553.3849 468.0019 551.0285 469.276 546.4403 468.8825 540.6427 469.7513 539.0732 471.7967 536.5435 473.0668 535.5031 472.5019 533.5291 473.6901 531.1282 478.3296 529.1142 480.5732 528.1583 483.1712 526.2865 485.8546 524.1569 490.2474 522.1117 492.6266 519.8354 493.1406 518.3771 494.7098 516.8165 497.5949 513.771 500.6783 512.4861 502.9363 511.5214 503.275 507.6355 506.6577 503.2607 512.7607 499.486 516.8976 497.4142 517.9678 495.8981 517.9522 491.6477 516.1777 488.6422 515.9131 484.7031 513.9828 482.6534 514.9051 474.8818 512.5233 471.9564 512.5194 466.9368 510.3476 465.1051 510.0246 457.4313 506.9574 455.8351 507.0236 453.621 506.1322 449.3218 505.3148 440.8566 507.5919 439.5894 510.0674 438.7047 509.3707 440.0518 507.1482 441.11 506.6149 441.4657 504.4233 444.1199 503.3567 444.3645 499.1717 442.1815 496.8318 443.742 495.6871 444.9958 492.9109 446.2496 493.7208 446.6141 495.5547 448.1702 496.9291 450.3265 495.1965 454.5636 496.4736 456.6221 495.0213 458.2227 496.9447 459.8277 496.4385 464.9183 496.2828 471.9475 494.1335 480.635 491.8946 487.5796 488.9584 489.9982 487.3695 497.5609 483.658 502.985 480.3006 507.022 477.0364 508.6048 474.7225 513.7577 471.6214 518.8039 467.4448 520.2666 465.6641 525.8553 461.5297 527.1491 459.0317 529.9367 456.9935 533.5068 453.6962 533.867 452.4333 535.9388 449.6814 536.6991 446.8552 536.4012 443.6857 536.7435 440.9293 538.2152 436.8625 537.157 435.529 537.9351 433.8054 538.0551 431.5396 536.8102 426.8284 537.6372 422.296 538.7398 421.6641 537.8684 418.3717 539.4645 414.1778 539.8869 411.2203 541.3896 409.2772 543.377 408.6762 545.2576 406.9359 548.441 404.8442 548.5077 403.6423 550.3305 401.0353 550.4372 398.7755 552.1801 397.8739 553.7273 395.165 553.4116 388.5248 553.705 387.4278 555.6524 386.5103 555.0211 384.4605 555.9414 382.6176 Z"/>
<path d="M 109.158 516.3878 107.1439 515.7029 103.6049 515.7263 102.4801 514.7845 104.2896 512.9631 104.2673 511.1261 106.0013 508.1602 108.5622 505.3031 107.2284 503.1192 107.1795 501.7334 108.78 499.8686 109.9982 496.8668 110.0827 495.0057 111.6344 495.251 111.5277 492.8602 112.4302 491.8829 112.7281 488.9 115.7736 485.7884 116.5205 483.8995 118.5701 483.3347 122.0958 487.2138 123.7898 486.4855 126.5685 486.5634 127.6533 485.4612 129.4228 485.3093 132.2372 482.6376 134.1089 479.8643 133.6065 475.521 130.8456 473.3745 131.4947 471.0799 134.2112 470.0513 137.0922 467.0551 139.6398 467.963 141.7205 467.6474 143.2721 469.2799 142.6408 471.4461 144.9883 472.8019 142.872 473.8109 142.1073 476.7871 141.1336 476.6235 139.3774 479.3774 139.4308 482.1936 140.6223 483.2413 140.5156 486.2752 138.7328 486.2362 138.8128 479.6774 135.3716 479.4787 134.9759 485.5508 135.4561 487.1086 139.7198 492.9693 140.8224 497.7234 140.4178 500.4759 139.0973 503.0998 139.7242 506.6305 138.0347 511.1144 138.2437 512.5233 140.1155 514.7183 139.2085 516.4968 142.5963 520.4427 146.211 522.7267 143.9702 523.7773 142.3074 523.6139 139.2663 522.3532 138.9906 520.645 137.6391 519.9135 134.7536 521.2987 131.5391 521.9407 129.7074 524.1819 128.1824 525.0924 125.8483 525.0379 125.9816 523.9096 127.7334 522.9563 126.0439 520.7695 124.719 521.108 121.9936 518.2947 121.38 516.4073 118.8947 513.2044 115.3068 514.7728 112.4035 515.1464 109.158 516.3878 Z"/>
<path d="M 577.4645 348.973 577.9269 345.5808 579.2829 344.2402 579.9943 341.8482 582.0439 338.8697 583.5333 335.4415 584.1424 331.5516 585.4762 331.3444 585.7785 326.6994 587.877 325.8509 588.6151 322.3785 589.6154 321.8975 592.3897 317.8147 599.41 321.0215 603.5225 321.221 606.5769 321.9053 610.2538 322.0813 613.3927 321.7763 617.5319 320.5718 618.7367 319.7193 622.916 319.3125 626.2683 320.5171 628.5402 320.65 629.4561 319.7936 633.3019 318.8589 637.0143 318.4991 637.4189 320.302 641.0246 321.1389 643.7322 319.3673 646.2975 319.4494 653.1444 320.6774 656.679 321.0685 660.0268 322.1752 663.7348 322.6288 663.3791 324.7404 664.5484 325.4521 664.5484 327.3094 663.259 328.0015 662.7077 329.8939 660.7337 331.0277 660.3469 332.486 661.8674 334.124 661.5118 337.5368 660.1735 339.0222 659.0753 341.8013 659.0753 345.4166 657.4748 346.9916 654.536 347.3355 652.4997 349.1801 650.8458 354.2483 651.446 356.4169 653.5445 359.1088 654.3937 361.8475 653.7268 364.836 654.5004 367.3008 652.562 369.6561 652.5753 372.2691 653.9002 374.6475 656.5144 376.4049 655.114 375.7254 640.7756 372.3315 638.188 370.531 633.0351 369.2225 630.6921 367.3359 626.744 365.3594 625.1523 364.0859 622.3514 363.9805 617.9409 365.7344 615.4467 365.6524 614.5175 364.3555 610.2227 366.0938 607.186 366.0664 605.1631 366.8203 601.5841 366.4336 601.4462 365.7149 597.7561 361.3748 592.7632 357.5499 593.688 354.7446 593.399 352.1031 592.4875 350.7979 590.0289 351.2395 587.2368 348.7776 585.4762 349.8015 582.3818 350.1805 580.7545 349.2661 579.0562 349.6608 577.4645 348.973 Z"/>
<path d="M 719.421 155.8566 721.7729 149.6238 722.551 148.9678 725.2097 147.9152 728.6464 150.0008 731.8653 150.7942 736.2446 150.4957 740.2816 151.187 743.4027 155.354 744.3097 157.1722 742.7847 157.0033 744.652 176.6885 739.4947 178.4115 737.614 180.4446 730.8161 170.6984 728.9576 168.869 725.4853 163.9339 724.0315 161.3268 723.498 158.3542 721.8752 156.0294 719.421 155.8566 Z"/>
<path d="M 51.8756 625.5508 53.3917 625.1666 54.9478 623.618 55.1346 621.7821 56.3394 620.5827 56.2461 616.9377 55.2235 615.7304 55.9215 614.5347 54.4588 612.0423 56.2727 605.4146 57.3576 603.6555 56.6373 600.0906 58.1534 599.2051 58.9848 595.8107 58.0067 593.4453 58.5357 592.0742 57.7532 590.0427 57.7221 586.1463 55.0723 583.7959 54.9478 580.3808 55.6192 578.4419 55.0056 576.67 55.3569 570.9886 57.4865 569.0804 57.5354 567.3276 60.3675 566.0449 63.6442 563.0481 65.9294 560.1988 66.3385 558.7993 68.0947 557.0888 68.2414 554.5151 69.2062 553.4031 72.9586 552.8199 74.2568 551.9256 76.6754 547.6873 78.1337 547.349 78.2982 549.406 82.1929 552.3806 84.4026 551.4318 85.8787 549.0483 87.7727 548.6167 88.7108 548.2084 92.6988 550.277 93.5525 551.5718 94.5395 552.6099 97.176 553.1309 97.3494 555.2888 98.4698 556.1052 97.7451 560.1871 96.3668 561.5788 92.3743 562.9743 94.0771 566.7757 94.3572 573.3126 97.5628 575.4382 99.4345 577.2024 99.5901 578.7528 101.164 580.1632 99.3723 581.6901 100.1548 584.8798 102.0844 587.8129 102.5868 590.1631 104.7964 589.6814 106.4103 590.066 107.4373 591.3673 110.6207 592.8744 111.9189 592.8899 115.4757 591.6819 116.3205 592.0431 118.5524 590.4233 120.6909 591.3206 123.7186 594.4979 128.0046 600.1644 132.9574 604.1564 135.4516 607.1192 131.7614 609.1033 122.7138 610.5476 119.9173 611.6541 115.8181 611.9142 112.5503 613.3973 108.5933 616.5612 106.0102 615.9944 103.9695 616.9222 100.7016 619.4609 97.1048 621.4948 95.0819 621.4133 91.6896 622.9853 89.7334 625.0307 88.9909 627.8444 88.6708 631.9696 86.3588 633.1298 81.0636 633.0445 78.7517 633.6343 76.4042 631.9463 74.2079 629.6257 71.896 628.2675 69.1795 629.7266 65.4093 627.5379 62.7772 627.3865 61.3145 626.1174 59.3093 625.4848 55.8948 625.9467 53.7919 628.1821 51.8756 625.5508 Z"/>
<path d="M 12.6174 587.1408 10.1721 582.1059 8.2959 579.728 6.3974 574.4784 3.7965 571.4822 3.0629 569.5662 1.4179 568.0893 1.0044 564.6223 1.9514 562.9937 2.6317 560.1716 2.4494 557.3454 3.0541 556.3851 2.9562 553.2554 1.3335 549.5694 1 545.2491 1.3868 543.9736 3.392 541.6518 4.7346 538.9799 5.2904 535.1214 6.6109 532.6475 4.7569 529.4459 8.5493 527.8664 10.0743 528.5627 12.9909 528.1543 16.89 526.5358 18.8907 525.104 19.3576 523.8901 21.3316 522.5322 23.9636 524.8511 25.9154 525.5826 29.0676 528.4655 29.6767 532.9898 29.0187 538.9332 29.7256 542.0019 29.4322 546.8552 30.2147 548.6517 32.3043 550.9575 33.398 554.1652 33.9671 557.2171 31.8953 560.1249 29.0587 562.8732 27.2492 566.6746 28.4452 567.3664 28.0406 570.841 26.2666 571.42 21.9051 577.7814 21.4605 579.4832 18.4817 583.7182 15.036 584.8993 12.6174 587.1408 Z"/>
<path d="M 98.5498 520.0924 102.0132 519.2091 109.158 516.3878 112.4035 515.1464 115.3068 514.7728 118.8947 513.2044 121.38 516.4073 121.9936 518.2947 124.719 521.108 126.0439 520.7695 127.7334 522.9563 125.9816 523.9096 125.8483 525.0379 121.3622 526.0456 116.4627 526.0573 115.3824 527.9169 110.4873 529.4031 108.2732 529.2902 107.1528 531.5271 105.4233 529.0724 103.5649 527.3334 101.5286 523.6994 98.5498 520.0924 Z"/>
<path d="M 97.176 553.1309 103.0714 558.2628 105.1432 559.4991 105.5967 560.6925 104.7031 562.3756 105.1877 569.4224 105.6678 572.8074 107.0817 575.8462 106.6993 577.4006 107.5485 578.9004 109.6292 580.4701 113.1238 581.83 117.672 582.4283 118.7613 582.0437 120.513 583.252 126.7463 583.7066 128.3202 584.9109 130.77 585.5908 134.389 585.785 137.4434 586.8767 141.4093 589.8212 141.7472 591.3673 140.0577 591.542 138.3638 594.2921 138.5105 596.3467 137.15 597.6322 136.8121 600.9294 137.6702 602.4711 137.0255 605.3641 135.4516 607.1192 132.9574 604.1564 128.0046 600.1644 123.7186 594.4979 120.6909 591.3206 118.5524 590.4233 116.3205 592.0431 115.4757 591.6819 111.9189 592.8899 110.6207 592.8744 107.4373 591.3673 106.4103 590.066 104.7964 589.6814 102.5868 590.1631 102.0844 587.8129 100.1548 584.8798 99.3723 581.6901 101.164 580.1632 99.5901 578.7528 99.4345 577.2024 97.5628 575.4382 94.3572 573.3126 94.0771 566.7757 92.3743 562.9743 96.3668 561.5788 97.7451 560.1871 98.4698 556.1052 97.3494 555.2888 97.176 553.1309 Z"/>
<path d="M 62.0614 472.459 64.3378 471.9993 66.1784 470.0864 67.9746 470.9201 70.5222 473.7368 70.1754 474.3446 72.6918 476.6702 74.3146 479.3073 76.0486 478.6607 77.8625 480.1409 79.2719 480.3707 82.1974 479.2723 82.7798 480.5771 81.5705 482.5129 81.3615 485.247 81.9262 487.72 81.4505 489.8852 83.2822 494.0128 82.6553 495.9869 80.2411 498.6111 79.1163 498.7512 77.9337 500.6628 75.3817 503.1621 75.0882 504.4817 71.0913 509.3941 71.2824 512.4065 70.3399 514.0956 71.2869 518.4892 72.2828 519.9874 68.7882 515.053 68.7038 511.8422 67.6634 511.7138 65.9961 509.3979 66.6853 507.8799 66.1384 504.9021 66.8853 502.5704 66.2318 501.1728 66.6141 497.0187 66.2362 496.018 67.8457 494.0011 68.028 492.5254 65.8316 491.805 65.7561 489.5776 63.9865 483.7437 66.5963 483.027 64.6712 480.4992 65.2759 479.7085 64.8313 477.052 62.0614 472.459 Z"/>
<path d="M 722.0708 112.1899 723.1823 111.4075 725.5609 111.4547 725.7965 113.2318 727.9351 114.5881 729.1755 114.309 732.3588 110.3185 734.773 110.1533 737.8541 107.2083 740.3883 107.0628 744.1541 107.9515 748.5467 111.3957 748.7601 112.2253 751.5389 114.2696 753.9842 114.5055 756.5762 113.6092 759.0393 111.8164 762.2538 107.3302 762.9785 113.3969 765.944 114.3011 770.6701 116.6009 772.8708 118.3108 774.3691 120.9838 778.2283 123.4993 784.7016 126.6671 788.3074 127.9836 786.7779 132.3928 785.9865 133.1394 784.6794 136.9586 783.4123 137.5165 784.4527 141.3353 782.7943 143.8024 782.4831 145.6094 784.306 149.2192 783.9236 151.2498 782.7899 152.6873 780.1045 153.4571 780.2645 156.3357 777.9571 158.9943 776.0986 159.3713 776.8456 161.4289 773.8756 161.1776 771.4926 163.1251 769.4741 163.7847 768.5493 165.528 767.131 165.5672 758.5591 165.21 756.7852 164.9155 755.2424 163.0309 754.3532 160.7024 754.3577 157.3097 753.5885 155.8213 750.1651 156.3357 746.795 157.3607 744.3097 157.1722 743.4027 155.354 740.2816 151.187 736.2446 150.4957 731.8653 150.7942 728.6464 150.0008 725.2097 147.9152 722.551 148.9678 723.8447 146.9057 725.0096 140.4199 726.4012 134.5972 725.6409 131.2571 725.4142 125.095 722.3153 112.3157 722.0708 112.1899 Z"/>
<path d="M 29.0187 538.9332 32.0509 539.2716 33.896 541.189 36.7236 541.8618 38.1997 539.54 42.4412 537.1635 44.7754 537.0663 48.0343 539.0616 48.3855 537.8092 52.3602 536.8562 55.1923 532.8303 58.2601 532.8342 59.3983 533.7172 62.0259 533.9156 65.6405 533.1104 71.3091 527.8275 72.6829 528.4032 73.8745 527.4617 77.0178 528.092 78.4316 530.1228 78.6006 532.5852 79.7298 534.3318 79.8943 536.6968 80.9658 537.8597 80.9881 540.0145 82.6687 540.9868 86.7679 547.4424 87.7727 548.6167 85.8787 549.0483 84.4026 551.4318 82.1929 552.3806 78.2982 549.406 78.1337 547.349 76.6754 547.6873 74.2568 551.9256 72.9586 552.8199 69.2062 553.4031 68.2414 554.5151 68.0947 557.0888 66.3385 558.7993 65.9294 560.1988 63.6442 563.0481 60.3675 566.0449 57.5354 567.3276 54.4854 565.217 52.7515 567.5841 50.6041 568.136 50.4574 566.2548 49.4792 565.0771 49.4214 561.8703 50.7463 560.3776 51.2576 556.5134 49.337 553.9397 44.2907 553.9008 42.4679 554.8067 39.9114 554.6473 37.2349 553.5664 33.9671 557.2171 33.398 554.1652 32.3043 550.9575 30.2147 548.6517 29.4322 546.8552 29.7256 542.0019 29.0187 538.9332 Z"/>
<path d="M 100.9284 551.183 102.7246 551.9917 105.7523 549.5227 107.7975 549.6938 110.1183 547.8273 111.3632 548.0256 115.3601 545.3386 116.7695 542.5774 119.2415 542.3791 123.6386 540.6679 123.9631 538.1203 125.1636 537.1441 124.2032 535.3976 124.43 532.1729 122.5982 531.2626 120.2774 531.2198 116.4316 531.8656 113.3594 529.193 110.4873 529.4031 115.3824 527.9169 116.4627 526.0573 121.3622 526.0456 125.8483 525.0379 128.1824 525.0924 129.7074 524.1819 131.5391 521.9407 134.7536 521.2987 137.6391 519.9135 138.9906 520.645 139.2663 522.3532 142.3074 523.6139 143.9702 523.7773 146.211 522.7267 148.1939 523.4932 149.4121 526.4152 149.3721 528.197 150.6169 528.9401 152.3198 531.6049 153.2134 535.9383 155.1074 537.6925 153.0622 538.8088 151.7151 540.8273 152.551 542.3052 150.8126 543.923 149.7011 546.4896 150.9949 548.5389 150.5191 550.2226 151.8618 551.1169 150.777 553.1037 152.8088 554.9505 154.9829 555.2227 154.5517 556.8205 157.3393 558.0451 158.2329 560.1793 157.2637 560.8752 153.6091 558.4611 151.1638 560.0977 148.7763 558.0957 142.5741 556.3851 137.23 558.014 135.3983 557.5942 134.229 555.7903 132.8507 555.8875 131.8504 554.309 125.3281 553.7919 122.7894 552.5361 120.7531 552.6255 117.8766 553.5392 113.2038 553.6597 108.4866 552.2561 106.2636 552.9715 102.769 552.6177 100.9284 551.183 Z"/>
<path d="M 88.6307 524.6605 88.7375 523.3843 90.1646 522.2248 90.667 519.3414 88.8353 516.6602 89.3999 512.8424 90.2847 512.2859 91.6585 509.4174 92.9122 505.1552 95.1575 502.656 98.3942 502.1071 101.5997 503.3956 104.583 502.7961 106.5659 498.8641 109.9982 496.8668 108.78 499.8686 107.1795 501.7334 107.2284 503.1192 108.5622 505.3031 106.0013 508.1602 104.2673 511.1261 104.2896 512.9631 102.4801 514.7845 103.6049 515.7263 107.1439 515.7029 109.158 516.3878 102.0132 519.2091 98.5498 520.0924 96.0867 522.6022 92.401 524.2208 91.5251 525.1546 88.6307 524.6605 Z"/>
<path d="M 706.0563 189.4781 705.4827 182.4186 704.6069 180.9077 704.0867 172.5905 707.6257 163.8711 713.1032 160.4433 719.421 155.8566 721.8752 156.0294 723.498 158.3542 724.0315 161.3268 725.4853 163.9339 728.9576 168.869 730.8161 170.6984 737.614 180.4446 736.3202 182.5678 734.0216 184.7536 732.8435 184.2631 730.1847 186.2056 727.6772 186.3586 725.7298 188.6502 721.1816 189.1838 720.5458 188.7247 716.0731 188.9876 715.015 188.1008 711.0402 189.0112 709.5242 188.7051 706.0563 189.4781 Z"/>
<path d="M 670.7461 144.4231 673.4359 142.4942 674.3296 140.361 676.4859 138.1255 678.58 137.2769 681.3676 134.495 683.9952 134.3575 686.1159 133.0097 687.0541 129.87 689.2504 128.6832 690.9443 129.0761 698.9071 126.3998 701.1434 127.7871 703.6377 128.4317 705.1004 125.3112 706.1585 124.1635 708.8484 124.3601 711.8139 122.4577 712.5786 121.3847 712.5474 119.27 717.6781 117.0726 718.8163 115.6849 718.554 113.8136 720.2035 111.6827 722.0708 112.1899 722.3153 112.3157 725.4142 125.095 725.6409 131.2571 726.4012 134.5972 725.0096 140.4199 723.8447 146.9057 722.551 148.9678 721.7729 149.6238 719.421 155.8566 713.1032 160.4433 707.6257 163.8711 691.3756 159.2142 670.7461 144.4231 Z"/>
<path d="M 565.029 463.6574 564.8156 461.5063 561.7523 458.6732 560.8453 453.5403 562.1925 450.9989 560.9832 448.165 561.6678 444.8787 559.8139 439.8805 561.3922 436.3829 558.7335 431.1419 557.2618 430.1591 554.6743 429.4883 554.3275 426.6334 556.7417 426.0561 558.5734 424.8197 560.5697 425.6778 562.5393 424.9094 568.2657 418.871 569.5417 418.9139 571.7336 414.9542 573.6276 414.5718 576.1129 412.3635 578.5182 411.8641 581.9816 409.363 582.6752 407.1388 585.454 405.0394 587.8504 402.4832 587.7926 401.41 586.0497 400.1064 585.7919 397.2533 586.3832 393.6505 587.3791 392.7722 587.5836 393.1001 613.5483 408.9143 632.9773 440.0248 632.8839 440.6369 631.2256 443.9742 630.1096 444.3875 628.1312 446.9877 624.1075 449.1357 620.6219 449.3384 618.0743 448.7497 614.5219 448.6523 610.7695 449.4319 608.5687 452.749 606.1057 453.817 604.1316 455.9996 602.7445 456.6466 601.6063 455.3994 599.5611 455.8243 597.6582 457.1572 595.8576 456.9389 593.2434 458.3419 587.2768 458.6654 584.4892 459.8657 583.2399 458.9109 576.7131 461.6232 572.2849 462.1337 570.7332 463.6457 568.5858 462.6559 565.029 463.6574 Z"/>
<path d="M 93.5525 551.5718 95.2597 548.0023 95.6288 542.3402 94.9307 540.3412 96.3223 537.3774 99.6613 534.8725 100.8928 535.0553 102.729 533.441 105.1032 533.9156 107.1528 531.5271 108.2732 529.2902 110.4873 529.4031 113.3594 529.193 116.4316 531.8656 120.2774 531.2198 122.5982 531.2626 124.43 532.1729 124.2032 535.3976 125.1636 537.1441 123.9631 538.1203 123.6386 540.6679 119.2415 542.3791 116.7695 542.5774 115.3601 545.3386 111.3632 548.0256 110.1183 547.8273 107.7975 549.6938 105.7523 549.5227 102.7246 551.9917 100.9284 551.183 97.7851 550.7242 96.4779 551.7779 97.176 553.1309 94.5395 552.6099 93.5525 551.5718 Z"/>
<path d="M 73.8745 527.4617 74.9949 524.4465 76.9333 520.9991 78.7295 519.3648 78.8273 516.7497 79.8277 513.5469 81.1926 512.9942 81.8195 508.744 83.9713 506.2101 86.0076 505.2914 92.9122 505.1552 91.6585 509.4174 90.2847 512.2859 89.3999 512.8424 88.8353 516.6602 90.667 519.3414 90.1646 522.2248 88.7375 523.3843 88.6307 524.6605 86.2655 526.7303 82.7976 529.0413 78.4316 530.1228 77.0178 528.092 73.8745 527.4617 Z"/>
<path d="M 78.4316 530.1228 82.7976 529.0413 86.2655 526.7303 88.6307 524.6605 91.5251 525.1546 92.401 524.2208 96.0867 522.6022 98.5498 520.0924 101.5286 523.6994 103.5649 527.3334 105.4233 529.0724 107.1528 531.5271 105.1032 533.9156 102.729 533.441 100.8928 535.0553 99.6613 534.8725 96.3223 537.3774 94.9307 540.3412 95.6288 542.3402 95.2597 548.0023 93.5525 551.5718 92.6988 550.277 88.7108 548.2084 87.7727 548.6167 86.7679 547.4424 82.6687 540.9868 80.9881 540.0145 80.9658 537.8597 79.8943 536.6968 79.7298 534.3318 78.6006 532.5852 78.4316 530.1228 Z"/>
<path d="M 670.7461 144.4231 691.3756 159.2142 707.6257 163.8711 704.0867 172.5905 704.6069 180.9077 705.4827 182.4186 706.0563 189.4781 702.7307 190.3296 698.7559 192.2364 697.1776 193.7862 693.7231 194.0686 691.7624 197.2503 691.8735 197.9329 689.6905 203.4677 689.9929 205.6015 688.3345 206.3584 681.5366 214.6018 681.6166 215.8605 678.291 218.0797 677.3973 219.4756 676.2769 215.6644 675.0632 213.5979 673.805 213.4175 672.4445 211.8293 669.399 212.8293 666.7403 210.8921 663.2457 210.4293 659.9423 213.0018 657.7593 211.0489 655.3585 210.6136 652.1663 211.1744 649.4764 213.2411 647.7692 211.4921 648.525 205.8956 646.1152 201.7026 648.9785 198.537 652.7087 197.8074 654.1714 196.9639 654.3492 194.5826 656.1454 193.2761 657.9016 190.1491 659.102 190.0981 661.494 187.6496 663.5302 184.7772 661.9653 181.0961 662.4321 177.5834 662.0942 174.6121 663.0367 173.3089 661.8941 172.0056 661.8674 170.0821 663.6014 167.1259 662.5699 165.3906 662.023 162.2888 663.3035 155.7781 665.7488 151.9489 667.376 148.7872 668.4208 145.7115 670.7461 144.4231 Z"/>
</g>
</svg>