<?xml version="1.0"?>
<svg xmlns="http://www.w3.org/2000/svg" version="1.2" baseProfile="tiny" width="800" height="543" viewBox="0 0 800 543" stroke-linecap="round" stroke-linejoin="round">
<g id="recintos_municipales_inspire_canarias_wgs84">
<path d="M 578.059 328.7922 576.9332 327.29 576.302 323.3594 576.9701 320.5897 580.1212 314.2065 582.0571 309.1638 582.0466 307.8316 584.4875 304.7199 587.5281 293.0274 594.2723 294.3185 600.6166 291.7777 602.8366 290.2652 603.9045 287.5121 603.3521 292.9167 605.4037 295.4528 605.9193 299.2613 605.7878 304.6462 606.7768 306.0153 604.7304 311.6991 606.1928 314.7273 604.5463 317.5157 602.8944 318.4605 603.3047 322.7879 602.1948 325.7832 595.0087 330.7412 594.8036 335.929 587.7596 332.1972 582.4832 332.446 578.059 328.7922 Z"/>
<path d="M 126.1976 117.4249 129.6275 116.5131 132.8313 112.2269 134.783 111.5326 137.1976 109.4032 140.7801 108.269 141.4429 107.1765 144.573 105.8756 146.4458 103.5376 150.8436 101.3477 155.0995 100.968 156.9512 102.107 160.1655 102.2181 161.4964 105.996 159.4816 109.6809 159.7604 115.2032 158.9187 118.1747 159.55 119.2994 157.7508 123.0435 157.2406 125.9405 157.6246 129.2444 155.21 131.2989 153.3424 135.204 151.1014 136.7261 147.2086 140.9268 145.967 145.8765 143.2315 152.1992 140.012 148.9293 136.2717 147.2271 131.4793 146.08 126.2607 144.0771 126.7552 136.5781 128.7175 136.1617 127.6759 133.3394 126.7921 130.4105 126.5869 127.2593 127.6864 124.6262 127.1445 118.7301 126.1976 117.4249 Z"/>
<path d="M 2.4046 509.6754 18.6967 507.5913 26.998 505.9295 38.261 503.3173 42.9114 503.9096 46.1677 501.8895 54.1218 502.7389 56.2313 503.3311 62.1916 503.6111 72.7339 501.6095 73.6755 500.4984 75.0538 506.4987 75.9902 507.4215 79.215 518.1667 76.8687 521.1682 76.6478 523.94 74.6435 527.2256 75.0591 528.905 75.4168 537.4068 72.3972 541.6089 69.0304 542.3704 65.8845 541.141 64.3116 538.3839 60.1978 537.2416 56.1734 532.1444 56.2208 530.1485 52.6067 526.4134 52.9329 524.945 49.0716 520.9663 44.0582 518.1025 35.5676 516.1473 31.3117 516.1886 25.525 514.4583 21.9268 514.5133 15.2773 512.6223 10.3429 513.4439 6.7867 513.1914 2.4046 509.6754 Z"/>
<path d="M 532.0285 312.7915 535.7215 311.0353 537.6574 311.1505 541.2504 309.6755 543.3336 309.9705 550.4144 307.9423 551.5875 308.288 557.3111 305.9278 561.7669 303.2263 564.0868 303.028 565.0968 301.3637 571.6147 295.3468 572.5722 293.5715 578.8691 289.366 579.6004 287.9317 581.1102 289.3706 586.2919 291.0722 587.5281 293.0274 584.4875 304.7199 582.0466 307.8316 582.0571 309.1638 580.1212 314.2065 576.9701 320.5897 576.302 323.3594 576.9332 327.29 578.059 328.7922 576.6544 331.4554 575.4129 337.1637 575.4392 339.9922 572.4459 344.6815 570.4048 345.1053 568.269 349.0066 564.8075 351.1528 563.4082 352.9397 558.9787 352.5483 559.2418 350.0198 558.0476 348.371 557.874 345.308 556.8429 343.2444 552.3556 340.393 551.3666 338.5181 548.973 336.7675 549.115 335.5098 547.1581 333.2845 545.0433 333.3306 543.26 331.87 542.8812 329.8105 540.7191 328.4604 540.3088 326.3777 538.2361 324.5068 537.4733 321.5483 535.7899 320.4561 533.9171 317.2392 533.4542 314.5614 532.0285 312.7915 Z"/>
<path d="M 372.2265 292.4233 371.9793 292.5248 371.9004 292.4279 371.9845 292.3818 372.0687 292.4325 372.2265 292.4233 Z"/>
<path d="M 359.58 331.225 355.8029 326.138 354.393 325.3685 356.5656 317.147 356.4131 313.6119 358.7909 312.5979 359.1644 309.4312 360.7321 307.7533 360.0903 306.0015 361.8894 303.5075 363.6096 302.6177 365.1299 300.1189 364.8248 297.6937 362.6154 295.545 362.6627 291.8838 363.3045 293.3732 365.4719 292.6354 371.8846 292.6723 373.7679 294.8534 376.0037 293.8297 379.2021 295.047 379.1179 296.103 382.2217 299.0769 382.711 301.8339 380.0123 301.5942 376.9558 304.9919 375.1672 305.1994 370.6536 308.7121 366.0032 315.9395 362.9836 318.7463 361.5159 322.1428 361.7526 324.7925 360.4059 326.4652 360.9162 328.1056 359.58 331.225 Z"/>
<path d="M 342.0621 365.2852 342.0305 365.3036 342.0148 365.2759 342.0621 365.2852 Z"/>
<path d="M 339.1635 361.1919 341.0942 356.5318 343.7402 354.9062 346.4968 351.162 351.1682 348.0347 351.3261 346.4963 353.8091 344.4328 357.3442 339.0248 359.0539 333.0495 361.6211 335.1274 362.8258 339.4578 364.6091 344.1334 366.6976 348.3848 372.4738 358.0837 372.8788 360.1328 375.2619 362.1634 375.5355 363.9269 377.7291 367.3984 379.6703 369.1433 377.3872 369.9996 377.403 371.4083 373.2944 371.4958 372.3317 370.1838 369.875 370.8053 363.2098 371.1413 363.052 372.2047 359.601 373.4431 357.4652 372.6006 357.0286 371.1735 354.5771 370.5751 350.7842 371.2932 348.8167 370.8651 347.8067 367.3846 345.4394 365.3036 341.7254 364.728 341.2309 362.1174 339.1635 361.1919 Z"/>
<path d="M 656.4476 233.6625 657.284 231.0215 657.2735 228.1449 660.1458 225.7668 663.2338 224.4831 663.3232 221.6845 664.5174 217.2186 666.6795 212.8492 671.5666 208.969 671.1247 212.3411 673.1764 213.3619 679.0893 218.1469 680.4834 220.1374 682.6087 221.3336 684.8602 223.8135 685.4284 225.5313 688.8425 227.3414 689.9367 228.8698 694.3767 230.7122 702.5044 231.6079 703.9984 235.7724 698.8061 236.9728 691.1624 236.1372 686.1333 233.9672 675.1807 234.8814 668.7522 233.2054 663.1233 233.7179 656.4476 233.6625 Z"/>
<path d="M 611.1957 285.5382 613.705 284.6988 618.2449 279.9759 619.5127 277.6881 623.0584 276.1751 629.6079 271.2391 632.8484 262.5191 632.0856 257.5863 635.5261 254.9467 643.2382 261.5732 646.1631 264.6508 653.0229 270.8239 655.6322 272.3186 657.2735 275.0403 660.3089 277.0653 661.3031 279.0257 664.0597 281.6871 667.0583 285.5613 672.0822 287.1846 671.9506 288.2038 674.6493 291.5933 680.2361 296.5133 678.7053 298.4406 677.6532 305.5774 679.5786 307.7486 677.2218 309.1869 675.9066 313.3077 679.4576 315.7367 677.0219 319.0643 673.7393 319.1933 672.6924 322.5345 670.2988 322.5299 670.2567 324.8754 667.3318 326.797 664.3648 329.8012 665.1276 331.612 660.9928 334.4225 659.9091 337.1222 657.3735 339.9968 652.8809 332.7362 651.3553 331.8654 648.5251 326.3638 645.4318 324.5897 642.3859 324.1796 640.1186 320.4745 640.2028 318.5896 638.3773 316.6124 636.352 313.1095 632.1751 310.5098 628.3401 307.0987 624.0684 300.792 622.6954 297.0851 619.8442 293.2164 617.3401 293.1104 615.2358 291.704 611.1957 285.5382 Z"/>
<path d="M 558.9787 352.5483 563.4082 352.9397 564.8075 351.1528 568.269 349.0066 570.4048 345.1053 572.4459 344.6815 575.4392 339.9922 575.4129 337.1637 576.6544 331.4554 578.059 328.7922 582.4832 332.446 587.7596 332.1972 594.8036 335.929 594.3512 342.5442 595.7031 347.2702 594.9141 350.9087 596.3975 355.3022 595.8504 378.0739 596.024 378.4973 593.1623 380.5594 591.9471 378.9162 589.2115 379.5652 587.9805 378.4927 585.2871 378.8334 583.2986 380.0991 580.5999 382.9528 577.7592 383.031 574.5133 382.1519 571.3622 380.1912 569.1843 377.3328 569.2948 373.6732 570.268 370.3127 568.1585 366.2704 568.39 363.6783 566.4015 360.3676 563.9816 360.8603 562.719 359.2441 560.5516 359.5802 557.6899 358.0883 557.7477 355.7673 559.1839 353.9989 558.9787 352.5483 Z"/>
<path d="M 117.1809 44.2339 119.7376 40.5067 117.949 39.7974 119.1221 30.6633 119.3272 27.0927 123.3464 17.6546 123.7514 14.4355 123.2306 11.0352 126.1082 11.2022 131.958 9.843 133.5362 8.8502 136.3664 9.1842 139.2808 7.4492 141.0536 8.0337 143.1526 7.4306 150.67 9.0219 151.9484 14.7092 153.8422 18.1324 149.881 22.251 146.5036 23.6655 144.6466 25.4 142.8633 24.9084 138.6863 26.3553 136.7925 28.2103 136.9293 29.6385 133.9728 30.5057 132.4052 31.8133 131.9475 33.9787 130.5219 34.7947 126.4712 39.5795 125.1192 42.12 122.0891 45.3094 121.1685 47.1265 117.1809 44.2339 Z"/>
<path d="M 128.5281 109.3384 131.5108 101.5236 132.3999 97.5463 132.2 91.5634 131.2426 83.7735 130.201 81.6845 130.4166 79.299 128.8963 76.6539 133.1679 76.8299 134.1254 77.7333 139.1703 79.5491 140.6801 81.3927 143.5629 82.0875 147.2349 80.4755 149.9178 77.2561 151.7537 76.9736 153.9632 77.8583 152.4797 80.7859 154.342 82.0597 154.2157 84.5794 155.252 87.1499 151.3644 91.5727 150.6911 94.4068 148.2344 96.7313 143.0842 99.8753 142.6949 101.9218 138.0393 105.7876 134.2885 107.2367 130.6797 107.7228 128.5281 109.3384 Z"/>
<path d="M 126.1976 117.4249 125.9925 113.8933 127.5601 113.0416 128.5281 109.3384 130.6797 107.7228 134.2885 107.2367 138.0393 105.7876 142.6949 101.9218 143.0842 99.8753 148.2344 96.7313 150.6911 94.4068 151.3644 91.5727 155.252 87.1499 156.8565 87.9558 157.6509 90.2482 157.1301 91.8969 158.9766 93.9946 158.5136 98.3056 159.813 99.1345 160.1655 102.2181 156.9512 102.107 155.0995 100.968 150.8436 101.3477 146.4458 103.5376 144.573 105.8756 141.4429 107.1765 140.7801 108.269 137.1976 109.4032 134.783 111.5326 132.8313 112.2269 129.6275 116.5131 126.1976 117.4249 Z"/>
<path d="M 512.4117 261.1395 509.734 260.3689 508.1506 256.6541 508.9607 254.7851 507.0143 253.6083 505.4571 250.8438 501.5485 247.7053 500.9014 242.9279 497.9923 241.1922 495.8828 238.5286 492.0215 232.1943 485.7666 230.195 484.4199 226.815 487.55 221.9616 492.2845 220.433 495.4882 221.4213 500.933 219.3338 503.3739 217.7266 505.2467 217.5696 506.1042 215.9946 509.1501 214.7475 511.4595 213.094 513.8373 210.1377 516.7359 210.4565 519.24 208.2345 521.0812 208.1976 519.7818 215.833 519.3767 219.8834 519.9764 223.5364 519.0611 225.7299 519.7818 227.951 519.5083 232.9561 520.9917 238.1408 523.1749 241.6169 525.6158 242.7987 522.4121 246.3483 523.6326 247.2437 524.5111 252.3668 521.623 252.6576 519.7082 254.5267 517.6144 255.1543 513.1745 259.2614 512.4117 261.1395 Z"/>
<path d="M 671.5666 208.969 672.6293 208.9182 676.0855 207.0427 679.6943 206.322 679.6627 203.5086 681.7828 200.6303 685.8492 198.5141 686.6383 198.3432 688.3059 198.1861 690.2313 199.7108 696.3179 198.4356 702.1992 200.9213 702.1992 202.0717 706.1815 204.5527 709.0907 204.5296 713.82 206.4606 711.116 208.5625 709.9744 210.7013 706.6918 212.2487 704.3193 215.4912 704.535 218.7057 703.3198 221.7215 701.4785 223.6657 701.468 228.5974 702.5044 231.6079 694.3767 230.7122 689.9367 228.8698 688.8425 227.3414 685.4284 225.5313 684.8602 223.8135 682.6087 221.3336 680.4834 220.1374 679.0893 218.1469 673.1764 213.3619 671.1247 212.3411 671.5666 208.969 Z"/>
<path d="M 635.5261 254.9467 638.0617 251.3377 640.4342 250.6361 641.0918 248.4069 643.8221 247.4191 645.4844 249.1546 648.7934 255.9435 656.8421 258.9015 665.8904 264.2079 667.3949 267.6313 668.8837 267.8067 671.4298 270.9208 679.0946 273.6887 683.0295 277.3237 686.5226 278.4122 685.2916 283.4167 679.5575 292.6723 681.1567 294.2632 680.2361 296.5133 674.6493 291.5933 671.9506 288.2038 672.0822 287.1846 667.0583 285.5613 664.0597 281.6871 661.3031 279.0257 660.3089 277.0653 657.2735 275.0403 655.6322 272.3186 653.0229 270.8239 646.1631 264.6508 643.2382 261.5732 635.5261 254.9467 Z"/>
<path d="M 2.4046 509.6754 1 507.6831 1.4156 503.8177 2.6781 501.7747 4.451 500.7647 4.4141 493.455 3.1253 492.206 4.693 488.445 6.3974 488.5827 8.8278 487.2418 12.0631 483.4528 16.4294 484.5551 16.5294 486.337 19.2438 488.6241 22.4528 489.8824 24.5097 489.9099 31.6747 491.4207 36.0989 491.4161 40.3337 490.1625 41.349 489.3037 48.3351 487.4117 55.3896 482.7593 57.3939 480.5225 58.1146 478.2994 61.4393 475.6995 64.7325 474.7578 68.1098 470.83 69.1935 467.4579 68.7832 465.1515 66.9314 460.9794 68.5254 462.1741 71.3556 466.732 72.0763 473.5864 68.6306 482.7226 70.5981 484.7296 71.9711 488.5276 71.4503 490.2635 68.0309 495.5993 65.4058 497.6701 57.9252 502.4772 54.1218 502.7389 46.1677 501.8895 42.9114 503.9096 38.261 503.3173 26.998 505.9295 18.6967 507.5913 2.4046 509.6754 Z"/>
<path d="M 107.7591 137.4386 112.8409 135.9859 121.4578 136.3791 126.8289 135.7499 127.6759 133.3394 128.7175 136.1617 126.7552 136.5781 126.2607 144.0771 131.4793 146.08 136.2717 147.2271 140.012 148.9293 143.2315 152.1992 139.5596 156.5558 138.539 159.4738 135.3353 162.7245 131.6844 173.0949 129.9537 175.1243 129.3066 179.0581 126.1713 181.323 123.6936 179.5712 119.6061 177.75 115.3292 171.9114 115.103 167.5424 112.4306 163.0297 111.9939 159.7975 112.8304 156.1581 112.0255 154.3822 112.4621 150.4232 111.3837 148.0736 110.7314 142.458 109.6161 141.6623 109.0217 138.5489 107.7591 137.4386 Z"/>
<path d="M 534.5116 220.0543 534.4484 216.6643 535.5163 216.0223 537.568 215.7406 540.4455 216.632 546.469 215.8468 550.5512 215.9346 552.8027 217.5557 555.8802 213.8469 556.8482 213.542 557.4479 218.1284 556.3589 220.2206 556.4115 224.6585 554.6492 228.8237 554.907 230.7122 558.6789 245.2405 559.5048 247.5576 560.9567 248.8869 561.3092 251.2038 564.5655 255.2143 571.7673 261.6563 568.4794 260.4981 554.8333 254.5128 549.6043 248.2084 547.8472 240.9014 547.2528 221.8092 545.4484 219.2784 542.9075 218.6087 540.5823 219.3107 539.8774 221.7492 537.4417 222.2433 534.5116 220.0543 Z"/>
<path d="M 68.5149 28.6276 72.2867 24.6301 73.1442 21.7918 75.2485 19.765 76.8793 16.4208 83.1815 11.2301 84.7912 7.7832 87.7477 8.3817 92.5664 6.0341 93.8869 4.1737 93.1188 3.0416 95.181 1.065 98.7266 1 100.9308 3.074 101.62 5.9135 106.7543 8.8085 108.4904 8.5579 110.8471 9.8012 115.3607 10.91 117.0494 10.4414 119.6902 12.0976 123.2306 11.0352 123.7514 14.4355 123.3464 17.6546 119.3272 27.0927 119.1221 30.6633 117.949 39.7974 119.7376 40.5067 117.1809 44.2339 114.4612 44.526 112.3674 43.4412 109.674 45.3836 106.7701 48.8184 104.5975 47.1868 98.8371 47.0431 96.3962 48.2529 94.5602 47.5576 92.598 45.3789 90.0729 43.9743 88.7946 41.7213 83.4971 41.5498 78.8836 39.1715 74.2595 35.0173 73.5651 33.2183 71.5134 31.7484 70.7769 29.453 68.5149 28.6276 Z"/>
<path d="M 603.3047 322.7879 602.8944 318.4605 604.5463 317.5157 606.1928 314.7273 604.7304 311.6991 606.7768 306.0153 605.7878 304.6462 605.9193 299.2613 605.4037 295.4528 603.3521 292.9167 603.9045 287.5121 607.4869 286.087 611.1957 285.5382 615.2358 291.704 617.3401 293.1104 619.8442 293.2164 622.6954 297.0851 624.0684 300.792 628.3401 307.0987 632.1751 310.5098 636.352 313.1095 638.3773 316.6124 640.2028 318.5896 640.1186 320.4745 642.3859 324.1796 645.4318 324.5897 648.5251 326.3638 651.3553 331.8654 652.8809 332.7362 657.3735 339.9968 653.8488 343.0832 654.3591 344.1288 652.7862 347.3116 648.725 348.5045 647.4151 351.3739 643.759 355.62 642.1755 355.8733 641.6126 358.6408 637.2673 361.2793 637.1621 362.9692 634.2898 363.4434 633.3903 366.0402 634.5003 367.9233 632.0541 371.215 630.0287 369.0696 627.2722 368.3929 624.1421 369.3689 622.3798 368.4251 614.6835 370.0042 612.2162 369.8431 611.3798 365.9389 608.4654 361.8365 608.8179 355.095 610.4697 352.2535 609.6964 350.1994 609.628 345.6673 611.2536 340.7339 610.5276 340.0797 609.8279 335.3439 606.9135 332.2018 606.2191 326.2072 603.3047 322.7879 Z"/>
<path d="M 578.3115 208.6826 581.2364 207.8788 581.1523 205.4027 583.9614 204.3771 586.9495 205.4166 587.3387 204.2709 590.695 206.4883 589.543 209.8606 591.3579 212.3549 591.8945 216.3549 594.4038 218.9921 597.2445 223.8689 599.3645 230.7353 607.9867 246.1729 595.1718 249.2931 598.244 246.376 598.1441 242.5032 595.7347 238.764 593.8987 234.0503 594.0671 233.1685 590.5635 230.7353 588.9801 228.3342 589.1642 226.4271 587.0442 222.4096 586.0815 219.4631 584.7873 218.9459 582.3306 215.9207 582.4727 214.4889 578.3115 208.6826 Z"/>
<path d="M 517.1673 281.7793 529.3667 268.8862 535.369 265.5736 543.7966 262.2561 553.2131 260.8165 570.2312 263.1974 580.9208 263.0405 577.0384 269.5275 579.6004 287.9317 578.8691 289.366 572.5722 293.5715 571.6147 295.3468 565.0968 301.3637 564.0868 303.028 561.7669 303.2263 557.3111 305.9278 551.5875 308.288 550.4144 307.9423 543.3336 309.9705 541.2504 309.6755 537.6574 311.1505 535.7215 311.0353 532.0285 312.7915 530.624 310.0028 530.6397 305.9047 527.8937 302.461 525.2792 302.129 524.7531 299.9898 521.3126 293.0873 519.9396 292.6954 518.8822 289.1446 517.9774 282.8494 517.1673 281.7793 Z"/>
<path d="M 645.4844 249.1546 650.603 244.922 650.9187 242.5771 652.1128 241.7139 653.5753 238.4593 656.0478 235.934 656.4476 233.6625 663.1233 233.7179 668.7522 233.2054 675.1807 234.8814 686.1333 233.9672 691.1624 236.1372 698.8061 236.9728 703.9984 235.7724 703.7985 237.5083 705.2136 240.3521 704.1615 246.5791 703.2198 248.4946 701.1945 249.3069 695.6918 255.9988 695.5972 261.4671 694.303 264.9692 691.6517 268.0927 689.9998 272.0833 688.3691 274.233 688.5584 275.5892 686.5226 278.4122 683.0295 277.3237 679.0946 273.6887 671.4298 270.9208 668.8837 267.8067 667.3949 267.6313 665.8904 264.2079 656.8421 258.9015 648.7934 255.9435 645.4844 249.1546 Z"/>
<path d="M 387.0247 302.8713 387.1457 302.8344 387.2351 302.7929 387.2351 302.8206 387.1141 302.8667 387.0668 302.9035 387.0247 302.8713 Z"/>
<path d="M 359.0539 333.0495 359.58 331.225 360.9162 328.1056 360.4059 326.4652 361.7526 324.7925 361.5159 322.1428 362.9836 318.7463 366.0032 315.9395 370.6536 308.7121 375.1672 305.1994 376.9558 304.9919 380.0123 301.5942 382.711 301.8339 385.8252 303.6319 389.0447 302.1106 389.8444 305.7572 394.1318 305.7572 393.4584 307.3476 395.8888 309.8368 400.5918 311.1183 397.4828 315.1099 394.9366 317.1102 390.3757 316.2713 388.2767 316.8106 386.7301 318.7186 384.568 318.4329 384.1471 321.3179 378.3078 325.9583 374.7569 327.4006 370.0802 328.313 369.3332 329.9763 369.107 333.8926 365.5666 333.7176 361.6211 335.1274 359.0539 333.0495 Z"/>
<path d="M 556.8482 213.542 558.884 212.5859 560.0887 215.057 562.6822 214.766 562.5928 212.2164 565.5335 211.0847 568.4058 212.2395 571.6305 212.0501 574.1556 210.4749 574.6501 207.9389 578.3115 208.6826 582.4727 214.4889 582.3306 215.9207 584.7873 218.9459 586.0815 219.4631 587.0442 222.4096 589.1642 226.4271 588.9801 228.3342 590.5635 230.7353 594.0671 233.1685 593.8987 234.0503 595.7347 238.764 598.1441 242.5032 598.244 246.376 595.1718 249.2931 584.0456 252.473 581.9677 262.0577 580.9208 263.0405 571.7673 261.6563 564.5655 255.2143 561.3092 251.2038 560.9567 248.8869 559.5048 247.5576 558.6789 245.2405 554.907 230.7122 554.6492 228.8237 556.4115 224.6585 556.3589 220.2206 557.4479 218.1284 556.8482 213.542 Z"/>
<path d="M 685.1548 148.3927 688.2954 145.5989 689.9946 145.3214 690.3997 143.2537 695.8128 139.7332 698.2853 139.0809 701.6837 139.5251 707.26 138.1742 711.116 135.0975 713.9988 135.4029 715.2824 134.6302 716.0189 127.7961 717.2341 126.1857 720.8692 125.5193 722.0318 127.9812 724.1518 128.6105 725.5038 127.2223 726.961 128.8372 729.5387 129.6239 732.0954 129.1334 734.8256 126.4541 736.993 128.6059 738.3292 128.2311 738.6659 132.1826 739.9495 134.4035 739.8022 137.8411 741.2857 140.9592 740.1389 143.6422 736.5985 145.7516 736.0514 148.5454 733.7577 154.2758 734.4942 156.0609 737.0509 157.3928 740.0494 160.9212 739.0184 164.9671 735.4306 175.2491 732.3742 178.0551 731.1169 186.2222 730.7118 190.5894 728.2341 187.8536 728.8022 185.6815 726.5349 183.8004 720.1222 182.1041 718.3914 182.5941 716.4924 180.4956 712.0471 178.0643 708.9171 175.8408 703.8669 175.0457 701.6732 174.0426 698.6325 177.5004 698.1591 180.0889 696.16 182.3029 698.2906 173.2475 700.1002 172.8037 699.2375 164.4492 693.7822 160.2645 689.3317 156.0563 687.1328 151.191 685.1548 148.3927 Z M 717.0552 156.639 718.8912 155.0805 720.4273 156.5881 725.2829 155.0713 728.4813 151.6674 730.938 144.8218 728.8759 144.7524 727.1346 143.3924 722.9366 141.9353 720.7429 142.0324 714.7511 139.9044 712.0156 140.2884 709.1275 144.5535 707.7545 147.9811 705.9553 148.7119 700.2738 152.4721 700.4422 155.802 699.9845 159.5755 702.8779 161.5454 704.1246 163.4829 706.7655 164.5879 709.9166 162.0864 712.7573 160.542 714.6459 158.2992 717.0552 156.639 Z"/>
<path d="M 88.0791 87.8446 90.862 83.4353 93.3924 82.3191 91.8878 83.6206 94.1341 85.1028 98.532 83.3242 101.7515 87.0712 104.2871 88.5022 103.84 89.9518 100.8782 91.5217 102.5038 93.2352 102.7721 95.1338 105.7338 100.88 107.333 100.9449 108.7902 104.8432 108.5272 108.3848 111.0628 117.8693 110.3947 120.5027 110.5262 125.8572 111.6309 128.4023 112.0834 134.0149 112.8409 135.9859 107.7591 137.4386 105.4234 134.8523 105.355 133.3903 103.719 130.7807 102.8352 127.9904 100.3206 126.7225 98.6635 121.9791 95.5492 119.3688 100.9203 118.9615 98.2637 109.1254 97.5903 102.9867 96.575 100.7921 93.8079 99.2595 92.9031 94.1799 89.4995 94.805 87.8792 92.3924 89.389 90.0259 88.0791 87.8446 Z"/>
<path d="M 660.2615 185.5659 661.9765 183.255 660.3457 181.2259 663.1181 180.075 663.9755 178.2954 665.9009 179.0674 667.5896 178.0273 667.7369 175.4895 669.2782 176.206 671.7087 179.7376 675.4753 182.2798 677.8425 183.255 679.1787 186.6381 681.4461 188.1864 683.0348 190.46 685.0023 195.3167 685.8492 198.5141 681.7828 200.6303 682.3877 196.8877 678.679 192.9231 676.8641 193.0109 672.0085 191.412 668.7522 188.9027 660.2615 185.5659 Z"/>
<path d="M 579.6004 287.9317 577.0384 269.5275 580.9208 263.0405 581.9677 262.0577 584.0456 252.473 595.1718 249.2931 607.9867 246.1729 614.1732 242.7109 615.441 252.3899 624.6997 250.0777 627.6141 244.5943 627.5773 240.3751 628.6925 229.2162 627.9455 227.4292 626.22 217.8698 625.9728 212.0547 627.793 208.5394 628.9608 205.8739 635.0316 206.262 637.3883 202.409 642.4175 201.2863 641.1392 197.1465 645.6054 196.1115 649.0511 193.8565 646.8259 197.8026 647.6623 201.2032 651.5605 203.2314 655.5322 208.0682 659.4935 210.0869 659.6671 211.4172 662.8971 216.1932 664.5174 217.2186 663.3232 221.6845 663.2338 224.4831 660.1458 225.7668 657.2735 228.1449 657.284 231.0215 656.4476 233.6625 656.0478 235.934 653.5753 238.4593 652.1128 241.7139 650.9187 242.5771 650.603 244.922 645.4844 249.1546 643.8221 247.4191 641.0918 248.4069 640.4342 250.6361 638.0617 251.3377 635.5261 254.9467 632.0856 257.5863 632.8484 262.5191 629.6079 271.2391 623.0584 276.1751 619.5127 277.6881 618.2449 279.9759 613.705 284.6988 611.1957 285.5382 607.4869 286.087 603.9045 287.5121 602.8366 290.2652 600.6166 291.7777 594.2723 294.3185 587.5281 293.0274 586.2919 291.0722 581.1102 289.3706 579.6004 287.9317 Z"/>
<path d="M 93.3924 82.3191 94.4077 81.5409 94.8811 77.9186 93.6028 76.7744 94.3551 72.6328 98.0796 67.7356 99.6998 64.0844 99.6052 61.8787 101.8304 58.6348 102.8562 53.1707 104.5501 50.1116 106.7701 48.8184 109.674 45.3836 112.3674 43.4412 114.4612 44.526 117.1809 44.2339 121.1685 47.1265 122.6099 48.9158 126.6763 50.6029 127.0709 51.8405 128.0704 52.735 128.1125 55.8263 128.0809 59.2604 127.0761 60.3355 126.9762 64.0751 125.398 64.9972 124.0039 69.4406 127.4339 73.1748 128.8963 76.6539 130.4166 79.299 130.201 81.6845 131.2426 83.7735 132.2 91.5634 132.3999 97.5463 131.5108 101.5236 128.5281 109.3384 127.5601 113.0416 125.9925 113.8933 126.1976 117.4249 127.1445 118.7301 127.6864 124.6262 126.5869 127.2593 126.7921 130.4105 127.6759 133.3394 126.8289 135.7499 121.4578 136.3791 112.8409 135.9859 112.0834 134.0149 111.6309 128.4023 110.5262 125.8572 110.3947 120.5027 111.0628 117.8693 108.5272 108.3848 108.7902 104.8432 107.333 100.9449 105.7338 100.88 102.7721 95.1338 102.5038 93.2352 100.8782 91.5217 103.84 89.9518 104.2871 88.5022 101.7515 87.0712 98.532 83.3242 94.1341 85.1028 91.8878 83.6206 93.3924 82.3191 Z"/>
<path d="M 622.6481 201.4619 625.978 199.8079 628.6715 196.4765 631.4491 196.4673 633.8006 195.5986 634.274 197.1557 641.1392 197.1465 642.4175 201.2863 637.3883 202.409 635.0316 206.262 628.9608 205.8739 627.793 208.5394 625.4046 207.634 623.9527 205.472 622.6481 201.4619 Z"/>
<path d="M 66.7368 53.3236 66.0003 51.6922 63.5699 50.0745 63.5594 48.3456 61.1237 45.6663 62.4651 43.1214 61.3815 40.3954 61.2026 37.368 62.0443 34.0343 65.3059 31.0157 65.8004 28.4653 68.5149 28.6276 70.7769 29.453 71.5134 31.7484 73.5651 33.2183 74.2595 35.0173 78.8836 39.1715 83.4971 41.5498 88.7946 41.7213 90.0729 43.9743 92.598 45.3789 94.5602 47.5576 96.3962 48.2529 98.8371 47.0431 104.5975 47.1868 106.7701 48.8184 104.5501 50.1116 102.8562 53.1707 98.6898 53.2031 95.6386 52.253 92.0246 52.1371 85.5909 50.3573 82.6922 50.5334 81.5717 48.7767 77.7841 49.2727 75.4115 50.6725 68.0835 51.5856 66.7368 53.3236 Z"/>
<path d="M 127.0709 51.8405 130.2746 50.2414 131.9633 51.1221 137.4817 50.9228 144.5625 47.7059 147.035 48.1185 149.1918 46.3478 150.5701 43.1445 157.1406 39.904 158.1086 36.4083 160.2286 34.4516 161.549 39.1715 164.0531 41.8511 164.3635 43.6406 168.088 46.2412 169.4347 51.5902 171.5126 52.5218 170.9866 56.0488 168.0722 60.6321 168.3878 62.2818 165.9732 64.6775 163.0851 65.91 160.6863 69.0097 158.7241 66.846 158.0297 63.9175 156.1201 61.2484 147.6189 56.6884 145.6777 57.263 141.8427 54.7697 139.3124 54.8809 135.5405 53.7778 133.4152 55.8171 128.1125 55.8263 128.0704 52.735 127.0709 51.8405 Z"/>
<path d="M 601.9002 206.6362 604.6883 207.4538 610.1856 207.3014 611.869 204.9269 615.8987 205.6707 619.6653 202.5245 621.8485 202.9634 622.6481 201.4619 623.9527 205.472 625.4046 207.634 627.793 208.5394 625.9728 212.0547 626.22 217.8698 627.9455 227.4292 628.6925 229.2162 627.5773 240.3751 627.6141 244.5943 624.6997 250.0777 615.441 252.3899 614.1732 242.7109 612.1689 237.7992 610.9379 236.7373 608.981 233.247 607.387 228.916 603.6256 223.7534 603.2627 220.7286 602.0054 219.3893 600.7481 209.4356 601.9002 206.6362 Z"/>
<path d="M 686.6383 198.3432 687.7693 193.8611 690.7469 191.3242 696.16 182.3029 698.1591 180.0889 698.6325 177.5004 701.6732 174.0426 703.8669 175.0457 708.9171 175.8408 712.0471 178.0643 716.4924 180.4956 716.5765 183.2643 714.446 187.1789 710.7425 192.0728 713.3728 194.1338 714.2619 196.2917 717.2025 197.4237 721.8266 196.7306 725.4828 200.4547 721.5057 202.7555 720.8061 204.5804 717.3551 203.7627 715.2245 204.5157 713.82 206.4606 709.0907 204.5296 706.1815 204.5527 702.1992 202.0717 702.1992 200.9213 696.3179 198.4356 690.2313 199.7108 688.3059 198.1861 686.6383 198.3432 Z"/>
<path d="M 121.1685 47.1265 122.0891 45.3094 125.1192 42.12 126.4712 39.5795 130.5219 34.7947 131.9475 33.9787 132.4052 31.8133 133.9728 30.5057 136.9293 29.6385 136.7925 28.2103 138.6863 26.3553 142.8633 24.9084 144.6466 25.4 146.5036 23.6655 149.881 22.251 153.8422 18.1324 154.3472 19.5795 157.2143 23.2249 158.0191 25.3072 158.4768 32.3883 160.2286 34.4516 158.1086 36.4083 157.1406 39.904 150.5701 43.1445 149.1918 46.3478 147.035 48.1185 144.5625 47.7059 137.4817 50.9228 131.9633 51.1221 130.2746 50.2414 127.0709 51.8405 126.6763 50.6029 122.6099 48.9158 121.1685 47.1265 Z"/>
<path d="M 590.695 206.4883 593.7935 205.4489 596.1608 207.3291 598.7385 206.5992 601.9002 206.6362 600.7481 209.4356 602.0054 219.3893 603.2627 220.7286 603.6256 223.7534 607.387 228.916 608.981 233.247 610.9379 236.7373 612.1689 237.7992 614.1732 242.7109 607.9867 246.1729 599.3645 230.7353 597.2445 223.8689 594.4038 218.9921 591.8945 216.3549 591.3579 212.3549 589.543 209.8606 590.695 206.4883 Z"/>
<path d="M 594.8036 335.929 595.0087 330.7412 602.1948 325.7832 603.3047 322.7879 606.2191 326.2072 606.9135 332.2018 609.8279 335.3439 610.5276 340.0797 611.2536 340.7339 609.628 345.6673 609.6964 350.1994 610.4697 352.2535 608.8179 355.095 608.4654 361.8365 611.3798 365.9389 612.2162 369.8431 603.8676 373.8712 601.0742 374.0691 598.6807 376.762 598.344 378.3408 596.024 378.4973 595.8504 378.0739 596.3975 355.3022 594.9141 350.9087 595.7031 347.2702 594.3512 342.5442 594.8036 335.929 Z"/>
<path d="M 393.5058 360.6163 393.732 360.6761 393.7477 360.8419 393.5321 360.736 393.5058 360.6163 Z"/>
<path d="M 361.6211 335.1274 365.5666 333.7176 369.107 333.8926 369.3332 329.9763 370.0802 328.313 374.7569 327.4006 378.3078 325.9583 384.1471 321.3179 384.568 318.4329 386.7301 318.7186 388.2767 316.8106 390.3757 316.2713 394.9366 317.1102 397.4828 315.1099 400.5918 311.1183 403.159 313.6626 405.7209 314.8425 408.6879 314.9071 408.7668 317.7969 411.4708 319.4975 410.2082 322.1428 411.9074 324.3363 414.3273 325.3777 413.2857 327.889 414.1853 331.6903 414.1116 336.4588 416.258 339.8955 411.9706 342.4291 410.3766 344.2163 410.324 346.3029 408.6774 348.7625 406.3838 350.0935 404.6688 349.5316 398.2088 355.3391 398.4139 357.6278 397.1987 358.5257 394.9524 358.0606 393.4795 360.5748 392.2169 360.7314 390.6755 363.3191 388.9238 363.7657 389.4866 365.8883 387.9926 366.4592 386.6459 364.7971 383.9788 365.7272 382.1586 369.0328 379.6703 369.1433 377.7291 367.3984 375.5355 363.9269 375.2619 362.1634 372.8788 360.1328 372.4738 358.0837 366.6976 348.3848 364.6091 344.1334 362.8258 339.4578 361.6211 335.1274 Z"/>
<path d="M 128.1125 55.8263 133.4152 55.8171 135.5405 53.7778 139.3124 54.8809 141.8427 54.7697 145.6777 57.263 147.6189 56.6884 156.1201 61.2484 158.0297 63.9175 158.7241 66.846 160.6863 69.0097 157.8824 72.9524 157.8876 76.6261 154.342 82.0597 152.4797 80.7859 153.9632 77.8583 151.7537 76.9736 149.9178 77.2561 147.2349 80.4755 143.5629 82.0875 140.6801 81.3927 139.1703 79.5491 134.1254 77.7333 133.1679 76.8299 128.8963 76.6539 127.4339 73.1748 124.0039 69.4406 125.398 64.9972 126.9762 64.0751 127.0761 60.3355 128.0809 59.2604 128.1125 55.8263 Z"/>
<path d="M 716.4924 180.4956 718.3914 182.5941 720.1222 182.1041 726.5349 183.8004 728.8022 185.6815 728.2341 187.8536 730.7118 190.5894 731.1169 186.2222 732.3742 178.0551 735.4306 175.2491 739.0184 164.9671 740.0494 160.9212 737.0509 157.3928 734.4942 156.0609 733.7577 154.2758 736.0514 148.5454 736.5985 145.7516 740.1389 143.6422 741.2857 140.9592 739.8022 137.8411 739.9495 134.4035 738.6659 132.1826 738.3292 128.2311 739.3182 126.8891 743.5267 127.7776 745.2206 129.4619 747.3617 128.5966 750.6443 128.4161 754.2689 130.5724 757.5095 131.2063 763.9379 129.5961 768.6778 127.9303 770.177 128.3329 777.2684 123.983 778.4836 122.428 780.0617 122.8954 783.902 120.8822 785.5012 121.7384 792.34 123.4461 792.8661 125.959 795.9278 128.4624 796.5538 132.7009 799 135.5648 798.3424 137.5265 796.2119 138.8774 795.1019 143.8781 791.8298 145.8811 791.5667 148.0273 789.736 149.3363 789.5361 150.8626 784.7542 150.1781 778.0838 153.4665 775.5744 156.1349 772.518 156.7824 768.3253 162.0402 766.463 160.7547 762.9279 162.6644 760.4028 164.8931 757.0781 165.3 755.7577 166.6686 753.6955 166.3311 749.9868 171.7357 749.8026 175.8039 748.0351 180.2322 746.4095 182.3583 744.1843 181.739 740.2441 183.7542 738.1767 187.2343 735.9461 189.8547 731.6324 192.9878 730.7802 195.6263 728.1499 198.4264 725.4828 200.4547 721.8266 196.7306 717.2025 197.4237 714.2619 196.2917 713.3728 194.1338 710.7425 192.0728 714.446 187.1789 716.5765 183.2643 716.4924 180.4956 Z"/>
<path d="M 649.0511 193.8565 651.4447 187.7057 653.0071 186.9201 655.0009 188.1263 656.3529 191.1209 658.4571 193.0432 659.4987 192.3085 661.8555 193.1819 665.2065 196.1577 665.6905 199.2396 666.953 201.8685 671.2352 205.8785 672.6293 208.9182 671.5666 208.969 666.6795 212.8492 664.5174 217.2186 662.8971 216.1932 659.6671 211.4172 659.4935 210.0869 655.5322 208.0682 651.5605 203.2314 647.6623 201.2032 646.8259 197.8026 649.0511 193.8565 Z"/>
<path d="M 512.4117 261.1395 513.1745 259.2614 517.6144 255.1543 519.7082 254.5267 521.623 252.6576 524.5111 252.3668 523.6326 247.2437 522.4121 246.3483 525.6158 242.7987 526.6311 243.8142 529.2246 244.0958 530.1242 243.2141 531.6866 242.6186 535.5374 244.0173 537.347 245.4528 542.9969 248.2084 546.3848 250.4008 549.5938 251.5315 554.8333 254.5128 568.4794 260.4981 571.7673 261.6563 580.9208 263.0405 570.2312 263.1974 553.2131 260.8165 543.7966 262.2561 535.369 265.5736 529.3667 268.8862 517.1673 281.7793 516.394 278.2785 515.0157 275.9121 515.8574 273.7118 517.4566 272.194 518.1878 268.9231 516.899 265.0245 513.4007 263.4142 512.4117 261.1395 Z"/>
<path d="M 667.7369 175.4895 667.295 174.2922 669.9043 171.8837 672.3241 171.0099 672.3873 169.2022 674.4126 168.5411 677.3796 165.9566 678.9052 168.1157 682.009 170.2887 685.2495 176.9457 687.0644 183.2827 690.7469 191.3242 687.7693 193.8611 686.6383 198.3432 685.8492 198.5141 685.0023 195.3167 683.0348 190.46 681.4461 188.1864 679.1787 186.6381 677.8425 183.255 675.4753 182.2798 671.7087 179.7376 669.2782 176.206 667.7369 175.4895 Z"/>
<path d="M 521.0812 208.1976 527.2045 213.7406 529.919 215.4912 535.0376 215.1309 535.5163 216.0223 534.4484 216.6643 534.5116 220.0543 535.5111 226.0254 533.1596 230.4905 531.9654 234.5628 529.3614 240.0751 530.1242 243.2141 529.2246 244.0958 526.6311 243.8142 525.6158 242.7987 523.1749 241.6169 520.9917 238.1408 519.5083 232.9561 519.7818 227.951 519.0611 225.7299 519.9764 223.5364 519.3767 219.8834 519.7818 215.833 521.0812 208.1976 Z"/>
<path d="M 677.3796 165.9566 678.8105 163.6817 679.9994 157.5593 681.5881 154.6319 680.9674 152.4906 684.5446 149.6647 685.1548 148.3927 687.1328 151.191 689.3317 156.0563 693.7822 160.2645 699.2375 164.4492 700.1002 172.8037 698.2906 173.2475 696.16 182.3029 690.7469 191.3242 687.0644 183.2827 685.2495 176.9457 682.009 170.2887 678.9052 168.1157 677.3796 165.9566 Z"/>
<path d="M 530.1242 243.2141 529.3614 240.0751 531.9654 234.5628 533.1596 230.4905 535.5111 226.0254 534.5116 220.0543 537.4417 222.2433 539.8774 221.7492 540.5823 219.3107 542.9075 218.6087 545.4484 219.2784 547.2528 221.8092 547.8472 240.9014 549.6043 248.2084 554.8333 254.5128 549.5938 251.5315 546.3848 250.4008 542.9969 248.2084 537.347 245.4528 535.5374 244.0173 531.6866 242.6186 530.1242 243.2141 Z"/>
<path d="M 83.4077 92.4387 85.4751 89.7156 88.0791 87.8446 89.389 90.0259 87.8792 92.3924 89.4995 94.805 92.9031 94.1799 93.8079 99.2595 96.575 100.7921 97.5903 102.9867 98.2637 109.1254 100.9203 118.9615 95.5492 119.3688 93.103 117.9526 93.7711 111.8057 92.8768 108.9449 90.3202 105.033 88.2001 100.3105 87.9424 98.2223 85.1858 94.0409 83.4077 92.4387 Z"/>
<path d="M 717.0552 156.639 714.6459 158.2992 712.7573 160.542 709.9166 162.0864 706.7655 164.5879 704.1246 163.4829 702.8779 161.5454 699.9845 159.5755 700.4422 155.802 700.2738 152.4721 705.9553 148.7119 707.7545 147.9811 709.1275 144.5535 712.0156 140.2884 714.7511 139.9044 720.7429 142.0324 722.9366 141.9353 727.1346 143.3924 728.8759 144.7524 730.938 144.8218 728.4813 151.6674 725.2829 155.0713 720.4273 156.5881 718.8912 155.0805 717.0552 156.639 Z"/>
<path d="M 66.7368 53.3236 68.0835 51.5856 75.4115 50.6725 77.7841 49.2727 81.5717 48.7767 82.6922 50.5334 85.5909 50.3573 92.0246 52.1371 95.6386 52.253 98.6898 53.2031 102.8562 53.1707 101.8304 58.6348 99.6052 61.8787 99.6998 64.0844 98.0796 67.7356 94.3551 72.6328 93.6028 76.7744 94.8811 77.9186 94.4077 81.5409 93.3924 82.3191 90.862 83.4353 88.0791 87.8446 85.4751 89.7156 83.4077 92.4387 81.2614 90.0537 80.2724 87.4509 77.8262 85.6122 78.3575 82.37 77.5526 80.6377 76.2638 74.4256 73.8281 69.1626 74.1437 66.7487 71.3819 62.8796 71.7817 61.3504 70.9768 58.4309 67.9625 56.4752 66.7368 53.3236 Z"/>
<path d="M 54.1218 502.7389 57.9252 502.4772 65.4058 497.6701 68.0309 495.5993 71.4503 490.2635 71.9711 488.5276 70.5981 484.7296 68.6306 482.7226 72.0763 473.5864 71.3556 466.732 68.5254 462.1741 66.9314 460.9794 68.4517 461.3424 70.8558 459.8536 73.4809 459.2609 77.9314 454.9964 78.1576 453.4247 81.1193 452.2665 85.2542 452.579 86.6798 450.4511 89.2785 449.2378 94.0131 449.1091 96.2962 449.6652 96.7802 451.2784 100.0628 451.6645 101.6884 453.9945 103.2876 454.8631 105.4602 457.6525 105.2708 460.1431 108.322 463.0058 109.3215 464.9447 109.4583 468.8775 107.3278 470.7428 104.4186 476.1588 101.3149 477.7114 101.0203 479.7141 98.5793 483.1589 99.1843 485.988 98.0164 486.8881 93.5134 494.2677 92.3718 500.6407 90.5464 502.2798 87.2637 502.3532 86.2169 501.4212 83.8391 502.2109 80.5143 506.2417 80.4933 510.2996 79.6516 513.2098 80.0988 516.2804 79.215 518.1667 75.9902 507.4215 75.0538 506.4987 73.6755 500.4984 72.7339 501.6095 62.1916 503.6111 56.2313 503.3311 54.1218 502.7389 Z"/>
<path d="M 319.3941 317.1655 319.3625 317.23 319.2468 317.2576 319.2415 317.2023 319.3099 317.1516 319.3941 317.1655 Z"/>
<path d="M 321.109 314.0498 322.7451 315.0315 325.2176 314.9163 329.5681 318.7647 332.5035 317.5618 334.9655 315.1053 339.1319 315.7367 342.1568 317.3406 344.7398 320.8662 345.5289 323.1428 348.4538 324.8248 347.1018 326.2671 343.3825 326.3362 342.1305 329.6077 336.7647 332.1972 335.4705 333.6991 329.5523 337.8363 327.3376 342.793 327.4797 345.0408 325.9225 346.4088 322.0402 344.1657 321.0564 340.3147 318.363 338.6655 319.2626 335.4683 318.9785 332.5473 319.7728 327.4006 321.4247 324.0137 320.6619 319.8063 319.3415 318.8292 319.4782 316.4142 321.109 314.0498 Z"/>
<path d="M 348.9798 285.7919 348.6011 285.386 349.4691 285.4552 348.9798 285.7919 Z"/>
<path d="M 321.109 314.0498 323.9129 310.1549 323.1817 304.9965 324.4758 304.0791 326.1277 299.289 329.1473 297.0851 328.5791 294.7335 331.2568 291.6578 332.2353 292.4833 335.197 292.1097 337.559 289.9147 340.3892 290.2329 342.0095 288.1854 343.2405 289.0754 345.8708 287.4429 347.2017 285.7089 347.5489 287.0601 348.8957 285.8887 352.9884 285.8979 352.9516 287.6735 356.008 289.6565 355.9817 291.9714 358.7383 291.561 358.9224 293.1888 362.6627 291.8838 362.6154 295.545 364.8248 297.6937 365.1299 300.1189 363.6096 302.6177 361.8894 303.5075 360.0903 306.0015 360.7321 307.7533 359.1644 309.4312 358.7909 312.5979 356.4131 313.6119 356.5656 317.147 354.393 325.3685 355.8029 326.138 359.58 331.225 359.0539 333.0495 357.3442 339.0248 353.8091 344.4328 351.3261 346.4963 351.1682 348.0347 346.4968 351.162 343.7402 354.9062 341.0942 356.5318 339.1635 361.1919 337.9483 360.0499 334.5078 359.4743 332.2879 356.9508 329.7522 355.4864 329.3104 353.4785 330.2415 351.4015 329.526 348.6888 327.8847 346.8142 325.9225 346.4088 327.4797 345.0408 327.3376 342.793 329.5523 337.8363 335.4705 333.6991 336.7647 332.1972 342.1305 329.6077 343.3825 326.3362 347.1018 326.2671 348.4538 324.8248 345.5289 323.1428 344.7398 320.8662 342.1568 317.3406 339.1319 315.7367 334.9655 315.1053 332.5035 317.5618 329.5681 318.7647 325.2176 314.9163 322.7451 315.0315 321.109 314.0498 Z"/>
<path d="M 655.0009 188.1263 660.2615 185.5659 668.7522 188.9027 672.0085 191.412 676.8641 193.0109 678.679 192.9231 682.3877 196.8877 681.7828 200.6303 679.6627 203.5086 679.6943 206.322 676.0855 207.0427 672.6293 208.9182 671.2352 205.8785 666.953 201.8685 665.6905 199.2396 665.2065 196.1577 661.8555 193.1819 659.4987 192.3085 658.4571 193.0432 656.3529 191.1209 655.0009 188.1263 Z"/>
</g>
</svg>